%TF.GenerationSoftware,KiCad,Pcbnew,8.0.9-1.fc41*%
%TF.CreationDate,2025-03-30T20:33:57-04:00*%
%TF.ProjectId,pico_env,7069636f-5f65-46e7-962e-6b696361645f,rev?*%
%TF.SameCoordinates,Original*%
%TF.FileFunction,Soldermask,Bot*%
%TF.FilePolarity,Negative*%
%FSLAX46Y46*%
G04 Gerber Fmt 4.6, Leading zero omitted, Abs format (unit mm)*
G04 Created by KiCad (PCBNEW 8.0.9-1.fc41) date 2025-03-30 20:33:57*
%MOMM*%
%LPD*%
G01*
G04 APERTURE LIST*
G04 Aperture macros list*
%AMRoundRect*
0 Rectangle with rounded corners*
0 $1 Rounding radius*
0 $2 $3 $4 $5 $6 $7 $8 $9 X,Y pos of 4 corners*
0 Add a 4 corners polygon primitive as box body*
4,1,4,$2,$3,$4,$5,$6,$7,$8,$9,$2,$3,0*
0 Add four circle primitives for the rounded corners*
1,1,$1+$1,$2,$3*
1,1,$1+$1,$4,$5*
1,1,$1+$1,$6,$7*
1,1,$1+$1,$8,$9*
0 Add four rect primitives between the rounded corners*
20,1,$1+$1,$2,$3,$4,$5,0*
20,1,$1+$1,$4,$5,$6,$7,0*
20,1,$1+$1,$6,$7,$8,$9,0*
20,1,$1+$1,$8,$9,$2,$3,0*%
G04 Aperture macros list end*
%ADD10C,1.600000*%
%ADD11O,1.600000X1.600000*%
%ADD12C,1.750000*%
%ADD13O,1.700000X1.700000*%
%ADD14R,1.700000X1.700000*%
%ADD15C,3.200000*%
%ADD16RoundRect,0.102000X0.754000X-0.754000X0.754000X0.754000X-0.754000X0.754000X-0.754000X-0.754000X0*%
%ADD17C,1.712000*%
%ADD18R,1.800000X1.800000*%
%ADD19C,1.800000*%
%ADD20O,1.800000X1.800000*%
%ADD21O,1.500000X1.500000*%
%ADD22C,2.000000*%
G04 APERTURE END LIST*
D10*
%TO.C,R3*%
X220980000Y-99060000D03*
D11*
X220980000Y-109220000D03*
%TD*%
D10*
%TO.C,R1*%
X220980000Y-78740000D03*
D11*
X220980000Y-68580000D03*
%TD*%
D10*
%TO.C,C1*%
X210860000Y-104140000D03*
X213360000Y-104140000D03*
%TD*%
D12*
%TO.C,GY-BME/BMP1*%
X157480000Y-88646000D03*
X157480000Y-86106000D03*
X157480000Y-83566000D03*
X157480000Y-81026000D03*
X157480000Y-78486000D03*
X157480000Y-75946000D03*
%TD*%
D13*
%TO.C,SSD1*%
X165100000Y-99060000D03*
X167640000Y-99060000D03*
X170180000Y-99060000D03*
D14*
X172720000Y-99060000D03*
%TD*%
D15*
%TO.C,REF\u002A\u002A*%
X171450000Y-111760000D03*
%TD*%
D16*
%TO.C,RFID-RC522*%
X142240000Y-111760000D03*
D17*
X142240000Y-109220000D03*
X142240000Y-106680000D03*
X142240000Y-104140000D03*
X142240000Y-101600000D03*
X142240000Y-99060000D03*
X142240000Y-96520000D03*
X142240000Y-93980000D03*
%TD*%
D15*
%TO.C,REF\u002A\u002A*%
X210820000Y-111760000D03*
%TD*%
D10*
%TO.C,R4*%
X220980000Y-53340000D03*
D11*
X220980000Y-63500000D03*
%TD*%
D15*
%TO.C,REF\u002A\u002A*%
X215900000Y-58420000D03*
%TD*%
D18*
%TO.C,D1*%
X213360000Y-76200000D03*
D19*
X210820000Y-76200000D03*
%TD*%
D18*
%TO.C,D2*%
X213360000Y-86360000D03*
D19*
X210820000Y-86360000D03*
%TD*%
D18*
%TO.C,D3*%
X213360000Y-96520000D03*
D19*
X210820000Y-96520000D03*
%TD*%
D20*
%TO.C,U1*%
X188660000Y-53670000D03*
D21*
X188960000Y-56700000D03*
X193810000Y-56700000D03*
D20*
X194110000Y-53670000D03*
D13*
X182495000Y-53540000D03*
X182495000Y-56080000D03*
D14*
X182495000Y-58620000D03*
D13*
X182495000Y-61160000D03*
X182495000Y-63700000D03*
X182495000Y-66240000D03*
X182495000Y-68780000D03*
D14*
X182495000Y-71320000D03*
D13*
X182495000Y-73860000D03*
X182495000Y-76400000D03*
X182495000Y-78940000D03*
X182495000Y-81480000D03*
D14*
X182495000Y-84020000D03*
D13*
X182495000Y-86560000D03*
X182495000Y-89100000D03*
X182495000Y-91640000D03*
X182495000Y-94180000D03*
D14*
X182495000Y-96720000D03*
D13*
X182495000Y-99260000D03*
X182495000Y-101800000D03*
X200275000Y-101800000D03*
X200275000Y-99260000D03*
D14*
X200275000Y-96720000D03*
D13*
X200275000Y-94180000D03*
X200275000Y-91640000D03*
X200275000Y-89100000D03*
X200275000Y-86560000D03*
D14*
X200275000Y-84020000D03*
D13*
X200275000Y-81480000D03*
X200275000Y-78940000D03*
X200275000Y-76400000D03*
X200275000Y-73860000D03*
D14*
X200275000Y-71320000D03*
D13*
X200275000Y-68780000D03*
X200275000Y-66240000D03*
X200275000Y-63700000D03*
X200275000Y-61160000D03*
D14*
X200275000Y-58620000D03*
D13*
X200275000Y-56080000D03*
X200275000Y-53540000D03*
%TD*%
D15*
%TO.C,REF\u002A\u002A*%
X163830000Y-55880000D03*
%TD*%
D18*
%TO.C,D4*%
X213360000Y-53340000D03*
D19*
X210820000Y-53340000D03*
%TD*%
D22*
%TO.C,Reset*%
X217170000Y-68000000D03*
X210670000Y-68000000D03*
X217170000Y-63500000D03*
X210670000Y-63500000D03*
%TD*%
D10*
%TO.C,R2*%
X220980000Y-93980000D03*
D11*
X220980000Y-83820000D03*
%TD*%
D22*
%TO.C,SW2*%
X202080000Y-113720000D03*
X195580000Y-113720000D03*
X202080000Y-109220000D03*
X195580000Y-109220000D03*
%TD*%
D12*
%TO.C,U2*%
X157480000Y-66167000D03*
X157480000Y-63627000D03*
X157480000Y-61087000D03*
X157480000Y-58547000D03*
X157480000Y-56007000D03*
%TD*%
D22*
%TO.C,SW3*%
X187960000Y-113720000D03*
X181460000Y-113720000D03*
X187960000Y-109220000D03*
X181460000Y-109220000D03*
%TD*%
M02*
