%TF.GenerationSoftware,KiCad,Pcbnew,8.0.9-1.fc41*%
%TF.CreationDate,2025-03-09T21:58:35-04:00*%
%TF.ProjectId,pico_env,7069636f-5f65-46e7-962e-6b696361645f,rev?*%
%TF.SameCoordinates,Original*%
%TF.FileFunction,Copper,L2,Bot*%
%TF.FilePolarity,Positive*%
%FSLAX46Y46*%
G04 Gerber Fmt 4.6, Leading zero omitted, Abs format (unit mm)*
G04 Created by KiCad (PCBNEW 8.0.9-1.fc41) date 2025-03-09 21:58:35*
%MOMM*%
%LPD*%
G01*
G04 APERTURE LIST*
%TA.AperFunction,ComponentPad*%
%ADD10C,1.524000*%
%TD*%
%TA.AperFunction,ComponentPad*%
%ADD11O,1.700000X1.700000*%
%TD*%
%TA.AperFunction,ComponentPad*%
%ADD12R,1.700000X1.700000*%
%TD*%
%TA.AperFunction,ComponentPad*%
%ADD13C,2.000000*%
%TD*%
%TA.AperFunction,ComponentPad*%
%ADD14C,1.600000*%
%TD*%
%TA.AperFunction,ComponentPad*%
%ADD15O,1.600000X1.600000*%
%TD*%
%TA.AperFunction,ComponentPad*%
%ADD16R,1.800000X1.800000*%
%TD*%
%TA.AperFunction,ComponentPad*%
%ADD17C,1.800000*%
%TD*%
%TA.AperFunction,Conductor*%
%ADD18C,0.200000*%
%TD*%
G04 APERTURE END LIST*
D10*
%TO.P,BH1750,1,ADDR*%
%TO.N,unconnected-(U2-ADDR-Pad1)*%
X157480000Y-66167000D03*
%TO.P,BH1750,2,SDA*%
%TO.N,/SDA*%
X157480000Y-63627000D03*
%TO.P,BH1750,3,SCL*%
%TO.N,/SCL*%
X157480000Y-61087000D03*
%TO.P,BH1750,4,GND*%
%TO.N,GND*%
X157480000Y-58547000D03*
%TO.P,BH1750,5,VCC*%
%TO.N,+3.3V*%
X157480000Y-56007000D03*
%TD*%
D11*
%TO.P,U1,1,GPIO0*%
%TO.N,/SDA*%
X182495000Y-53540000D03*
%TO.P,U1,2,GPIO1*%
%TO.N,/SCL*%
X182495000Y-56080000D03*
D12*
%TO.P,U1,3,GND*%
%TO.N,GND*%
X182495000Y-58620000D03*
D11*
%TO.P,U1,4,GPIO2*%
%TO.N,unconnected-(U1-GPIO2-Pad4)*%
X182495000Y-61160000D03*
%TO.P,U1,5,GPIO3*%
%TO.N,unconnected-(U1-GPIO3-Pad5)*%
X182495000Y-63700000D03*
%TO.P,U1,6,GPIO4*%
%TO.N,unconnected-(U1-GPIO4-Pad6)*%
X182495000Y-66240000D03*
%TO.P,U1,7,GPIO5*%
%TO.N,unconnected-(U1-GPIO5-Pad7)*%
X182495000Y-68780000D03*
D12*
%TO.P,U1,8,GND*%
%TO.N,unconnected-(U1-GND-Pad8)*%
X182495000Y-71320000D03*
D11*
%TO.P,U1,9,GPIO6*%
%TO.N,unconnected-(U1-GPIO6-Pad9)*%
X182495000Y-73860000D03*
%TO.P,U1,10,GPIO7*%
%TO.N,unconnected-(U1-GPIO7-Pad10)*%
X182495000Y-76400000D03*
%TO.P,U1,11,GPIO8*%
%TO.N,unconnected-(U1-GPIO8-Pad11)*%
X182495000Y-78940000D03*
%TO.P,U1,12,GPIO9*%
%TO.N,unconnected-(U1-GPIO9-Pad12)*%
X182495000Y-81480000D03*
D12*
%TO.P,U1,13,GND*%
%TO.N,unconnected-(U1-GND-Pad13)*%
X182495000Y-84020000D03*
D11*
%TO.P,U1,14,GPIO10*%
%TO.N,unconnected-(U1-GPIO10-Pad14)*%
X182495000Y-86560000D03*
%TO.P,U1,15,GPIO11*%
%TO.N,unconnected-(U1-GPIO11-Pad15)*%
X182495000Y-89100000D03*
%TO.P,U1,16,GPIO12*%
%TO.N,unconnected-(U1-GPIO12-Pad16)*%
X182495000Y-91640000D03*
%TO.P,U1,17,GPIO13*%
%TO.N,unconnected-(U1-GPIO13-Pad17)*%
X182495000Y-94180000D03*
D12*
%TO.P,U1,18,GND*%
%TO.N,GND*%
X182495000Y-96720000D03*
D11*
%TO.P,U1,19,GPIO14*%
%TO.N,Net-(U1-GPIO14)*%
X182495000Y-99260000D03*
%TO.P,U1,20,GPIO15*%
%TO.N,Net-(U1-GPIO15)*%
X182495000Y-101800000D03*
%TO.P,U1,21,GPIO16*%
%TO.N,unconnected-(U1-GPIO16-Pad21)*%
X200275000Y-101800000D03*
%TO.P,U1,22,GPIO17*%
%TO.N,unconnected-(U1-GPIO17-Pad22)*%
X200275000Y-99260000D03*
D12*
%TO.P,U1,23,GND*%
%TO.N,unconnected-(U1-GND-Pad23)*%
X200275000Y-96720000D03*
D11*
%TO.P,U1,24,GPIO18*%
%TO.N,unconnected-(U1-GPIO18-Pad24)*%
X200275000Y-94180000D03*
%TO.P,U1,25,GPIO19*%
%TO.N,Net-(D3-A)*%
X200275000Y-91640000D03*
%TO.P,U1,26,GPIO20*%
%TO.N,Net-(D2-A)*%
X200275000Y-89100000D03*
%TO.P,U1,27,GPIO21*%
%TO.N,Net-(D1-A)*%
X200275000Y-86560000D03*
D12*
%TO.P,U1,28,GND*%
%TO.N,GND*%
X200275000Y-84020000D03*
D11*
%TO.P,U1,29,GPIO22*%
%TO.N,unconnected-(U1-GPIO22-Pad29)*%
X200275000Y-81480000D03*
%TO.P,U1,30,RUN*%
%TO.N,Net-(U1-RUN)*%
X200275000Y-78940000D03*
%TO.P,U1,31,GPIO26_ADC0*%
%TO.N,unconnected-(U1-GPIO26_ADC0-Pad31)*%
X200275000Y-76400000D03*
%TO.P,U1,32,GPIO27_ADC1*%
%TO.N,unconnected-(U1-GPIO27_ADC1-Pad32)*%
X200275000Y-73860000D03*
D12*
%TO.P,U1,33,AGND*%
%TO.N,unconnected-(U1-AGND-Pad33)*%
X200275000Y-71320000D03*
D11*
%TO.P,U1,34,GPIO28_ADC2*%
%TO.N,unconnected-(U1-GPIO28_ADC2-Pad34)*%
X200275000Y-68780000D03*
%TO.P,U1,35,ADC_VREF*%
%TO.N,unconnected-(U1-ADC_VREF-Pad35)*%
X200275000Y-66240000D03*
%TO.P,U1,36,3V3*%
%TO.N,+3.3V*%
X200275000Y-63700000D03*
%TO.P,U1,37,3V3_EN*%
%TO.N,unconnected-(U1-3V3_EN-Pad37)*%
X200275000Y-61160000D03*
D12*
%TO.P,U1,38,GND*%
%TO.N,GND*%
X200275000Y-58620000D03*
D11*
%TO.P,U1,39,VSYS*%
%TO.N,unconnected-(U1-VSYS-Pad39)*%
X200275000Y-56080000D03*
%TO.P,U1,40,VBUS*%
%TO.N,unconnected-(U1-VBUS-Pad40)*%
X200275000Y-53540000D03*
%TO.P,U1,41,SWCLK*%
%TO.N,unconnected-(U1-SWCLK-Pad41)*%
X188845000Y-101570000D03*
D12*
%TO.P,U1,42,GND*%
%TO.N,unconnected-(U1-GND-Pad42)*%
X191385000Y-101570000D03*
D11*
%TO.P,U1,43,SWDIO*%
%TO.N,unconnected-(U1-SWDIO-Pad43)*%
X193925000Y-101570000D03*
%TD*%
D13*
%TO.P,SW3,1,1*%
%TO.N,GND*%
X187960000Y-113720000D03*
X181460000Y-113720000D03*
%TO.P,SW3,2,2*%
%TO.N,Net-(U1-GPIO15)*%
X187960000Y-109220000D03*
X181460000Y-109220000D03*
%TD*%
%TO.P,SW2,1,1*%
%TO.N,GND*%
X202080000Y-113720000D03*
X195580000Y-113720000D03*
%TO.P,SW2,2,2*%
%TO.N,Net-(U1-GPIO14)*%
X202080000Y-109220000D03*
X195580000Y-109220000D03*
%TD*%
%TO.P,Reset,2,2*%
%TO.N,GND*%
X210670000Y-61540000D03*
X217170000Y-61540000D03*
%TO.P,Reset,1,1*%
%TO.N,Net-(U1-RUN)*%
X210670000Y-66040000D03*
X217170000Y-66040000D03*
%TD*%
D11*
%TO.P,SSD1,1,SDA*%
%TO.N,/SDA*%
X165100000Y-99060000D03*
%TO.P,SSD1,2,SCL*%
%TO.N,/SCL*%
X167640000Y-99060000D03*
%TO.P,SSD1,3,VCC*%
%TO.N,+3.3V*%
X170180000Y-99060000D03*
D12*
%TO.P,SSD1,4,GND*%
%TO.N,GND*%
X172720000Y-99060000D03*
%TD*%
D14*
%TO.P,R4,1*%
%TO.N,Net-(D4-K)*%
X220980000Y-53340000D03*
D15*
%TO.P,R4,2*%
%TO.N,GND*%
X220980000Y-63500000D03*
%TD*%
D14*
%TO.P,R3,1*%
%TO.N,Net-(D3-K)*%
X220980000Y-99060000D03*
D15*
%TO.P,R3,2*%
%TO.N,GND*%
X220980000Y-109220000D03*
%TD*%
D14*
%TO.P,R2,1*%
%TO.N,GND*%
X220980000Y-93980000D03*
D15*
%TO.P,R2,2*%
%TO.N,Net-(D2-K)*%
X220980000Y-83820000D03*
%TD*%
D14*
%TO.P,R1,1*%
%TO.N,Net-(D1-K)*%
X220980000Y-78740000D03*
D15*
%TO.P,R1,2*%
%TO.N,GND*%
X220980000Y-68580000D03*
%TD*%
D10*
%TO.P,BME280,1,Vin3.3*%
%TO.N,+3.3V*%
X157480000Y-88646000D03*
%TO.P,BME280,2,GND*%
%TO.N,GND*%
X157480000Y-86106000D03*
%TO.P,BME280,3,SCL*%
%TO.N,/SCL*%
X157480000Y-83566000D03*
%TO.P,BME280,4,SDA*%
%TO.N,/SDA*%
X157480000Y-81026000D03*
%TO.P,BME280,5,CSB*%
%TO.N,+3.3V*%
X157480000Y-78486000D03*
%TO.P,BME280,6,SDO*%
%TO.N,GND*%
X157480000Y-75946000D03*
%TD*%
D16*
%TO.P,D4,1,K*%
%TO.N,Net-(D4-K)*%
X213360000Y-53340000D03*
D17*
%TO.P,D4,2,A*%
%TO.N,+3.3V*%
X210820000Y-53340000D03*
%TD*%
D16*
%TO.P,D3,1,K*%
%TO.N,Net-(D3-K)*%
X213360000Y-96520000D03*
D17*
%TO.P,D3,2,A*%
%TO.N,Net-(D3-A)*%
X210820000Y-96520000D03*
%TD*%
D16*
%TO.P,D2,1,K*%
%TO.N,Net-(D2-K)*%
X213360000Y-86360000D03*
D17*
%TO.P,D2,2,A*%
%TO.N,Net-(D2-A)*%
X210820000Y-86360000D03*
%TD*%
D16*
%TO.P,D1,1,K*%
%TO.N,Net-(D1-K)*%
X213360000Y-76200000D03*
D17*
%TO.P,D1,2,A*%
%TO.N,Net-(D1-A)*%
X210820000Y-76200000D03*
%TD*%
D18*
%TO.N,/SCL*%
X167640000Y-81280000D02*
X167640000Y-83820000D01*
X167640000Y-60960000D02*
X167640000Y-81280000D01*
X167640000Y-81280000D02*
X167640000Y-99060000D01*
X167640000Y-83820000D02*
X165100000Y-83820000D01*
X165100000Y-83820000D02*
X164846000Y-83566000D01*
X164846000Y-83566000D02*
X157480000Y-83566000D01*
X167640000Y-55880000D02*
X167640000Y-60960000D01*
X182495000Y-56080000D02*
X167840000Y-56080000D01*
X167840000Y-56080000D02*
X167640000Y-55880000D01*
X165100000Y-60960000D02*
X164973000Y-61087000D01*
X167640000Y-60960000D02*
X165100000Y-60960000D01*
X164973000Y-61087000D02*
X157480000Y-61087000D01*
%TD*%
%TA.AperFunction,Conductor*%
%TO.N,GND*%
G36*
X222962539Y-51320185D02*
G01*
X223008294Y-51372989D01*
X223019500Y-51424500D01*
X223019500Y-115446000D01*
X222999815Y-115513039D01*
X222947011Y-115558794D01*
X222895500Y-115570000D01*
X155064000Y-115570000D01*
X154996961Y-115550315D01*
X154951206Y-115497511D01*
X154940000Y-115446000D01*
X154940000Y-113719994D01*
X179954859Y-113719994D01*
X179954859Y-113720005D01*
X179975385Y-113967729D01*
X179975387Y-113967738D01*
X180036412Y-114208717D01*
X180136267Y-114436367D01*
X180236562Y-114589881D01*
X180936212Y-113890233D01*
X180947482Y-113932292D01*
X181019890Y-114057708D01*
X181122292Y-114160110D01*
X181247708Y-114232518D01*
X181289766Y-114243787D01*
X180589943Y-114943609D01*
X180636768Y-114980055D01*
X180636771Y-114980057D01*
X180855385Y-115098364D01*
X180855396Y-115098369D01*
X181090506Y-115179083D01*
X181335707Y-115220000D01*
X181584293Y-115220000D01*
X181829493Y-115179083D01*
X182064603Y-115098369D01*
X182064614Y-115098364D01*
X182283230Y-114980056D01*
X182283236Y-114980051D01*
X182330055Y-114943610D01*
X182330056Y-114943609D01*
X181630233Y-114243787D01*
X181672292Y-114232518D01*
X181797708Y-114160110D01*
X181900110Y-114057708D01*
X181972518Y-113932292D01*
X181983787Y-113890234D01*
X182683435Y-114589882D01*
X182783733Y-114436364D01*
X182883587Y-114208717D01*
X182944612Y-113967738D01*
X182944614Y-113967729D01*
X182965141Y-113720005D01*
X182965141Y-113719994D01*
X186454859Y-113719994D01*
X186454859Y-113720005D01*
X186475385Y-113967729D01*
X186475387Y-113967738D01*
X186536412Y-114208717D01*
X186636267Y-114436367D01*
X186736562Y-114589881D01*
X187436212Y-113890233D01*
X187447482Y-113932292D01*
X187519890Y-114057708D01*
X187622292Y-114160110D01*
X187747708Y-114232518D01*
X187789766Y-114243787D01*
X187089943Y-114943609D01*
X187136768Y-114980055D01*
X187136771Y-114980057D01*
X187355385Y-115098364D01*
X187355396Y-115098369D01*
X187590506Y-115179083D01*
X187835707Y-115220000D01*
X188084293Y-115220000D01*
X188329493Y-115179083D01*
X188564603Y-115098369D01*
X188564614Y-115098364D01*
X188783230Y-114980056D01*
X188783236Y-114980051D01*
X188830055Y-114943610D01*
X188830056Y-114943609D01*
X188130233Y-114243787D01*
X188172292Y-114232518D01*
X188297708Y-114160110D01*
X188400110Y-114057708D01*
X188472518Y-113932292D01*
X188483787Y-113890234D01*
X189183435Y-114589882D01*
X189283733Y-114436364D01*
X189383587Y-114208717D01*
X189444612Y-113967738D01*
X189444614Y-113967729D01*
X189465141Y-113720005D01*
X189465141Y-113719994D01*
X194074859Y-113719994D01*
X194074859Y-113720005D01*
X194095385Y-113967729D01*
X194095387Y-113967738D01*
X194156412Y-114208717D01*
X194256267Y-114436367D01*
X194356562Y-114589881D01*
X195056212Y-113890233D01*
X195067482Y-113932292D01*
X195139890Y-114057708D01*
X195242292Y-114160110D01*
X195367708Y-114232518D01*
X195409766Y-114243787D01*
X194709943Y-114943609D01*
X194756768Y-114980055D01*
X194756771Y-114980057D01*
X194975385Y-115098364D01*
X194975396Y-115098369D01*
X195210506Y-115179083D01*
X195455707Y-115220000D01*
X195704293Y-115220000D01*
X195949493Y-115179083D01*
X196184603Y-115098369D01*
X196184614Y-115098364D01*
X196403230Y-114980056D01*
X196403236Y-114980051D01*
X196450055Y-114943610D01*
X196450056Y-114943609D01*
X195750233Y-114243787D01*
X195792292Y-114232518D01*
X195917708Y-114160110D01*
X196020110Y-114057708D01*
X196092518Y-113932292D01*
X196103787Y-113890234D01*
X196803435Y-114589882D01*
X196903733Y-114436364D01*
X197003587Y-114208717D01*
X197064612Y-113967738D01*
X197064614Y-113967729D01*
X197085141Y-113720005D01*
X197085141Y-113719994D01*
X200574859Y-113719994D01*
X200574859Y-113720005D01*
X200595385Y-113967729D01*
X200595387Y-113967738D01*
X200656412Y-114208717D01*
X200756267Y-114436367D01*
X200856562Y-114589881D01*
X201556212Y-113890233D01*
X201567482Y-113932292D01*
X201639890Y-114057708D01*
X201742292Y-114160110D01*
X201867708Y-114232518D01*
X201909766Y-114243787D01*
X201209943Y-114943609D01*
X201256768Y-114980055D01*
X201256771Y-114980057D01*
X201475385Y-115098364D01*
X201475396Y-115098369D01*
X201710506Y-115179083D01*
X201955707Y-115220000D01*
X202204293Y-115220000D01*
X202449493Y-115179083D01*
X202684603Y-115098369D01*
X202684614Y-115098364D01*
X202903230Y-114980056D01*
X202903236Y-114980051D01*
X202950055Y-114943610D01*
X202950056Y-114943609D01*
X202250233Y-114243787D01*
X202292292Y-114232518D01*
X202417708Y-114160110D01*
X202520110Y-114057708D01*
X202592518Y-113932292D01*
X202603787Y-113890233D01*
X203303435Y-114589882D01*
X203403733Y-114436364D01*
X203503587Y-114208717D01*
X203564612Y-113967738D01*
X203564614Y-113967729D01*
X203585141Y-113720005D01*
X203585141Y-113719994D01*
X203564614Y-113472270D01*
X203564612Y-113472261D01*
X203503587Y-113231282D01*
X203403732Y-113003632D01*
X203303435Y-112850116D01*
X202603787Y-113549765D01*
X202592518Y-113507708D01*
X202520110Y-113382292D01*
X202417708Y-113279890D01*
X202292292Y-113207482D01*
X202250233Y-113196212D01*
X202950055Y-112496389D01*
X202950055Y-112496388D01*
X202903236Y-112459947D01*
X202903231Y-112459944D01*
X202684614Y-112341635D01*
X202684603Y-112341630D01*
X202449493Y-112260916D01*
X202204293Y-112220000D01*
X201955707Y-112220000D01*
X201710506Y-112260916D01*
X201475396Y-112341630D01*
X201475385Y-112341635D01*
X201256770Y-112459943D01*
X201209943Y-112496389D01*
X201909766Y-113196212D01*
X201867708Y-113207482D01*
X201742292Y-113279890D01*
X201639890Y-113382292D01*
X201567482Y-113507708D01*
X201556212Y-113549766D01*
X200856563Y-112850117D01*
X200756267Y-113003633D01*
X200756265Y-113003637D01*
X200656412Y-113231282D01*
X200595387Y-113472261D01*
X200595385Y-113472270D01*
X200574859Y-113719994D01*
X197085141Y-113719994D01*
X197064614Y-113472270D01*
X197064612Y-113472261D01*
X197003587Y-113231282D01*
X196903732Y-113003632D01*
X196803435Y-112850116D01*
X196103787Y-113549765D01*
X196092518Y-113507708D01*
X196020110Y-113382292D01*
X195917708Y-113279890D01*
X195792292Y-113207482D01*
X195750233Y-113196212D01*
X196450055Y-112496389D01*
X196450055Y-112496388D01*
X196403236Y-112459947D01*
X196403231Y-112459944D01*
X196184614Y-112341635D01*
X196184603Y-112341630D01*
X195949493Y-112260916D01*
X195704293Y-112220000D01*
X195455707Y-112220000D01*
X195210506Y-112260916D01*
X194975396Y-112341630D01*
X194975385Y-112341635D01*
X194756770Y-112459943D01*
X194709943Y-112496389D01*
X195409766Y-113196212D01*
X195367708Y-113207482D01*
X195242292Y-113279890D01*
X195139890Y-113382292D01*
X195067482Y-113507708D01*
X195056212Y-113549765D01*
X194356563Y-112850117D01*
X194256267Y-113003633D01*
X194256265Y-113003637D01*
X194156412Y-113231282D01*
X194095387Y-113472261D01*
X194095385Y-113472270D01*
X194074859Y-113719994D01*
X189465141Y-113719994D01*
X189444614Y-113472270D01*
X189444612Y-113472261D01*
X189383587Y-113231282D01*
X189283732Y-113003632D01*
X189183435Y-112850116D01*
X188483787Y-113549765D01*
X188472518Y-113507708D01*
X188400110Y-113382292D01*
X188297708Y-113279890D01*
X188172292Y-113207482D01*
X188130233Y-113196212D01*
X188830055Y-112496389D01*
X188830055Y-112496388D01*
X188783236Y-112459947D01*
X188783231Y-112459944D01*
X188564614Y-112341635D01*
X188564603Y-112341630D01*
X188329493Y-112260916D01*
X188084293Y-112220000D01*
X187835707Y-112220000D01*
X187590506Y-112260916D01*
X187355396Y-112341630D01*
X187355385Y-112341635D01*
X187136770Y-112459943D01*
X187089943Y-112496389D01*
X187789766Y-113196212D01*
X187747708Y-113207482D01*
X187622292Y-113279890D01*
X187519890Y-113382292D01*
X187447482Y-113507708D01*
X187436212Y-113549765D01*
X186736563Y-112850117D01*
X186636267Y-113003633D01*
X186636265Y-113003637D01*
X186536412Y-113231282D01*
X186475387Y-113472261D01*
X186475385Y-113472270D01*
X186454859Y-113719994D01*
X182965141Y-113719994D01*
X182944614Y-113472270D01*
X182944612Y-113472261D01*
X182883587Y-113231282D01*
X182783732Y-113003632D01*
X182683435Y-112850116D01*
X181983787Y-113549765D01*
X181972518Y-113507708D01*
X181900110Y-113382292D01*
X181797708Y-113279890D01*
X181672292Y-113207482D01*
X181630233Y-113196212D01*
X182330055Y-112496389D01*
X182330055Y-112496388D01*
X182283236Y-112459947D01*
X182283231Y-112459944D01*
X182064614Y-112341635D01*
X182064603Y-112341630D01*
X181829493Y-112260916D01*
X181584293Y-112220000D01*
X181335707Y-112220000D01*
X181090506Y-112260916D01*
X180855396Y-112341630D01*
X180855385Y-112341635D01*
X180636770Y-112459943D01*
X180589943Y-112496389D01*
X181289766Y-113196212D01*
X181247708Y-113207482D01*
X181122292Y-113279890D01*
X181019890Y-113382292D01*
X180947482Y-113507708D01*
X180936212Y-113549766D01*
X180236563Y-112850117D01*
X180136267Y-113003633D01*
X180136265Y-113003637D01*
X180036412Y-113231282D01*
X179975387Y-113472261D01*
X179975385Y-113472270D01*
X179954859Y-113719994D01*
X154940000Y-113719994D01*
X154940000Y-109219994D01*
X179954357Y-109219994D01*
X179954357Y-109220005D01*
X179974890Y-109467812D01*
X179974892Y-109467824D01*
X180035936Y-109708881D01*
X180135826Y-109936606D01*
X180271833Y-110144782D01*
X180271836Y-110144785D01*
X180440256Y-110327738D01*
X180636491Y-110480474D01*
X180855190Y-110598828D01*
X181090386Y-110679571D01*
X181335665Y-110720500D01*
X181584335Y-110720500D01*
X181829614Y-110679571D01*
X182064810Y-110598828D01*
X182283509Y-110480474D01*
X182479744Y-110327738D01*
X182648164Y-110144785D01*
X182784173Y-109936607D01*
X182884063Y-109708881D01*
X182945108Y-109467821D01*
X182952850Y-109374394D01*
X182965643Y-109220005D01*
X182965643Y-109219994D01*
X186454357Y-109219994D01*
X186454357Y-109220005D01*
X186474890Y-109467812D01*
X186474892Y-109467824D01*
X186535936Y-109708881D01*
X186635826Y-109936606D01*
X186771833Y-110144782D01*
X186771836Y-110144785D01*
X186940256Y-110327738D01*
X187136491Y-110480474D01*
X187355190Y-110598828D01*
X187590386Y-110679571D01*
X187835665Y-110720500D01*
X188084335Y-110720500D01*
X188329614Y-110679571D01*
X188564810Y-110598828D01*
X188783509Y-110480474D01*
X188979744Y-110327738D01*
X189148164Y-110144785D01*
X189284173Y-109936607D01*
X189384063Y-109708881D01*
X189445108Y-109467821D01*
X189452850Y-109374394D01*
X189465643Y-109220005D01*
X189465643Y-109219994D01*
X194074357Y-109219994D01*
X194074357Y-109220005D01*
X194094890Y-109467812D01*
X194094892Y-109467824D01*
X194155936Y-109708881D01*
X194255826Y-109936606D01*
X194391833Y-110144782D01*
X194391836Y-110144785D01*
X194560256Y-110327738D01*
X194756491Y-110480474D01*
X194975190Y-110598828D01*
X195210386Y-110679571D01*
X195455665Y-110720500D01*
X195704335Y-110720500D01*
X195949614Y-110679571D01*
X196184810Y-110598828D01*
X196403509Y-110480474D01*
X196599744Y-110327738D01*
X196768164Y-110144785D01*
X196904173Y-109936607D01*
X197004063Y-109708881D01*
X197065108Y-109467821D01*
X197072850Y-109374394D01*
X197085643Y-109220005D01*
X197085643Y-109219994D01*
X200574357Y-109219994D01*
X200574357Y-109220005D01*
X200594890Y-109467812D01*
X200594892Y-109467824D01*
X200655936Y-109708881D01*
X200755826Y-109936606D01*
X200891833Y-110144782D01*
X200891836Y-110144785D01*
X201060256Y-110327738D01*
X201256491Y-110480474D01*
X201475190Y-110598828D01*
X201710386Y-110679571D01*
X201955665Y-110720500D01*
X202204335Y-110720500D01*
X202449614Y-110679571D01*
X202684810Y-110598828D01*
X202903509Y-110480474D01*
X203099744Y-110327738D01*
X203268164Y-110144785D01*
X203404173Y-109936607D01*
X203504063Y-109708881D01*
X203565108Y-109467821D01*
X203572850Y-109374394D01*
X203585643Y-109220005D01*
X203585643Y-109219994D01*
X203565109Y-108972187D01*
X203565107Y-108972175D01*
X203564556Y-108969999D01*
X219701127Y-108969999D01*
X219701128Y-108970000D01*
X220664314Y-108970000D01*
X220659920Y-108974394D01*
X220607259Y-109065606D01*
X220580000Y-109167339D01*
X220580000Y-109272661D01*
X220607259Y-109374394D01*
X220659920Y-109465606D01*
X220664314Y-109470000D01*
X219701128Y-109470000D01*
X219753730Y-109666317D01*
X219753734Y-109666326D01*
X219849865Y-109872482D01*
X219980342Y-110058820D01*
X220141179Y-110219657D01*
X220327517Y-110350134D01*
X220533673Y-110446265D01*
X220533682Y-110446269D01*
X220729999Y-110498872D01*
X220730000Y-110498871D01*
X220730000Y-109535686D01*
X220734394Y-109540080D01*
X220825606Y-109592741D01*
X220927339Y-109620000D01*
X221032661Y-109620000D01*
X221134394Y-109592741D01*
X221225606Y-109540080D01*
X221230000Y-109535686D01*
X221230000Y-110498872D01*
X221426317Y-110446269D01*
X221426326Y-110446265D01*
X221632482Y-110350134D01*
X221818820Y-110219657D01*
X221979657Y-110058820D01*
X222110134Y-109872482D01*
X222206265Y-109666326D01*
X222206269Y-109666317D01*
X222258872Y-109470000D01*
X221295686Y-109470000D01*
X221300080Y-109465606D01*
X221352741Y-109374394D01*
X221380000Y-109272661D01*
X221380000Y-109167339D01*
X221352741Y-109065606D01*
X221300080Y-108974394D01*
X221295686Y-108970000D01*
X222258872Y-108970000D01*
X222258872Y-108969999D01*
X222206269Y-108773682D01*
X222206265Y-108773673D01*
X222110134Y-108567517D01*
X221979657Y-108381179D01*
X221818820Y-108220342D01*
X221632482Y-108089865D01*
X221426328Y-107993734D01*
X221230000Y-107941127D01*
X221230000Y-108904314D01*
X221225606Y-108899920D01*
X221134394Y-108847259D01*
X221032661Y-108820000D01*
X220927339Y-108820000D01*
X220825606Y-108847259D01*
X220734394Y-108899920D01*
X220730000Y-108904314D01*
X220730000Y-107941127D01*
X220533671Y-107993734D01*
X220327517Y-108089865D01*
X220141179Y-108220342D01*
X219980342Y-108381179D01*
X219849865Y-108567517D01*
X219753734Y-108773673D01*
X219753730Y-108773682D01*
X219701127Y-108969999D01*
X203564556Y-108969999D01*
X203504063Y-108731118D01*
X203404173Y-108503393D01*
X203268166Y-108295217D01*
X203246557Y-108271744D01*
X203099744Y-108112262D01*
X202903509Y-107959526D01*
X202903507Y-107959525D01*
X202903506Y-107959524D01*
X202684811Y-107841172D01*
X202684802Y-107841169D01*
X202449616Y-107760429D01*
X202204335Y-107719500D01*
X201955665Y-107719500D01*
X201710383Y-107760429D01*
X201475197Y-107841169D01*
X201475188Y-107841172D01*
X201256493Y-107959524D01*
X201060257Y-108112261D01*
X200891833Y-108295217D01*
X200755826Y-108503393D01*
X200655936Y-108731118D01*
X200594892Y-108972175D01*
X200594890Y-108972187D01*
X200574357Y-109219994D01*
X197085643Y-109219994D01*
X197065109Y-108972187D01*
X197065107Y-108972175D01*
X197004063Y-108731118D01*
X196904173Y-108503393D01*
X196768166Y-108295217D01*
X196746557Y-108271744D01*
X196599744Y-108112262D01*
X196403509Y-107959526D01*
X196403507Y-107959525D01*
X196403506Y-107959524D01*
X196184811Y-107841172D01*
X196184802Y-107841169D01*
X195949616Y-107760429D01*
X195704335Y-107719500D01*
X195455665Y-107719500D01*
X195210383Y-107760429D01*
X194975197Y-107841169D01*
X194975188Y-107841172D01*
X194756493Y-107959524D01*
X194560257Y-108112261D01*
X194391833Y-108295217D01*
X194255826Y-108503393D01*
X194155936Y-108731118D01*
X194094892Y-108972175D01*
X194094890Y-108972187D01*
X194074357Y-109219994D01*
X189465643Y-109219994D01*
X189445109Y-108972187D01*
X189445107Y-108972175D01*
X189384063Y-108731118D01*
X189284173Y-108503393D01*
X189148166Y-108295217D01*
X189126557Y-108271744D01*
X188979744Y-108112262D01*
X188783509Y-107959526D01*
X188783507Y-107959525D01*
X188783506Y-107959524D01*
X188564811Y-107841172D01*
X188564802Y-107841169D01*
X188329616Y-107760429D01*
X188084335Y-107719500D01*
X187835665Y-107719500D01*
X187590383Y-107760429D01*
X187355197Y-107841169D01*
X187355188Y-107841172D01*
X187136493Y-107959524D01*
X186940257Y-108112261D01*
X186771833Y-108295217D01*
X186635826Y-108503393D01*
X186535936Y-108731118D01*
X186474892Y-108972175D01*
X186474890Y-108972187D01*
X186454357Y-109219994D01*
X182965643Y-109219994D01*
X182945109Y-108972187D01*
X182945107Y-108972175D01*
X182884063Y-108731118D01*
X182784173Y-108503393D01*
X182648166Y-108295217D01*
X182626557Y-108271744D01*
X182479744Y-108112262D01*
X182283509Y-107959526D01*
X182283507Y-107959525D01*
X182283506Y-107959524D01*
X182064811Y-107841172D01*
X182064802Y-107841169D01*
X181829616Y-107760429D01*
X181584335Y-107719500D01*
X181335665Y-107719500D01*
X181090383Y-107760429D01*
X180855197Y-107841169D01*
X180855188Y-107841172D01*
X180636493Y-107959524D01*
X180440257Y-108112261D01*
X180271833Y-108295217D01*
X180135826Y-108503393D01*
X180035936Y-108731118D01*
X179974892Y-108972175D01*
X179974890Y-108972187D01*
X179954357Y-109219994D01*
X154940000Y-109219994D01*
X154940000Y-56006997D01*
X156212677Y-56006997D01*
X156212677Y-56007002D01*
X156231929Y-56227062D01*
X156231930Y-56227070D01*
X156289104Y-56440445D01*
X156289105Y-56440447D01*
X156289106Y-56440450D01*
X156382466Y-56640662D01*
X156382468Y-56640666D01*
X156509170Y-56821615D01*
X156509175Y-56821621D01*
X156665378Y-56977824D01*
X156665384Y-56977829D01*
X156846333Y-57104531D01*
X156846335Y-57104532D01*
X156846338Y-57104534D01*
X156975781Y-57164894D01*
X157028220Y-57211066D01*
X157047372Y-57278260D01*
X157027156Y-57345141D01*
X156975781Y-57389658D01*
X156846590Y-57449901D01*
X156781811Y-57495258D01*
X157452554Y-58166000D01*
X157429840Y-58166000D01*
X157332939Y-58191964D01*
X157246060Y-58242124D01*
X157175124Y-58313060D01*
X157124964Y-58399939D01*
X157099000Y-58496840D01*
X157099000Y-58519553D01*
X156428258Y-57848811D01*
X156382901Y-57913590D01*
X156289579Y-58113720D01*
X156289575Y-58113729D01*
X156232426Y-58327013D01*
X156232424Y-58327023D01*
X156213179Y-58546999D01*
X156213179Y-58547000D01*
X156232424Y-58766976D01*
X156232426Y-58766986D01*
X156289575Y-58980270D01*
X156289580Y-58980284D01*
X156382898Y-59180405D01*
X156382901Y-59180411D01*
X156428258Y-59245187D01*
X156428258Y-59245188D01*
X157099000Y-58574446D01*
X157099000Y-58597160D01*
X157124964Y-58694061D01*
X157175124Y-58780940D01*
X157246060Y-58851876D01*
X157332939Y-58902036D01*
X157429840Y-58928000D01*
X157452553Y-58928000D01*
X156781810Y-59598740D01*
X156846589Y-59644098D01*
X156975781Y-59704342D01*
X157028220Y-59750514D01*
X157047372Y-59817708D01*
X157027156Y-59884589D01*
X156975781Y-59929106D01*
X156846340Y-59989465D01*
X156846338Y-59989466D01*
X156665377Y-60116175D01*
X156509175Y-60272377D01*
X156382466Y-60453338D01*
X156382465Y-60453340D01*
X156289107Y-60653548D01*
X156289104Y-60653554D01*
X156231930Y-60866929D01*
X156231929Y-60866937D01*
X156212677Y-61086997D01*
X156212677Y-61087002D01*
X156231929Y-61307062D01*
X156231930Y-61307070D01*
X156289104Y-61520445D01*
X156289105Y-61520447D01*
X156289106Y-61520450D01*
X156367002Y-61687500D01*
X156382466Y-61720662D01*
X156382468Y-61720666D01*
X156509170Y-61901615D01*
X156509175Y-61901621D01*
X156665378Y-62057824D01*
X156665384Y-62057829D01*
X156846333Y-62184531D01*
X156846335Y-62184532D01*
X156846338Y-62184534D01*
X156965748Y-62240215D01*
X156975189Y-62244618D01*
X157027628Y-62290790D01*
X157046780Y-62357984D01*
X157026564Y-62424865D01*
X156975189Y-62469382D01*
X156846340Y-62529465D01*
X156846338Y-62529466D01*
X156665377Y-62656175D01*
X156509175Y-62812377D01*
X156382466Y-62993338D01*
X156382465Y-62993340D01*
X156289107Y-63193548D01*
X156289104Y-63193554D01*
X156231930Y-63406929D01*
X156231929Y-63406937D01*
X156212677Y-63626997D01*
X156212677Y-63627002D01*
X156231929Y-63847062D01*
X156231930Y-63847070D01*
X156289104Y-64060445D01*
X156289105Y-64060447D01*
X156289106Y-64060450D01*
X156382466Y-64260662D01*
X156382468Y-64260666D01*
X156509170Y-64441615D01*
X156509175Y-64441621D01*
X156665378Y-64597824D01*
X156665384Y-64597829D01*
X156846333Y-64724531D01*
X156846335Y-64724532D01*
X156846338Y-64724534D01*
X156962865Y-64778871D01*
X156975189Y-64784618D01*
X157027628Y-64830790D01*
X157046780Y-64897984D01*
X157026564Y-64964865D01*
X156975189Y-65009382D01*
X156846340Y-65069465D01*
X156846338Y-65069466D01*
X156665377Y-65196175D01*
X156509175Y-65352377D01*
X156382466Y-65533338D01*
X156382465Y-65533340D01*
X156289107Y-65733548D01*
X156289104Y-65733554D01*
X156231930Y-65946929D01*
X156231929Y-65946937D01*
X156212677Y-66166997D01*
X156212677Y-66167002D01*
X156231929Y-66387062D01*
X156231930Y-66387070D01*
X156289104Y-66600445D01*
X156289105Y-66600447D01*
X156289106Y-66600450D01*
X156361923Y-66756607D01*
X156382466Y-66800662D01*
X156382468Y-66800666D01*
X156509170Y-66981615D01*
X156509175Y-66981621D01*
X156665378Y-67137824D01*
X156665384Y-67137829D01*
X156846333Y-67264531D01*
X156846335Y-67264532D01*
X156846338Y-67264534D01*
X157046550Y-67357894D01*
X157259932Y-67415070D01*
X157417123Y-67428822D01*
X157479998Y-67434323D01*
X157480000Y-67434323D01*
X157480002Y-67434323D01*
X157535017Y-67429509D01*
X157700068Y-67415070D01*
X157913450Y-67357894D01*
X158113662Y-67264534D01*
X158294620Y-67137826D01*
X158450826Y-66981620D01*
X158577534Y-66800662D01*
X158670894Y-66600450D01*
X158728070Y-66387068D01*
X158747323Y-66167000D01*
X158728070Y-65946932D01*
X158670894Y-65733550D01*
X158577534Y-65533339D01*
X158450826Y-65352380D01*
X158294620Y-65196174D01*
X158294616Y-65196171D01*
X158294615Y-65196170D01*
X158113666Y-65069468D01*
X158113658Y-65069464D01*
X157984811Y-65009382D01*
X157932371Y-64963210D01*
X157913219Y-64896017D01*
X157933435Y-64829135D01*
X157984811Y-64784618D01*
X157997135Y-64778871D01*
X158113662Y-64724534D01*
X158294620Y-64597826D01*
X158450826Y-64441620D01*
X158577534Y-64260662D01*
X158670894Y-64060450D01*
X158728070Y-63847068D01*
X158747323Y-63627000D01*
X158728070Y-63406932D01*
X158670894Y-63193550D01*
X158577534Y-62993339D01*
X158450826Y-62812380D01*
X158294620Y-62656174D01*
X158294616Y-62656171D01*
X158294615Y-62656170D01*
X158113666Y-62529468D01*
X158113658Y-62529464D01*
X157984811Y-62469382D01*
X157932371Y-62423210D01*
X157913219Y-62356017D01*
X157933435Y-62289135D01*
X157984811Y-62244618D01*
X157990802Y-62241824D01*
X158113662Y-62184534D01*
X158294620Y-62057826D01*
X158450826Y-61901620D01*
X158530573Y-61787729D01*
X158563730Y-61740377D01*
X158618307Y-61696752D01*
X158665305Y-61687500D01*
X164886331Y-61687500D01*
X164886347Y-61687501D01*
X164893943Y-61687501D01*
X165052054Y-61687501D01*
X165052057Y-61687501D01*
X165204785Y-61646577D01*
X165254904Y-61617639D01*
X165325102Y-61577111D01*
X165387099Y-61560500D01*
X166915500Y-61560500D01*
X166982539Y-61580185D01*
X167028294Y-61632989D01*
X167039500Y-61684500D01*
X167039500Y-83095500D01*
X167019815Y-83162539D01*
X166967011Y-83208294D01*
X166915500Y-83219500D01*
X165400098Y-83219500D01*
X165333059Y-83199815D01*
X165312417Y-83183181D01*
X165214717Y-83085481D01*
X165214712Y-83085477D01*
X165083118Y-83009502D01*
X165083116Y-83009500D01*
X165077791Y-83006426D01*
X165077787Y-83006424D01*
X165077785Y-83006423D01*
X165077783Y-83006422D01*
X165077782Y-83006422D01*
X165047826Y-82998395D01*
X164925057Y-82965499D01*
X164766943Y-82965499D01*
X164759347Y-82965499D01*
X164759331Y-82965500D01*
X158665304Y-82965500D01*
X158598265Y-82945815D01*
X158563729Y-82912623D01*
X158450827Y-82751381D01*
X158375355Y-82675909D01*
X158294620Y-82595174D01*
X158294616Y-82595171D01*
X158294615Y-82595170D01*
X158113666Y-82468468D01*
X158113658Y-82468464D01*
X157984811Y-82408382D01*
X157932371Y-82362210D01*
X157913219Y-82295017D01*
X157933435Y-82228135D01*
X157984811Y-82183618D01*
X157990802Y-82180824D01*
X158113662Y-82123534D01*
X158294620Y-81996826D01*
X158450826Y-81840620D01*
X158577534Y-81659662D01*
X158670894Y-81459450D01*
X158728070Y-81246068D01*
X158747323Y-81026000D01*
X158746477Y-81016335D01*
X158728070Y-80805937D01*
X158728070Y-80805932D01*
X158670894Y-80592550D01*
X158577534Y-80392339D01*
X158482768Y-80256998D01*
X158450827Y-80211381D01*
X158402448Y-80163002D01*
X158294620Y-80055174D01*
X158294616Y-80055171D01*
X158294615Y-80055170D01*
X158113666Y-79928468D01*
X158113658Y-79928464D01*
X157984811Y-79868382D01*
X157932371Y-79822210D01*
X157913219Y-79755017D01*
X157933435Y-79688135D01*
X157984811Y-79643618D01*
X157990802Y-79640824D01*
X158113662Y-79583534D01*
X158294620Y-79456826D01*
X158450826Y-79300620D01*
X158577534Y-79119662D01*
X158670894Y-78919450D01*
X158728070Y-78706068D01*
X158742509Y-78541017D01*
X158747323Y-78486002D01*
X158747323Y-78485997D01*
X158740103Y-78403474D01*
X158728070Y-78265932D01*
X158670894Y-78052550D01*
X158577534Y-77852339D01*
X158482768Y-77716998D01*
X158450827Y-77671381D01*
X158373537Y-77594091D01*
X158294620Y-77515174D01*
X158294616Y-77515171D01*
X158294615Y-77515170D01*
X158113666Y-77388468D01*
X158113662Y-77388466D01*
X157984218Y-77328105D01*
X157931779Y-77281932D01*
X157912627Y-77214739D01*
X157932843Y-77147858D01*
X157984219Y-77103340D01*
X158113416Y-77043095D01*
X158113417Y-77043094D01*
X158178188Y-76997741D01*
X157507448Y-76327000D01*
X157530160Y-76327000D01*
X157627061Y-76301036D01*
X157713940Y-76250876D01*
X157784876Y-76179940D01*
X157835036Y-76093061D01*
X157861000Y-75996160D01*
X157861000Y-75973447D01*
X158531741Y-76644188D01*
X158577094Y-76579417D01*
X158577100Y-76579407D01*
X158670419Y-76379284D01*
X158670424Y-76379270D01*
X158727573Y-76165986D01*
X158727575Y-76165976D01*
X158746821Y-75946000D01*
X158746821Y-75945999D01*
X158727575Y-75726023D01*
X158727573Y-75726013D01*
X158670424Y-75512729D01*
X158670420Y-75512720D01*
X158577096Y-75312586D01*
X158531741Y-75247811D01*
X158531740Y-75247810D01*
X157861000Y-75918551D01*
X157861000Y-75895840D01*
X157835036Y-75798939D01*
X157784876Y-75712060D01*
X157713940Y-75641124D01*
X157627061Y-75590964D01*
X157530160Y-75565000D01*
X157507447Y-75565000D01*
X158178188Y-74894258D01*
X158113411Y-74848901D01*
X158113405Y-74848898D01*
X157913284Y-74755580D01*
X157913270Y-74755575D01*
X157699986Y-74698426D01*
X157699976Y-74698424D01*
X157480001Y-74679179D01*
X157479999Y-74679179D01*
X157260023Y-74698424D01*
X157260013Y-74698426D01*
X157046729Y-74755575D01*
X157046720Y-74755579D01*
X156846590Y-74848901D01*
X156781811Y-74894258D01*
X157452554Y-75565000D01*
X157429840Y-75565000D01*
X157332939Y-75590964D01*
X157246060Y-75641124D01*
X157175124Y-75712060D01*
X157124964Y-75798939D01*
X157099000Y-75895840D01*
X157099000Y-75918553D01*
X156428258Y-75247811D01*
X156382901Y-75312590D01*
X156289579Y-75512720D01*
X156289575Y-75512729D01*
X156232426Y-75726013D01*
X156232424Y-75726023D01*
X156213179Y-75945999D01*
X156213179Y-75946000D01*
X156232424Y-76165976D01*
X156232426Y-76165986D01*
X156289575Y-76379270D01*
X156289580Y-76379284D01*
X156382898Y-76579405D01*
X156382901Y-76579411D01*
X156428258Y-76644187D01*
X156428258Y-76644188D01*
X157099000Y-75973446D01*
X157099000Y-75996160D01*
X157124964Y-76093061D01*
X157175124Y-76179940D01*
X157246060Y-76250876D01*
X157332939Y-76301036D01*
X157429840Y-76327000D01*
X157452553Y-76327000D01*
X156781810Y-76997740D01*
X156846589Y-77043098D01*
X156975781Y-77103342D01*
X157028220Y-77149514D01*
X157047372Y-77216708D01*
X157027156Y-77283589D01*
X156975781Y-77328106D01*
X156846340Y-77388465D01*
X156846338Y-77388466D01*
X156665377Y-77515175D01*
X156509175Y-77671377D01*
X156382466Y-77852338D01*
X156382465Y-77852340D01*
X156289107Y-78052548D01*
X156289104Y-78052554D01*
X156231930Y-78265929D01*
X156231929Y-78265937D01*
X156212677Y-78485997D01*
X156212677Y-78486002D01*
X156231929Y-78706062D01*
X156231930Y-78706070D01*
X156289104Y-78919445D01*
X156289105Y-78919447D01*
X156289106Y-78919450D01*
X156311138Y-78966697D01*
X156382466Y-79119662D01*
X156382468Y-79119666D01*
X156509170Y-79300615D01*
X156509175Y-79300621D01*
X156665378Y-79456824D01*
X156665384Y-79456829D01*
X156846333Y-79583531D01*
X156846335Y-79583532D01*
X156846338Y-79583534D01*
X156919895Y-79617834D01*
X156975189Y-79643618D01*
X157027628Y-79689790D01*
X157046780Y-79756984D01*
X157026564Y-79823865D01*
X156975189Y-79868382D01*
X156846340Y-79928465D01*
X156846338Y-79928466D01*
X156665377Y-80055175D01*
X156509175Y-80211377D01*
X156382466Y-80392338D01*
X156382465Y-80392340D01*
X156289107Y-80592548D01*
X156289104Y-80592554D01*
X156231930Y-80805929D01*
X156231929Y-80805937D01*
X156212677Y-81025997D01*
X156212677Y-81026002D01*
X156231929Y-81246062D01*
X156231930Y-81246070D01*
X156289104Y-81459445D01*
X156289105Y-81459447D01*
X156289106Y-81459450D01*
X156298689Y-81480000D01*
X156382466Y-81659662D01*
X156382468Y-81659666D01*
X156509170Y-81840615D01*
X156509175Y-81840621D01*
X156665378Y-81996824D01*
X156665384Y-81996829D01*
X156846333Y-82123531D01*
X156846335Y-82123532D01*
X156846338Y-82123534D01*
X156919895Y-82157834D01*
X156975189Y-82183618D01*
X157027628Y-82229790D01*
X157046780Y-82296984D01*
X157026564Y-82363865D01*
X156975189Y-82408382D01*
X156846340Y-82468465D01*
X156846338Y-82468466D01*
X156665377Y-82595175D01*
X156509175Y-82751377D01*
X156382466Y-82932338D01*
X156382465Y-82932340D01*
X156289107Y-83132548D01*
X156289104Y-83132554D01*
X156231930Y-83345929D01*
X156231929Y-83345937D01*
X156212677Y-83565997D01*
X156212677Y-83566002D01*
X156231929Y-83786062D01*
X156231930Y-83786070D01*
X156289104Y-83999445D01*
X156289105Y-83999447D01*
X156289106Y-83999450D01*
X156311138Y-84046697D01*
X156382466Y-84199662D01*
X156382468Y-84199666D01*
X156509170Y-84380615D01*
X156509175Y-84380621D01*
X156665378Y-84536824D01*
X156665384Y-84536829D01*
X156846333Y-84663531D01*
X156846335Y-84663532D01*
X156846338Y-84663534D01*
X156975781Y-84723894D01*
X157028220Y-84770066D01*
X157047372Y-84837260D01*
X157027156Y-84904141D01*
X156975781Y-84948658D01*
X156846590Y-85008901D01*
X156781811Y-85054258D01*
X157452554Y-85725000D01*
X157429840Y-85725000D01*
X157332939Y-85750964D01*
X157246060Y-85801124D01*
X157175124Y-85872060D01*
X157124964Y-85958939D01*
X157099000Y-86055840D01*
X157099000Y-86078553D01*
X156428258Y-85407811D01*
X156382901Y-85472590D01*
X156289579Y-85672720D01*
X156289575Y-85672729D01*
X156232426Y-85886013D01*
X156232424Y-85886023D01*
X156213179Y-86105999D01*
X156213179Y-86106000D01*
X156232424Y-86325976D01*
X156232426Y-86325986D01*
X156289575Y-86539270D01*
X156289580Y-86539284D01*
X156382898Y-86739405D01*
X156382901Y-86739411D01*
X156428258Y-86804187D01*
X156428258Y-86804188D01*
X157099000Y-86133446D01*
X157099000Y-86156160D01*
X157124964Y-86253061D01*
X157175124Y-86339940D01*
X157246060Y-86410876D01*
X157332939Y-86461036D01*
X157429840Y-86487000D01*
X157452553Y-86487000D01*
X156781810Y-87157740D01*
X156846589Y-87203098D01*
X156975781Y-87263342D01*
X157028220Y-87309514D01*
X157047372Y-87376708D01*
X157027156Y-87443589D01*
X156975781Y-87488106D01*
X156846340Y-87548465D01*
X156846338Y-87548466D01*
X156665377Y-87675175D01*
X156509175Y-87831377D01*
X156382466Y-88012338D01*
X156382465Y-88012340D01*
X156289107Y-88212548D01*
X156289104Y-88212554D01*
X156231930Y-88425929D01*
X156231929Y-88425937D01*
X156212677Y-88645997D01*
X156212677Y-88646002D01*
X156231929Y-88866062D01*
X156231930Y-88866070D01*
X156289104Y-89079445D01*
X156289105Y-89079447D01*
X156289106Y-89079450D01*
X156298689Y-89100000D01*
X156382466Y-89279662D01*
X156382468Y-89279666D01*
X156509170Y-89460615D01*
X156509175Y-89460621D01*
X156665378Y-89616824D01*
X156665384Y-89616829D01*
X156846333Y-89743531D01*
X156846335Y-89743532D01*
X156846338Y-89743534D01*
X157046550Y-89836894D01*
X157259932Y-89894070D01*
X157417123Y-89907822D01*
X157479998Y-89913323D01*
X157480000Y-89913323D01*
X157480002Y-89913323D01*
X157535017Y-89908509D01*
X157700068Y-89894070D01*
X157913450Y-89836894D01*
X158113662Y-89743534D01*
X158294620Y-89616826D01*
X158450826Y-89460620D01*
X158577534Y-89279662D01*
X158670894Y-89079450D01*
X158728070Y-88866068D01*
X158747323Y-88646000D01*
X158746477Y-88636335D01*
X158728070Y-88425937D01*
X158728070Y-88425932D01*
X158670894Y-88212550D01*
X158577534Y-88012339D01*
X158482768Y-87876998D01*
X158450827Y-87831381D01*
X158373537Y-87754091D01*
X158294620Y-87675174D01*
X158294616Y-87675171D01*
X158294615Y-87675170D01*
X158113666Y-87548468D01*
X158113662Y-87548466D01*
X157984218Y-87488105D01*
X157931779Y-87441932D01*
X157912627Y-87374739D01*
X157932843Y-87307858D01*
X157984219Y-87263340D01*
X158113416Y-87203095D01*
X158113417Y-87203094D01*
X158178188Y-87157741D01*
X157507448Y-86487000D01*
X157530160Y-86487000D01*
X157627061Y-86461036D01*
X157713940Y-86410876D01*
X157784876Y-86339940D01*
X157835036Y-86253061D01*
X157861000Y-86156160D01*
X157861000Y-86133447D01*
X158531741Y-86804188D01*
X158577094Y-86739417D01*
X158577100Y-86739407D01*
X158670419Y-86539284D01*
X158670424Y-86539270D01*
X158727573Y-86325986D01*
X158727575Y-86325976D01*
X158746821Y-86106000D01*
X158746821Y-86105999D01*
X158727575Y-85886023D01*
X158727573Y-85886013D01*
X158670424Y-85672729D01*
X158670420Y-85672720D01*
X158577096Y-85472586D01*
X158531741Y-85407811D01*
X158531740Y-85407810D01*
X157861000Y-86078551D01*
X157861000Y-86055840D01*
X157835036Y-85958939D01*
X157784876Y-85872060D01*
X157713940Y-85801124D01*
X157627061Y-85750964D01*
X157530160Y-85725000D01*
X157507447Y-85725000D01*
X158178188Y-85054258D01*
X158113411Y-85008901D01*
X158113405Y-85008898D01*
X157984219Y-84948658D01*
X157931779Y-84902486D01*
X157912627Y-84835293D01*
X157932843Y-84768411D01*
X157984219Y-84723894D01*
X158113662Y-84663534D01*
X158294620Y-84536826D01*
X158450826Y-84380620D01*
X158530742Y-84266488D01*
X158563730Y-84219377D01*
X158618307Y-84175752D01*
X158665305Y-84166500D01*
X164545901Y-84166500D01*
X164612940Y-84186185D01*
X164633582Y-84202818D01*
X164731284Y-84300520D01*
X164812094Y-84347175D01*
X164868215Y-84379577D01*
X165020942Y-84420500D01*
X165020943Y-84420500D01*
X166915500Y-84420500D01*
X166982539Y-84440185D01*
X167028294Y-84492989D01*
X167039500Y-84544500D01*
X167039500Y-97770908D01*
X167019815Y-97837947D01*
X166967914Y-97883286D01*
X166962173Y-97885963D01*
X166962169Y-97885965D01*
X166768597Y-98021505D01*
X166601505Y-98188597D01*
X166471575Y-98374158D01*
X166416998Y-98417783D01*
X166347500Y-98424977D01*
X166285145Y-98393454D01*
X166268425Y-98374158D01*
X166138494Y-98188597D01*
X165971402Y-98021506D01*
X165971392Y-98021498D01*
X165777834Y-97885967D01*
X165777830Y-97885965D01*
X165769964Y-97882297D01*
X165563663Y-97786097D01*
X165563659Y-97786096D01*
X165563655Y-97786094D01*
X165335413Y-97724938D01*
X165335403Y-97724936D01*
X165100001Y-97704341D01*
X165099999Y-97704341D01*
X164864596Y-97724936D01*
X164864586Y-97724938D01*
X164636344Y-97786094D01*
X164636335Y-97786098D01*
X164422171Y-97885964D01*
X164422169Y-97885965D01*
X164228597Y-98021505D01*
X164061505Y-98188597D01*
X163925965Y-98382169D01*
X163925964Y-98382171D01*
X163826098Y-98596335D01*
X163826094Y-98596344D01*
X163764938Y-98824586D01*
X163764936Y-98824596D01*
X163744341Y-99059999D01*
X163744341Y-99060000D01*
X163764936Y-99295403D01*
X163764938Y-99295413D01*
X163826094Y-99523655D01*
X163826096Y-99523659D01*
X163826097Y-99523663D01*
X163906004Y-99695023D01*
X163925965Y-99737830D01*
X163925967Y-99737834D01*
X164034281Y-99892521D01*
X164061505Y-99931401D01*
X164228599Y-100098495D01*
X164275585Y-100131395D01*
X164422165Y-100234032D01*
X164422167Y-100234033D01*
X164422170Y-100234035D01*
X164636337Y-100333903D01*
X164864592Y-100395063D01*
X165035319Y-100410000D01*
X165099999Y-100415659D01*
X165100000Y-100415659D01*
X165100001Y-100415659D01*
X165164681Y-100410000D01*
X165335408Y-100395063D01*
X165563663Y-100333903D01*
X165777830Y-100234035D01*
X165971401Y-100098495D01*
X166138495Y-99931401D01*
X166268425Y-99745842D01*
X166323002Y-99702217D01*
X166392500Y-99695023D01*
X166454855Y-99726546D01*
X166471575Y-99745842D01*
X166601500Y-99931395D01*
X166601505Y-99931401D01*
X166768599Y-100098495D01*
X166815585Y-100131395D01*
X166962165Y-100234032D01*
X166962167Y-100234033D01*
X166962170Y-100234035D01*
X167176337Y-100333903D01*
X167404592Y-100395063D01*
X167575319Y-100410000D01*
X167639999Y-100415659D01*
X167640000Y-100415659D01*
X167640001Y-100415659D01*
X167704681Y-100410000D01*
X167875408Y-100395063D01*
X168103663Y-100333903D01*
X168317830Y-100234035D01*
X168511401Y-100098495D01*
X168678495Y-99931401D01*
X168808425Y-99745842D01*
X168863002Y-99702217D01*
X168932500Y-99695023D01*
X168994855Y-99726546D01*
X169011575Y-99745842D01*
X169141500Y-99931395D01*
X169141505Y-99931401D01*
X169308599Y-100098495D01*
X169355585Y-100131395D01*
X169502165Y-100234032D01*
X169502167Y-100234033D01*
X169502170Y-100234035D01*
X169716337Y-100333903D01*
X169944592Y-100395063D01*
X170115319Y-100410000D01*
X170179999Y-100415659D01*
X170180000Y-100415659D01*
X170180001Y-100415659D01*
X170244681Y-100410000D01*
X170415408Y-100395063D01*
X170643663Y-100333903D01*
X170857830Y-100234035D01*
X171051401Y-100098495D01*
X171173717Y-99976178D01*
X171235036Y-99942696D01*
X171304728Y-99947680D01*
X171360662Y-99989551D01*
X171377577Y-100020528D01*
X171426646Y-100152088D01*
X171426649Y-100152093D01*
X171512809Y-100267187D01*
X171512812Y-100267190D01*
X171627906Y-100353350D01*
X171627913Y-100353354D01*
X171762620Y-100403596D01*
X171762627Y-100403598D01*
X171822155Y-100409999D01*
X171822172Y-100410000D01*
X172470000Y-100410000D01*
X172470000Y-99493012D01*
X172527007Y-99525925D01*
X172654174Y-99560000D01*
X172785826Y-99560000D01*
X172912993Y-99525925D01*
X172970000Y-99493012D01*
X172970000Y-100410000D01*
X173617828Y-100410000D01*
X173617844Y-100409999D01*
X173677372Y-100403598D01*
X173677379Y-100403596D01*
X173812086Y-100353354D01*
X173812093Y-100353350D01*
X173927187Y-100267190D01*
X173927190Y-100267187D01*
X174013350Y-100152093D01*
X174013354Y-100152086D01*
X174063596Y-100017379D01*
X174063598Y-100017372D01*
X174069999Y-99957844D01*
X174070000Y-99957827D01*
X174070000Y-99310000D01*
X173153012Y-99310000D01*
X173185925Y-99252993D01*
X173220000Y-99125826D01*
X173220000Y-98994174D01*
X173185925Y-98867007D01*
X173153012Y-98810000D01*
X174070000Y-98810000D01*
X174070000Y-98162172D01*
X174069999Y-98162155D01*
X174063598Y-98102627D01*
X174063596Y-98102620D01*
X174013354Y-97967913D01*
X174013350Y-97967906D01*
X173927190Y-97852812D01*
X173927187Y-97852809D01*
X173812093Y-97766649D01*
X173812086Y-97766645D01*
X173677379Y-97716403D01*
X173677372Y-97716401D01*
X173617844Y-97710000D01*
X172970000Y-97710000D01*
X172970000Y-98626988D01*
X172912993Y-98594075D01*
X172785826Y-98560000D01*
X172654174Y-98560000D01*
X172527007Y-98594075D01*
X172470000Y-98626988D01*
X172470000Y-97710000D01*
X171822155Y-97710000D01*
X171762627Y-97716401D01*
X171762620Y-97716403D01*
X171627913Y-97766645D01*
X171627906Y-97766649D01*
X171512812Y-97852809D01*
X171512809Y-97852812D01*
X171426649Y-97967906D01*
X171426645Y-97967913D01*
X171377578Y-98099470D01*
X171335707Y-98155404D01*
X171270242Y-98179821D01*
X171201969Y-98164969D01*
X171173715Y-98143819D01*
X171115861Y-98085965D01*
X171051401Y-98021505D01*
X171051397Y-98021502D01*
X171051396Y-98021501D01*
X171051392Y-98021498D01*
X170857834Y-97885967D01*
X170857830Y-97885965D01*
X170849964Y-97882297D01*
X170643663Y-97786097D01*
X170643659Y-97786096D01*
X170643655Y-97786094D01*
X170415413Y-97724938D01*
X170415403Y-97724936D01*
X170180001Y-97704341D01*
X170179999Y-97704341D01*
X169944596Y-97724936D01*
X169944586Y-97724938D01*
X169716344Y-97786094D01*
X169716335Y-97786098D01*
X169502171Y-97885964D01*
X169502169Y-97885965D01*
X169308597Y-98021505D01*
X169141505Y-98188597D01*
X169011575Y-98374158D01*
X168956998Y-98417783D01*
X168887500Y-98424977D01*
X168825145Y-98393454D01*
X168808425Y-98374158D01*
X168678494Y-98188597D01*
X168511402Y-98021506D01*
X168511392Y-98021498D01*
X168317831Y-97885965D01*
X168317826Y-97885962D01*
X168312091Y-97883288D01*
X168259653Y-97837113D01*
X168240500Y-97770908D01*
X168240500Y-56804500D01*
X168260185Y-56737461D01*
X168312989Y-56691706D01*
X168364500Y-56680500D01*
X181205909Y-56680500D01*
X181272948Y-56700185D01*
X181318292Y-56752097D01*
X181320965Y-56757830D01*
X181456501Y-56951396D01*
X181456506Y-56951402D01*
X181578818Y-57073714D01*
X181612303Y-57135037D01*
X181607319Y-57204729D01*
X181565447Y-57260662D01*
X181534471Y-57277577D01*
X181402912Y-57326646D01*
X181402906Y-57326649D01*
X181287812Y-57412809D01*
X181287809Y-57412812D01*
X181201649Y-57527906D01*
X181201645Y-57527913D01*
X181151403Y-57662620D01*
X181151401Y-57662627D01*
X181145000Y-57722155D01*
X181145000Y-58370000D01*
X182050440Y-58370000D01*
X182019755Y-58423147D01*
X181985000Y-58552857D01*
X181985000Y-58687143D01*
X182019755Y-58816853D01*
X182050440Y-58870000D01*
X181145000Y-58870000D01*
X181145000Y-59517844D01*
X181151401Y-59577372D01*
X181151403Y-59577379D01*
X181201645Y-59712086D01*
X181201649Y-59712093D01*
X181287809Y-59827187D01*
X181287812Y-59827190D01*
X181402906Y-59913350D01*
X181402913Y-59913354D01*
X181534470Y-59962421D01*
X181590403Y-60004292D01*
X181614821Y-60069756D01*
X181599970Y-60138029D01*
X181578819Y-60166284D01*
X181456503Y-60288600D01*
X181320965Y-60482169D01*
X181320964Y-60482171D01*
X181221098Y-60696335D01*
X181221094Y-60696344D01*
X181159938Y-60924586D01*
X181159936Y-60924596D01*
X181139341Y-61159999D01*
X181139341Y-61160000D01*
X181159936Y-61395403D01*
X181159938Y-61395413D01*
X181221094Y-61623655D01*
X181221096Y-61623659D01*
X181221097Y-61623663D01*
X181297607Y-61787738D01*
X181320965Y-61837830D01*
X181320967Y-61837834D01*
X181456501Y-62031395D01*
X181456506Y-62031402D01*
X181623597Y-62198493D01*
X181623603Y-62198498D01*
X181809158Y-62328425D01*
X181852783Y-62383002D01*
X181859977Y-62452500D01*
X181828454Y-62514855D01*
X181809158Y-62531575D01*
X181623597Y-62661505D01*
X181456505Y-62828597D01*
X181320965Y-63022169D01*
X181320964Y-63022171D01*
X181221098Y-63236335D01*
X181221094Y-63236344D01*
X181159938Y-63464586D01*
X181159936Y-63464596D01*
X181139341Y-63699999D01*
X181139341Y-63700000D01*
X181159936Y-63935403D01*
X181159938Y-63935413D01*
X181221094Y-64163655D01*
X181221096Y-64163659D01*
X181221097Y-64163663D01*
X181302774Y-64338820D01*
X181320965Y-64377830D01*
X181320967Y-64377834D01*
X181456501Y-64571395D01*
X181456506Y-64571402D01*
X181623597Y-64738493D01*
X181623603Y-64738498D01*
X181809158Y-64868425D01*
X181852783Y-64923002D01*
X181859977Y-64992500D01*
X181828454Y-65054855D01*
X181809158Y-65071575D01*
X181623597Y-65201505D01*
X181456505Y-65368597D01*
X181320965Y-65562169D01*
X181320964Y-65562171D01*
X181221098Y-65776335D01*
X181221094Y-65776344D01*
X181159938Y-66004586D01*
X181159936Y-66004596D01*
X181139341Y-66239999D01*
X181139341Y-66240000D01*
X181159936Y-66475403D01*
X181159938Y-66475413D01*
X181221094Y-66703655D01*
X181221096Y-66703659D01*
X181221097Y-66703663D01*
X181320965Y-66917830D01*
X181320967Y-66917834D01*
X181456501Y-67111395D01*
X181456506Y-67111402D01*
X181623597Y-67278493D01*
X181623603Y-67278498D01*
X181809158Y-67408425D01*
X181852783Y-67463002D01*
X181859977Y-67532500D01*
X181828454Y-67594855D01*
X181809158Y-67611575D01*
X181623597Y-67741505D01*
X181456505Y-67908597D01*
X181320965Y-68102169D01*
X181320964Y-68102171D01*
X181221098Y-68316335D01*
X181221094Y-68316344D01*
X181159938Y-68544586D01*
X181159936Y-68544596D01*
X181139341Y-68779999D01*
X181139341Y-68780000D01*
X181159936Y-69015403D01*
X181159938Y-69015413D01*
X181221094Y-69243655D01*
X181221096Y-69243659D01*
X181221097Y-69243663D01*
X181302774Y-69418820D01*
X181320965Y-69457830D01*
X181320967Y-69457834D01*
X181406269Y-69579657D01*
X181456501Y-69651396D01*
X181456506Y-69651402D01*
X181578430Y-69773326D01*
X181611915Y-69834649D01*
X181606931Y-69904341D01*
X181565059Y-69960274D01*
X181534083Y-69977189D01*
X181402669Y-70026203D01*
X181402664Y-70026206D01*
X181287455Y-70112452D01*
X181287452Y-70112455D01*
X181201206Y-70227664D01*
X181201202Y-70227671D01*
X181150908Y-70362517D01*
X181144501Y-70422116D01*
X181144501Y-70422123D01*
X181144500Y-70422135D01*
X181144500Y-72217870D01*
X181144501Y-72217876D01*
X181150908Y-72277483D01*
X181201202Y-72412328D01*
X181201206Y-72412335D01*
X181287452Y-72527544D01*
X181287455Y-72527547D01*
X181402664Y-72613793D01*
X181402671Y-72613797D01*
X181534081Y-72662810D01*
X181590015Y-72704681D01*
X181614432Y-72770145D01*
X181599580Y-72838418D01*
X181578430Y-72866673D01*
X181456503Y-72988600D01*
X181320965Y-73182169D01*
X181320964Y-73182171D01*
X181221098Y-73396335D01*
X181221094Y-73396344D01*
X181159938Y-73624586D01*
X181159936Y-73624596D01*
X181139341Y-73859999D01*
X181139341Y-73860000D01*
X181159936Y-74095403D01*
X181159938Y-74095413D01*
X181221094Y-74323655D01*
X181221096Y-74323659D01*
X181221097Y-74323663D01*
X181320965Y-74537830D01*
X181320967Y-74537834D01*
X181456501Y-74731395D01*
X181456506Y-74731402D01*
X181623597Y-74898493D01*
X181623603Y-74898498D01*
X181809158Y-75028425D01*
X181852783Y-75083002D01*
X181859977Y-75152500D01*
X181828454Y-75214855D01*
X181809158Y-75231575D01*
X181623597Y-75361505D01*
X181456505Y-75528597D01*
X181320965Y-75722169D01*
X181320964Y-75722171D01*
X181221098Y-75936335D01*
X181221094Y-75936344D01*
X181159938Y-76164586D01*
X181159936Y-76164596D01*
X181139341Y-76399999D01*
X181139341Y-76400000D01*
X181159936Y-76635403D01*
X181159938Y-76635413D01*
X181221094Y-76863655D01*
X181221096Y-76863659D01*
X181221097Y-76863663D01*
X181283619Y-76997741D01*
X181320965Y-77077830D01*
X181320967Y-77077834D01*
X181456501Y-77271395D01*
X181456506Y-77271402D01*
X181623597Y-77438493D01*
X181623603Y-77438498D01*
X181809158Y-77568425D01*
X181852783Y-77623002D01*
X181859977Y-77692500D01*
X181828454Y-77754855D01*
X181809158Y-77771575D01*
X181623597Y-77901505D01*
X181456505Y-78068597D01*
X181320965Y-78262169D01*
X181320964Y-78262171D01*
X181221098Y-78476335D01*
X181221094Y-78476344D01*
X181159938Y-78704586D01*
X181159936Y-78704596D01*
X181139341Y-78939999D01*
X181139341Y-78940000D01*
X181159936Y-79175403D01*
X181159938Y-79175413D01*
X181221094Y-79403655D01*
X181221096Y-79403659D01*
X181221097Y-79403663D01*
X181304973Y-79583535D01*
X181320965Y-79617830D01*
X181320967Y-79617834D01*
X181456501Y-79811395D01*
X181456506Y-79811402D01*
X181623597Y-79978493D01*
X181623603Y-79978498D01*
X181809158Y-80108425D01*
X181852783Y-80163002D01*
X181859977Y-80232500D01*
X181828454Y-80294855D01*
X181809158Y-80311575D01*
X181623597Y-80441505D01*
X181456505Y-80608597D01*
X181320965Y-80802169D01*
X181320964Y-80802171D01*
X181221098Y-81016335D01*
X181221094Y-81016344D01*
X181159938Y-81244586D01*
X181159936Y-81244596D01*
X181139341Y-81479999D01*
X181139341Y-81480000D01*
X181159936Y-81715403D01*
X181159938Y-81715413D01*
X181221094Y-81943655D01*
X181221096Y-81943659D01*
X181221097Y-81943663D01*
X181304973Y-82123535D01*
X181320965Y-82157830D01*
X181320967Y-82157834D01*
X181362322Y-82216894D01*
X181456501Y-82351396D01*
X181456506Y-82351402D01*
X181578430Y-82473326D01*
X181611915Y-82534649D01*
X181606931Y-82604341D01*
X181565059Y-82660274D01*
X181534083Y-82677189D01*
X181402669Y-82726203D01*
X181402664Y-82726206D01*
X181287455Y-82812452D01*
X181287452Y-82812455D01*
X181201206Y-82927664D01*
X181201202Y-82927671D01*
X181150908Y-83062517D01*
X181144501Y-83122116D01*
X181144501Y-83122123D01*
X181144500Y-83122135D01*
X181144500Y-84917870D01*
X181144501Y-84917876D01*
X181150908Y-84977483D01*
X181201202Y-85112328D01*
X181201206Y-85112335D01*
X181287452Y-85227544D01*
X181287455Y-85227547D01*
X181402664Y-85313793D01*
X181402671Y-85313797D01*
X181534081Y-85362810D01*
X181590015Y-85404681D01*
X181614432Y-85470145D01*
X181599580Y-85538418D01*
X181578430Y-85566673D01*
X181456503Y-85688600D01*
X181320965Y-85882169D01*
X181320964Y-85882171D01*
X181221098Y-86096335D01*
X181221094Y-86096344D01*
X181159938Y-86324586D01*
X181159936Y-86324596D01*
X181139341Y-86559999D01*
X181139341Y-86560000D01*
X181159936Y-86795403D01*
X181159938Y-86795413D01*
X181221094Y-87023655D01*
X181221096Y-87023659D01*
X181221097Y-87023663D01*
X181283619Y-87157741D01*
X181320965Y-87237830D01*
X181320967Y-87237834D01*
X181456501Y-87431395D01*
X181456506Y-87431402D01*
X181623597Y-87598493D01*
X181623603Y-87598498D01*
X181809158Y-87728425D01*
X181852783Y-87783002D01*
X181859977Y-87852500D01*
X181828454Y-87914855D01*
X181809158Y-87931575D01*
X181623597Y-88061505D01*
X181456505Y-88228597D01*
X181320965Y-88422169D01*
X181320964Y-88422171D01*
X181221098Y-88636335D01*
X181221094Y-88636344D01*
X181159938Y-88864586D01*
X181159936Y-88864596D01*
X181139341Y-89099999D01*
X181139341Y-89100000D01*
X181159936Y-89335403D01*
X181159938Y-89335413D01*
X181221094Y-89563655D01*
X181221096Y-89563659D01*
X181221097Y-89563663D01*
X181320965Y-89777830D01*
X181320967Y-89777834D01*
X181456501Y-89971395D01*
X181456506Y-89971402D01*
X181623597Y-90138493D01*
X181623603Y-90138498D01*
X181809158Y-90268425D01*
X181852783Y-90323002D01*
X181859977Y-90392500D01*
X181828454Y-90454855D01*
X181809158Y-90471575D01*
X181623597Y-90601505D01*
X181456505Y-90768597D01*
X181320965Y-90962169D01*
X181320964Y-90962171D01*
X181221098Y-91176335D01*
X181221094Y-91176344D01*
X181159938Y-91404586D01*
X181159936Y-91404596D01*
X181139341Y-91639999D01*
X181139341Y-91640000D01*
X181159936Y-91875403D01*
X181159938Y-91875413D01*
X181221094Y-92103655D01*
X181221096Y-92103659D01*
X181221097Y-92103663D01*
X181320965Y-92317830D01*
X181320967Y-92317834D01*
X181456501Y-92511395D01*
X181456506Y-92511402D01*
X181623597Y-92678493D01*
X181623603Y-92678498D01*
X181809158Y-92808425D01*
X181852783Y-92863002D01*
X181859977Y-92932500D01*
X181828454Y-92994855D01*
X181809158Y-93011575D01*
X181623597Y-93141505D01*
X181456505Y-93308597D01*
X181320965Y-93502169D01*
X181320964Y-93502171D01*
X181221098Y-93716335D01*
X181221094Y-93716344D01*
X181159938Y-93944586D01*
X181159936Y-93944596D01*
X181139341Y-94179999D01*
X181139341Y-94180000D01*
X181159936Y-94415403D01*
X181159938Y-94415413D01*
X181221094Y-94643655D01*
X181221096Y-94643659D01*
X181221097Y-94643663D01*
X181249919Y-94705471D01*
X181320965Y-94857830D01*
X181320967Y-94857834D01*
X181429281Y-95012521D01*
X181456501Y-95051396D01*
X181456506Y-95051402D01*
X181578818Y-95173714D01*
X181612303Y-95235037D01*
X181607319Y-95304729D01*
X181565447Y-95360662D01*
X181534471Y-95377577D01*
X181402912Y-95426646D01*
X181402906Y-95426649D01*
X181287812Y-95512809D01*
X181287809Y-95512812D01*
X181201649Y-95627906D01*
X181201645Y-95627913D01*
X181151403Y-95762620D01*
X181151401Y-95762627D01*
X181145000Y-95822155D01*
X181145000Y-96470000D01*
X182050440Y-96470000D01*
X182019755Y-96523147D01*
X181985000Y-96652857D01*
X181985000Y-96787143D01*
X182019755Y-96916853D01*
X182050440Y-96970000D01*
X181145000Y-96970000D01*
X181145000Y-97617844D01*
X181151401Y-97677372D01*
X181151403Y-97677379D01*
X181201645Y-97812086D01*
X181201649Y-97812093D01*
X181287809Y-97927187D01*
X181287812Y-97927190D01*
X181402906Y-98013350D01*
X181402913Y-98013354D01*
X181534470Y-98062421D01*
X181590403Y-98104292D01*
X181614821Y-98169756D01*
X181599970Y-98238029D01*
X181578819Y-98266284D01*
X181456503Y-98388600D01*
X181320965Y-98582169D01*
X181320964Y-98582171D01*
X181221098Y-98796335D01*
X181221094Y-98796344D01*
X181159938Y-99024586D01*
X181159936Y-99024596D01*
X181139341Y-99259999D01*
X181139341Y-99260000D01*
X181159936Y-99495403D01*
X181159938Y-99495413D01*
X181221094Y-99723655D01*
X181221096Y-99723659D01*
X181221097Y-99723663D01*
X181302923Y-99899139D01*
X181320965Y-99937830D01*
X181320967Y-99937834D01*
X181456501Y-100131395D01*
X181456506Y-100131402D01*
X181623597Y-100298493D01*
X181623603Y-100298498D01*
X181809158Y-100428425D01*
X181852783Y-100483002D01*
X181859977Y-100552500D01*
X181828454Y-100614855D01*
X181809158Y-100631575D01*
X181623597Y-100761505D01*
X181456505Y-100928597D01*
X181320965Y-101122169D01*
X181320964Y-101122171D01*
X181221098Y-101336335D01*
X181221094Y-101336344D01*
X181159938Y-101564586D01*
X181159936Y-101564596D01*
X181139341Y-101799999D01*
X181139341Y-101800000D01*
X181159936Y-102035403D01*
X181159938Y-102035413D01*
X181221094Y-102263655D01*
X181221096Y-102263659D01*
X181221097Y-102263663D01*
X181316322Y-102467873D01*
X181320965Y-102477830D01*
X181320967Y-102477834D01*
X181412456Y-102608493D01*
X181456505Y-102671401D01*
X181623599Y-102838495D01*
X181659733Y-102863796D01*
X181817165Y-102974032D01*
X181817167Y-102974033D01*
X181817170Y-102974035D01*
X182031337Y-103073903D01*
X182259592Y-103135063D01*
X182447918Y-103151539D01*
X182494999Y-103155659D01*
X182495000Y-103155659D01*
X182495001Y-103155659D01*
X182534234Y-103152226D01*
X182730408Y-103135063D01*
X182958663Y-103073903D01*
X183172830Y-102974035D01*
X183366401Y-102838495D01*
X183533495Y-102671401D01*
X183669035Y-102477830D01*
X183768903Y-102263663D01*
X183830063Y-102035408D01*
X183850659Y-101800000D01*
X183830536Y-101569999D01*
X187489341Y-101569999D01*
X187489341Y-101570000D01*
X187509936Y-101805403D01*
X187509938Y-101805413D01*
X187571094Y-102033655D01*
X187571096Y-102033659D01*
X187571097Y-102033663D01*
X187655499Y-102214663D01*
X187670965Y-102247830D01*
X187670967Y-102247834D01*
X187779281Y-102402521D01*
X187806505Y-102441401D01*
X187973599Y-102608495D01*
X188063429Y-102671395D01*
X188167165Y-102744032D01*
X188167167Y-102744033D01*
X188167170Y-102744035D01*
X188381337Y-102843903D01*
X188609592Y-102905063D01*
X188786034Y-102920500D01*
X188844999Y-102925659D01*
X188845000Y-102925659D01*
X188845001Y-102925659D01*
X188903966Y-102920500D01*
X189080408Y-102905063D01*
X189308663Y-102843903D01*
X189522830Y-102744035D01*
X189716401Y-102608495D01*
X189838329Y-102486566D01*
X189899648Y-102453084D01*
X189969340Y-102458068D01*
X190025274Y-102499939D01*
X190042189Y-102530917D01*
X190091202Y-102662328D01*
X190091206Y-102662335D01*
X190177452Y-102777544D01*
X190177455Y-102777547D01*
X190292664Y-102863793D01*
X190292671Y-102863797D01*
X190427517Y-102914091D01*
X190427516Y-102914091D01*
X190434444Y-102914835D01*
X190487127Y-102920500D01*
X192282872Y-102920499D01*
X192342483Y-102914091D01*
X192477331Y-102863796D01*
X192592546Y-102777546D01*
X192678796Y-102662331D01*
X192727810Y-102530916D01*
X192769681Y-102474984D01*
X192835145Y-102450566D01*
X192903418Y-102465417D01*
X192931673Y-102486569D01*
X193053599Y-102608495D01*
X193143429Y-102671395D01*
X193247165Y-102744032D01*
X193247167Y-102744033D01*
X193247170Y-102744035D01*
X193461337Y-102843903D01*
X193689592Y-102905063D01*
X193866034Y-102920500D01*
X193924999Y-102925659D01*
X193925000Y-102925659D01*
X193925001Y-102925659D01*
X193983966Y-102920500D01*
X194160408Y-102905063D01*
X194388663Y-102843903D01*
X194602830Y-102744035D01*
X194796401Y-102608495D01*
X194963495Y-102441401D01*
X195099035Y-102247830D01*
X195198903Y-102033663D01*
X195260063Y-101805408D01*
X195280659Y-101570000D01*
X195260063Y-101334592D01*
X195198903Y-101106337D01*
X195099035Y-100892171D01*
X195007540Y-100761501D01*
X194963494Y-100698597D01*
X194796402Y-100531506D01*
X194796395Y-100531501D01*
X194794251Y-100530000D01*
X194719518Y-100477671D01*
X194602834Y-100395967D01*
X194602830Y-100395965D01*
X194537429Y-100365468D01*
X194388663Y-100296097D01*
X194388659Y-100296096D01*
X194388655Y-100296094D01*
X194160413Y-100234938D01*
X194160403Y-100234936D01*
X193925001Y-100214341D01*
X193924999Y-100214341D01*
X193689596Y-100234936D01*
X193689586Y-100234938D01*
X193461344Y-100296094D01*
X193461335Y-100296098D01*
X193247171Y-100395964D01*
X193247169Y-100395965D01*
X193053600Y-100531503D01*
X192931673Y-100653430D01*
X192870350Y-100686914D01*
X192800658Y-100681930D01*
X192744725Y-100640058D01*
X192727810Y-100609081D01*
X192678797Y-100477671D01*
X192678793Y-100477664D01*
X192592547Y-100362455D01*
X192592544Y-100362452D01*
X192477335Y-100276206D01*
X192477328Y-100276202D01*
X192342482Y-100225908D01*
X192342483Y-100225908D01*
X192282883Y-100219501D01*
X192282881Y-100219500D01*
X192282873Y-100219500D01*
X192282864Y-100219500D01*
X190487129Y-100219500D01*
X190487123Y-100219501D01*
X190427516Y-100225908D01*
X190292671Y-100276202D01*
X190292664Y-100276206D01*
X190177455Y-100362452D01*
X190177452Y-100362455D01*
X190091206Y-100477664D01*
X190091203Y-100477669D01*
X190042189Y-100609083D01*
X190000317Y-100665016D01*
X189934853Y-100689433D01*
X189866580Y-100674581D01*
X189838326Y-100653430D01*
X189716402Y-100531506D01*
X189716395Y-100531501D01*
X189714251Y-100530000D01*
X189639518Y-100477671D01*
X189522834Y-100395967D01*
X189522830Y-100395965D01*
X189457429Y-100365468D01*
X189308663Y-100296097D01*
X189308659Y-100296096D01*
X189308655Y-100296094D01*
X189080413Y-100234938D01*
X189080403Y-100234936D01*
X188845001Y-100214341D01*
X188844999Y-100214341D01*
X188609596Y-100234936D01*
X188609586Y-100234938D01*
X188381344Y-100296094D01*
X188381335Y-100296098D01*
X188167171Y-100395964D01*
X188167169Y-100395965D01*
X187973597Y-100531505D01*
X187806505Y-100698597D01*
X187670965Y-100892169D01*
X187670964Y-100892171D01*
X187571098Y-101106335D01*
X187571094Y-101106344D01*
X187509938Y-101334586D01*
X187509936Y-101334596D01*
X187489341Y-101569999D01*
X183830536Y-101569999D01*
X183830063Y-101564592D01*
X183768903Y-101336337D01*
X183669035Y-101122171D01*
X183533495Y-100928599D01*
X183533494Y-100928597D01*
X183366402Y-100761506D01*
X183366396Y-100761501D01*
X183180842Y-100631575D01*
X183137217Y-100576998D01*
X183130023Y-100507500D01*
X183161546Y-100445145D01*
X183180842Y-100428425D01*
X183203026Y-100412891D01*
X183366401Y-100298495D01*
X183533495Y-100131401D01*
X183669035Y-99937830D01*
X183768903Y-99723663D01*
X183830063Y-99495408D01*
X183850659Y-99260000D01*
X183830063Y-99024592D01*
X183768903Y-98796337D01*
X183669035Y-98582171D01*
X183546566Y-98407267D01*
X183533496Y-98388600D01*
X183519054Y-98374158D01*
X183411179Y-98266283D01*
X183377696Y-98204963D01*
X183382680Y-98135271D01*
X183424551Y-98079337D01*
X183455529Y-98062422D01*
X183587086Y-98013354D01*
X183587093Y-98013350D01*
X183702187Y-97927190D01*
X183702190Y-97927187D01*
X183788350Y-97812093D01*
X183788354Y-97812086D01*
X183838596Y-97677379D01*
X183838598Y-97677372D01*
X183844999Y-97617844D01*
X183845000Y-97617827D01*
X183845000Y-96970000D01*
X182939560Y-96970000D01*
X182970245Y-96916853D01*
X183005000Y-96787143D01*
X183005000Y-96652857D01*
X182970245Y-96523147D01*
X182939560Y-96470000D01*
X183845000Y-96470000D01*
X183845000Y-95822172D01*
X183844999Y-95822155D01*
X183838598Y-95762627D01*
X183838596Y-95762620D01*
X183788354Y-95627913D01*
X183788350Y-95627906D01*
X183702190Y-95512812D01*
X183702187Y-95512809D01*
X183587093Y-95426649D01*
X183587088Y-95426646D01*
X183455528Y-95377577D01*
X183399595Y-95335705D01*
X183375178Y-95270241D01*
X183390030Y-95201968D01*
X183411175Y-95173720D01*
X183533495Y-95051401D01*
X183669035Y-94857830D01*
X183768903Y-94643663D01*
X183830063Y-94415408D01*
X183850659Y-94180000D01*
X183830063Y-93944592D01*
X183768903Y-93716337D01*
X183669035Y-93502171D01*
X183546745Y-93327521D01*
X183533494Y-93308597D01*
X183366402Y-93141506D01*
X183366396Y-93141501D01*
X183180842Y-93011575D01*
X183137217Y-92956998D01*
X183130023Y-92887500D01*
X183161546Y-92825145D01*
X183180842Y-92808425D01*
X183258947Y-92753735D01*
X183366401Y-92678495D01*
X183533495Y-92511401D01*
X183669035Y-92317830D01*
X183768903Y-92103663D01*
X183830063Y-91875408D01*
X183850659Y-91640000D01*
X183830063Y-91404592D01*
X183768903Y-91176337D01*
X183669035Y-90962171D01*
X183533495Y-90768599D01*
X183533494Y-90768597D01*
X183366402Y-90601506D01*
X183366396Y-90601501D01*
X183180842Y-90471575D01*
X183137217Y-90416998D01*
X183130023Y-90347500D01*
X183161546Y-90285145D01*
X183180842Y-90268425D01*
X183203026Y-90252891D01*
X183366401Y-90138495D01*
X183533495Y-89971401D01*
X183669035Y-89777830D01*
X183768903Y-89563663D01*
X183830063Y-89335408D01*
X183850659Y-89100000D01*
X183830063Y-88864592D01*
X183768903Y-88636337D01*
X183669035Y-88422171D01*
X183533495Y-88228599D01*
X183533494Y-88228597D01*
X183366402Y-88061506D01*
X183366396Y-88061501D01*
X183180842Y-87931575D01*
X183137217Y-87876998D01*
X183130023Y-87807500D01*
X183161546Y-87745145D01*
X183180842Y-87728425D01*
X183216020Y-87703793D01*
X183366401Y-87598495D01*
X183533495Y-87431401D01*
X183669035Y-87237830D01*
X183768903Y-87023663D01*
X183830063Y-86795408D01*
X183850659Y-86560000D01*
X183830063Y-86324592D01*
X183777572Y-86128691D01*
X183768905Y-86096344D01*
X183768904Y-86096343D01*
X183768903Y-86096337D01*
X183669035Y-85882171D01*
X183661955Y-85872060D01*
X183533496Y-85688600D01*
X183517616Y-85672720D01*
X183411567Y-85566671D01*
X183378084Y-85505351D01*
X183383068Y-85435659D01*
X183424939Y-85379725D01*
X183455915Y-85362810D01*
X183587331Y-85313796D01*
X183702546Y-85227546D01*
X183788796Y-85112331D01*
X183839091Y-84977483D01*
X183845500Y-84917873D01*
X183845499Y-83122128D01*
X183839091Y-83062517D01*
X183818170Y-83006426D01*
X183788797Y-82927671D01*
X183788793Y-82927664D01*
X183702547Y-82812455D01*
X183702544Y-82812452D01*
X183587335Y-82726206D01*
X183587328Y-82726202D01*
X183455917Y-82677189D01*
X183399983Y-82635318D01*
X183375566Y-82569853D01*
X183390418Y-82501580D01*
X183411563Y-82473332D01*
X183533495Y-82351401D01*
X183669035Y-82157830D01*
X183768903Y-81943663D01*
X183830063Y-81715408D01*
X183850659Y-81480000D01*
X183830063Y-81244592D01*
X183768903Y-81016337D01*
X183669035Y-80802171D01*
X183533495Y-80608599D01*
X183533494Y-80608597D01*
X183366402Y-80441506D01*
X183366396Y-80441501D01*
X183180842Y-80311575D01*
X183137217Y-80256998D01*
X183130023Y-80187500D01*
X183161546Y-80125145D01*
X183180842Y-80108425D01*
X183203026Y-80092891D01*
X183366401Y-79978495D01*
X183533495Y-79811401D01*
X183669035Y-79617830D01*
X183768903Y-79403663D01*
X183830063Y-79175408D01*
X183850659Y-78940000D01*
X183830063Y-78704592D01*
X183768903Y-78476337D01*
X183669035Y-78262171D01*
X183546567Y-78087267D01*
X183533494Y-78068597D01*
X183366402Y-77901506D01*
X183366396Y-77901501D01*
X183180842Y-77771575D01*
X183137217Y-77716998D01*
X183130023Y-77647500D01*
X183161546Y-77585145D01*
X183180842Y-77568425D01*
X183216020Y-77543793D01*
X183366401Y-77438495D01*
X183533495Y-77271401D01*
X183669035Y-77077830D01*
X183768903Y-76863663D01*
X183830063Y-76635408D01*
X183850659Y-76400000D01*
X183830063Y-76164592D01*
X183777572Y-75968691D01*
X183768905Y-75936344D01*
X183768904Y-75936343D01*
X183768903Y-75936337D01*
X183669035Y-75722171D01*
X183661956Y-75712060D01*
X183533494Y-75528597D01*
X183366402Y-75361506D01*
X183366396Y-75361501D01*
X183180842Y-75231575D01*
X183137217Y-75176998D01*
X183130023Y-75107500D01*
X183161546Y-75045145D01*
X183180842Y-75028425D01*
X183203026Y-75012891D01*
X183366401Y-74898495D01*
X183533495Y-74731401D01*
X183669035Y-74537830D01*
X183768903Y-74323663D01*
X183830063Y-74095408D01*
X183850659Y-73860000D01*
X183830063Y-73624592D01*
X183768903Y-73396337D01*
X183669035Y-73182171D01*
X183533495Y-72988599D01*
X183411567Y-72866671D01*
X183378084Y-72805351D01*
X183383068Y-72735659D01*
X183424939Y-72679725D01*
X183455915Y-72662810D01*
X183587331Y-72613796D01*
X183702546Y-72527546D01*
X183788796Y-72412331D01*
X183839091Y-72277483D01*
X183845500Y-72217873D01*
X183845499Y-70422128D01*
X183839091Y-70362517D01*
X183788796Y-70227669D01*
X183788795Y-70227668D01*
X183788793Y-70227664D01*
X183702547Y-70112455D01*
X183702544Y-70112452D01*
X183587335Y-70026206D01*
X183587328Y-70026202D01*
X183455917Y-69977189D01*
X183399983Y-69935318D01*
X183375566Y-69869853D01*
X183390418Y-69801580D01*
X183411563Y-69773332D01*
X183533495Y-69651401D01*
X183669035Y-69457830D01*
X183768903Y-69243663D01*
X183830063Y-69015408D01*
X183850659Y-68780000D01*
X183830063Y-68544592D01*
X183768903Y-68316337D01*
X183669035Y-68102171D01*
X183546742Y-67927517D01*
X183533494Y-67908597D01*
X183366402Y-67741506D01*
X183366396Y-67741501D01*
X183180842Y-67611575D01*
X183137217Y-67556998D01*
X183130023Y-67487500D01*
X183161546Y-67425145D01*
X183180842Y-67408425D01*
X183253006Y-67357895D01*
X183366401Y-67278495D01*
X183533495Y-67111401D01*
X183669035Y-66917830D01*
X183768903Y-66703663D01*
X183830063Y-66475408D01*
X183850659Y-66240000D01*
X183830063Y-66004592D01*
X183768903Y-65776337D01*
X183669035Y-65562171D01*
X183661297Y-65551119D01*
X183533494Y-65368597D01*
X183366402Y-65201506D01*
X183366396Y-65201501D01*
X183180842Y-65071575D01*
X183137217Y-65016998D01*
X183130023Y-64947500D01*
X183161546Y-64885145D01*
X183180842Y-64868425D01*
X183236954Y-64829135D01*
X183366401Y-64738495D01*
X183533495Y-64571401D01*
X183669035Y-64377830D01*
X183768903Y-64163663D01*
X183830063Y-63935408D01*
X183850659Y-63700000D01*
X183830063Y-63464592D01*
X183768903Y-63236337D01*
X183669035Y-63022171D01*
X183648848Y-62993340D01*
X183533494Y-62828597D01*
X183366402Y-62661506D01*
X183366396Y-62661501D01*
X183180842Y-62531575D01*
X183137217Y-62476998D01*
X183130023Y-62407500D01*
X183161546Y-62345145D01*
X183180842Y-62328425D01*
X183236954Y-62289135D01*
X183366401Y-62198495D01*
X183533495Y-62031401D01*
X183669035Y-61837830D01*
X183768903Y-61623663D01*
X183830063Y-61395408D01*
X183850659Y-61160000D01*
X183830063Y-60924592D01*
X183768903Y-60696337D01*
X183669035Y-60482171D01*
X183660434Y-60469888D01*
X183533496Y-60288600D01*
X183480396Y-60235500D01*
X183411179Y-60166283D01*
X183377696Y-60104963D01*
X183382680Y-60035271D01*
X183424551Y-59979337D01*
X183455529Y-59962422D01*
X183587086Y-59913354D01*
X183587093Y-59913350D01*
X183702187Y-59827190D01*
X183702190Y-59827187D01*
X183788350Y-59712093D01*
X183788354Y-59712086D01*
X183838596Y-59577379D01*
X183838598Y-59577372D01*
X183844999Y-59517844D01*
X183845000Y-59517827D01*
X183845000Y-58870000D01*
X182939560Y-58870000D01*
X182970245Y-58816853D01*
X183005000Y-58687143D01*
X183005000Y-58552857D01*
X182970245Y-58423147D01*
X182939560Y-58370000D01*
X183845000Y-58370000D01*
X183845000Y-57722172D01*
X183844999Y-57722155D01*
X183838598Y-57662627D01*
X183838596Y-57662620D01*
X183788354Y-57527913D01*
X183788350Y-57527906D01*
X183702190Y-57412812D01*
X183702187Y-57412809D01*
X183587093Y-57326649D01*
X183587088Y-57326646D01*
X183455528Y-57277577D01*
X183399595Y-57235705D01*
X183375178Y-57170241D01*
X183390030Y-57101968D01*
X183411175Y-57073720D01*
X183533495Y-56951401D01*
X183669035Y-56757830D01*
X183696003Y-56699997D01*
X187704723Y-56699997D01*
X187704723Y-56700002D01*
X187723793Y-56917975D01*
X187723793Y-56917979D01*
X187780422Y-57129322D01*
X187780424Y-57129326D01*
X187780425Y-57129330D01*
X187797009Y-57164894D01*
X187872897Y-57327638D01*
X187872898Y-57327639D01*
X187998402Y-57506877D01*
X188153123Y-57661598D01*
X188332361Y-57787102D01*
X188530670Y-57879575D01*
X188742023Y-57936207D01*
X188924926Y-57952208D01*
X188959998Y-57955277D01*
X188960000Y-57955277D01*
X188960002Y-57955277D01*
X188988254Y-57952805D01*
X189177977Y-57936207D01*
X189389330Y-57879575D01*
X189587639Y-57787102D01*
X189766877Y-57661598D01*
X189921598Y-57506877D01*
X190047102Y-57327639D01*
X190139575Y-57129330D01*
X190196207Y-56917977D01*
X190215277Y-56700000D01*
X190215277Y-56699997D01*
X192554723Y-56699997D01*
X192554723Y-56700002D01*
X192573793Y-56917975D01*
X192573793Y-56917979D01*
X192630422Y-57129322D01*
X192630424Y-57129326D01*
X192630425Y-57129330D01*
X192647009Y-57164894D01*
X192722897Y-57327638D01*
X192722898Y-57327639D01*
X192848402Y-57506877D01*
X193003123Y-57661598D01*
X193182361Y-57787102D01*
X193380670Y-57879575D01*
X193592023Y-57936207D01*
X193774926Y-57952208D01*
X193809998Y-57955277D01*
X193810000Y-57955277D01*
X193810002Y-57955277D01*
X193838254Y-57952805D01*
X194027977Y-57936207D01*
X194239330Y-57879575D01*
X194437639Y-57787102D01*
X194616877Y-57661598D01*
X194771598Y-57506877D01*
X194897102Y-57327639D01*
X194989575Y-57129330D01*
X195046207Y-56917977D01*
X195065277Y-56700000D01*
X195064551Y-56691706D01*
X195060086Y-56640662D01*
X195046207Y-56482023D01*
X194989575Y-56270670D01*
X194897102Y-56072362D01*
X194897100Y-56072359D01*
X194897099Y-56072357D01*
X194771599Y-55893124D01*
X194723061Y-55844586D01*
X194616877Y-55738402D01*
X194478978Y-55641844D01*
X194437638Y-55612897D01*
X194338484Y-55566661D01*
X194239330Y-55520425D01*
X194239326Y-55520424D01*
X194239322Y-55520422D01*
X194027977Y-55463793D01*
X193810002Y-55444723D01*
X193809998Y-55444723D01*
X193664682Y-55457436D01*
X193592023Y-55463793D01*
X193592020Y-55463793D01*
X193380677Y-55520422D01*
X193380668Y-55520426D01*
X193182361Y-55612898D01*
X193182357Y-55612900D01*
X193003121Y-55738402D01*
X192848402Y-55893121D01*
X192722900Y-56072357D01*
X192722898Y-56072361D01*
X192630426Y-56270668D01*
X192630422Y-56270677D01*
X192573793Y-56482020D01*
X192573793Y-56482024D01*
X192554723Y-56699997D01*
X190215277Y-56699997D01*
X190214551Y-56691706D01*
X190210086Y-56640662D01*
X190196207Y-56482023D01*
X190139575Y-56270670D01*
X190047102Y-56072362D01*
X190047100Y-56072359D01*
X190047099Y-56072357D01*
X189921599Y-55893124D01*
X189873061Y-55844586D01*
X189766877Y-55738402D01*
X189628978Y-55641844D01*
X189587638Y-55612897D01*
X189488484Y-55566661D01*
X189389330Y-55520425D01*
X189389326Y-55520424D01*
X189389322Y-55520422D01*
X189177977Y-55463793D01*
X188960002Y-55444723D01*
X188959998Y-55444723D01*
X188814682Y-55457436D01*
X188742023Y-55463793D01*
X188742020Y-55463793D01*
X188530677Y-55520422D01*
X188530668Y-55520426D01*
X188332361Y-55612898D01*
X188332357Y-55612900D01*
X188153121Y-55738402D01*
X187998402Y-55893121D01*
X187872900Y-56072357D01*
X187872898Y-56072361D01*
X187780426Y-56270668D01*
X187780422Y-56270677D01*
X187723793Y-56482020D01*
X187723793Y-56482024D01*
X187704723Y-56699997D01*
X183696003Y-56699997D01*
X183768903Y-56543663D01*
X183830063Y-56315408D01*
X183850659Y-56080000D01*
X183830063Y-55844592D01*
X183768903Y-55616337D01*
X183669035Y-55402171D01*
X183669034Y-55402169D01*
X183533494Y-55208597D01*
X183366402Y-55041506D01*
X183366396Y-55041501D01*
X183180842Y-54911575D01*
X183137217Y-54856998D01*
X183130023Y-54787500D01*
X183161546Y-54725145D01*
X183180842Y-54708425D01*
X183216020Y-54683793D01*
X183366401Y-54578495D01*
X183533495Y-54411401D01*
X183669035Y-54217830D01*
X183768903Y-54003663D01*
X183830063Y-53775408D01*
X183839286Y-53669993D01*
X187254700Y-53669993D01*
X187254700Y-53670006D01*
X187273864Y-53901297D01*
X187273866Y-53901308D01*
X187330842Y-54126300D01*
X187424075Y-54338848D01*
X187551016Y-54533147D01*
X187551019Y-54533151D01*
X187551021Y-54533153D01*
X187708216Y-54703913D01*
X187708219Y-54703915D01*
X187708222Y-54703918D01*
X187891365Y-54846464D01*
X187891371Y-54846468D01*
X187891374Y-54846470D01*
X188095497Y-54956936D01*
X188209487Y-54996068D01*
X188315015Y-55032297D01*
X188315017Y-55032297D01*
X188315019Y-55032298D01*
X188543951Y-55070500D01*
X188543952Y-55070500D01*
X188776048Y-55070500D01*
X188776049Y-55070500D01*
X189004981Y-55032298D01*
X189224503Y-54956936D01*
X189428626Y-54846470D01*
X189467641Y-54816104D01*
X189541099Y-54758929D01*
X189611784Y-54703913D01*
X189768979Y-54533153D01*
X189895924Y-54338849D01*
X189989157Y-54126300D01*
X190046134Y-53901305D01*
X190055647Y-53786497D01*
X190065300Y-53670006D01*
X190065300Y-53669993D01*
X192704700Y-53669993D01*
X192704700Y-53670006D01*
X192723864Y-53901297D01*
X192723866Y-53901308D01*
X192780842Y-54126300D01*
X192874075Y-54338848D01*
X193001016Y-54533147D01*
X193001019Y-54533151D01*
X193001021Y-54533153D01*
X193158216Y-54703913D01*
X193158219Y-54703915D01*
X193158222Y-54703918D01*
X193341365Y-54846464D01*
X193341371Y-54846468D01*
X193341374Y-54846470D01*
X193545497Y-54956936D01*
X193659487Y-54996068D01*
X193765015Y-55032297D01*
X193765017Y-55032297D01*
X193765019Y-55032298D01*
X193993951Y-55070500D01*
X193993952Y-55070500D01*
X194226048Y-55070500D01*
X194226049Y-55070500D01*
X194454981Y-55032298D01*
X194674503Y-54956936D01*
X194878626Y-54846470D01*
X194917641Y-54816104D01*
X194991099Y-54758929D01*
X195061784Y-54703913D01*
X195218979Y-54533153D01*
X195345924Y-54338849D01*
X195439157Y-54126300D01*
X195496134Y-53901305D01*
X195505647Y-53786497D01*
X195515300Y-53670006D01*
X195515300Y-53669993D01*
X195504529Y-53539999D01*
X198919341Y-53539999D01*
X198919341Y-53540000D01*
X198939936Y-53775403D01*
X198939938Y-53775413D01*
X199001094Y-54003655D01*
X199001096Y-54003659D01*
X199001097Y-54003663D01*
X199058284Y-54126300D01*
X199100965Y-54217830D01*
X199100967Y-54217834D01*
X199236501Y-54411395D01*
X199236506Y-54411402D01*
X199403597Y-54578493D01*
X199403603Y-54578498D01*
X199589158Y-54708425D01*
X199632783Y-54763002D01*
X199639977Y-54832500D01*
X199608454Y-54894855D01*
X199589158Y-54911575D01*
X199403597Y-55041505D01*
X199236505Y-55208597D01*
X199100965Y-55402169D01*
X199100964Y-55402171D01*
X199001098Y-55616335D01*
X199001094Y-55616344D01*
X198939938Y-55844586D01*
X198939936Y-55844596D01*
X198919341Y-56079999D01*
X198919341Y-56080000D01*
X198939936Y-56315403D01*
X198939938Y-56315413D01*
X199001094Y-56543655D01*
X199001096Y-56543659D01*
X199001097Y-56543663D01*
X199070131Y-56691706D01*
X199100965Y-56757830D01*
X199100967Y-56757834D01*
X199145631Y-56821620D01*
X199236501Y-56951396D01*
X199236506Y-56951402D01*
X199358818Y-57073714D01*
X199392303Y-57135037D01*
X199387319Y-57204729D01*
X199345447Y-57260662D01*
X199314471Y-57277577D01*
X199182912Y-57326646D01*
X199182906Y-57326649D01*
X199067812Y-57412809D01*
X199067809Y-57412812D01*
X198981649Y-57527906D01*
X198981645Y-57527913D01*
X198931403Y-57662620D01*
X198931401Y-57662627D01*
X198925000Y-57722155D01*
X198925000Y-58370000D01*
X199830440Y-58370000D01*
X199799755Y-58423147D01*
X199765000Y-58552857D01*
X199765000Y-58687143D01*
X199799755Y-58816853D01*
X199830440Y-58870000D01*
X198925000Y-58870000D01*
X198925000Y-59517844D01*
X198931401Y-59577372D01*
X198931403Y-59577379D01*
X198981645Y-59712086D01*
X198981649Y-59712093D01*
X199067809Y-59827187D01*
X199067812Y-59827190D01*
X199182906Y-59913350D01*
X199182913Y-59913354D01*
X199314470Y-59962421D01*
X199370403Y-60004292D01*
X199394821Y-60069756D01*
X199379970Y-60138029D01*
X199358819Y-60166284D01*
X199236503Y-60288600D01*
X199100965Y-60482169D01*
X199100964Y-60482171D01*
X199001098Y-60696335D01*
X199001094Y-60696344D01*
X198939938Y-60924586D01*
X198939936Y-60924596D01*
X198919341Y-61159999D01*
X198919341Y-61160000D01*
X198939936Y-61395403D01*
X198939938Y-61395413D01*
X199001094Y-61623655D01*
X199001096Y-61623659D01*
X199001097Y-61623663D01*
X199077607Y-61787738D01*
X199100965Y-61837830D01*
X199100967Y-61837834D01*
X199236501Y-62031395D01*
X199236506Y-62031402D01*
X199403597Y-62198493D01*
X199403603Y-62198498D01*
X199589158Y-62328425D01*
X199632783Y-62383002D01*
X199639977Y-62452500D01*
X199608454Y-62514855D01*
X199589158Y-62531575D01*
X199403597Y-62661505D01*
X199236505Y-62828597D01*
X199100965Y-63022169D01*
X199100964Y-63022171D01*
X199001098Y-63236335D01*
X199001094Y-63236344D01*
X198939938Y-63464586D01*
X198939936Y-63464596D01*
X198919341Y-63699999D01*
X198919341Y-63700000D01*
X198939936Y-63935403D01*
X198939938Y-63935413D01*
X199001094Y-64163655D01*
X199001096Y-64163659D01*
X199001097Y-64163663D01*
X199082774Y-64338820D01*
X199100965Y-64377830D01*
X199100967Y-64377834D01*
X199236501Y-64571395D01*
X199236506Y-64571402D01*
X199403597Y-64738493D01*
X199403603Y-64738498D01*
X199589158Y-64868425D01*
X199632783Y-64923002D01*
X199639977Y-64992500D01*
X199608454Y-65054855D01*
X199589158Y-65071575D01*
X199403597Y-65201505D01*
X199236505Y-65368597D01*
X199100965Y-65562169D01*
X199100964Y-65562171D01*
X199001098Y-65776335D01*
X199001094Y-65776344D01*
X198939938Y-66004586D01*
X198939936Y-66004596D01*
X198919341Y-66239999D01*
X198919341Y-66240000D01*
X198939936Y-66475403D01*
X198939938Y-66475413D01*
X199001094Y-66703655D01*
X199001096Y-66703659D01*
X199001097Y-66703663D01*
X199100965Y-66917830D01*
X199100967Y-66917834D01*
X199236501Y-67111395D01*
X199236506Y-67111402D01*
X199403597Y-67278493D01*
X199403603Y-67278498D01*
X199589158Y-67408425D01*
X199632783Y-67463002D01*
X199639977Y-67532500D01*
X199608454Y-67594855D01*
X199589158Y-67611575D01*
X199403597Y-67741505D01*
X199236505Y-67908597D01*
X199100965Y-68102169D01*
X199100964Y-68102171D01*
X199001098Y-68316335D01*
X199001094Y-68316344D01*
X198939938Y-68544586D01*
X198939936Y-68544596D01*
X198919341Y-68779999D01*
X198919341Y-68780000D01*
X198939936Y-69015403D01*
X198939938Y-69015413D01*
X199001094Y-69243655D01*
X199001096Y-69243659D01*
X199001097Y-69243663D01*
X199082774Y-69418820D01*
X199100965Y-69457830D01*
X199100967Y-69457834D01*
X199186269Y-69579657D01*
X199236501Y-69651396D01*
X199236506Y-69651402D01*
X199358430Y-69773326D01*
X199391915Y-69834649D01*
X199386931Y-69904341D01*
X199345059Y-69960274D01*
X199314083Y-69977189D01*
X199182669Y-70026203D01*
X199182664Y-70026206D01*
X199067455Y-70112452D01*
X199067452Y-70112455D01*
X198981206Y-70227664D01*
X198981202Y-70227671D01*
X198930908Y-70362517D01*
X198924501Y-70422116D01*
X198924501Y-70422123D01*
X198924500Y-70422135D01*
X198924500Y-72217870D01*
X198924501Y-72217876D01*
X198930908Y-72277483D01*
X198981202Y-72412328D01*
X198981206Y-72412335D01*
X199067452Y-72527544D01*
X199067455Y-72527547D01*
X199182664Y-72613793D01*
X199182671Y-72613797D01*
X199314081Y-72662810D01*
X199370015Y-72704681D01*
X199394432Y-72770145D01*
X199379580Y-72838418D01*
X199358430Y-72866673D01*
X199236503Y-72988600D01*
X199100965Y-73182169D01*
X199100964Y-73182171D01*
X199001098Y-73396335D01*
X199001094Y-73396344D01*
X198939938Y-73624586D01*
X198939936Y-73624596D01*
X198919341Y-73859999D01*
X198919341Y-73860000D01*
X198939936Y-74095403D01*
X198939938Y-74095413D01*
X199001094Y-74323655D01*
X199001096Y-74323659D01*
X199001097Y-74323663D01*
X199100965Y-74537830D01*
X199100967Y-74537834D01*
X199236501Y-74731395D01*
X199236506Y-74731402D01*
X199403597Y-74898493D01*
X199403603Y-74898498D01*
X199589158Y-75028425D01*
X199632783Y-75083002D01*
X199639977Y-75152500D01*
X199608454Y-75214855D01*
X199589158Y-75231575D01*
X199403597Y-75361505D01*
X199236505Y-75528597D01*
X199100965Y-75722169D01*
X199100964Y-75722171D01*
X199001098Y-75936335D01*
X199001094Y-75936344D01*
X198939938Y-76164586D01*
X198939936Y-76164596D01*
X198919341Y-76399999D01*
X198919341Y-76400000D01*
X198939936Y-76635403D01*
X198939938Y-76635413D01*
X199001094Y-76863655D01*
X199001096Y-76863659D01*
X199001097Y-76863663D01*
X199063619Y-76997741D01*
X199100965Y-77077830D01*
X199100967Y-77077834D01*
X199236501Y-77271395D01*
X199236506Y-77271402D01*
X199403597Y-77438493D01*
X199403603Y-77438498D01*
X199589158Y-77568425D01*
X199632783Y-77623002D01*
X199639977Y-77692500D01*
X199608454Y-77754855D01*
X199589158Y-77771575D01*
X199403597Y-77901505D01*
X199236505Y-78068597D01*
X199100965Y-78262169D01*
X199100964Y-78262171D01*
X199001098Y-78476335D01*
X199001094Y-78476344D01*
X198939938Y-78704586D01*
X198939936Y-78704596D01*
X198919341Y-78939999D01*
X198919341Y-78940000D01*
X198939936Y-79175403D01*
X198939938Y-79175413D01*
X199001094Y-79403655D01*
X199001096Y-79403659D01*
X199001097Y-79403663D01*
X199084973Y-79583535D01*
X199100965Y-79617830D01*
X199100967Y-79617834D01*
X199236501Y-79811395D01*
X199236506Y-79811402D01*
X199403597Y-79978493D01*
X199403603Y-79978498D01*
X199589158Y-80108425D01*
X199632783Y-80163002D01*
X199639977Y-80232500D01*
X199608454Y-80294855D01*
X199589158Y-80311575D01*
X199403597Y-80441505D01*
X199236505Y-80608597D01*
X199100965Y-80802169D01*
X199100964Y-80802171D01*
X199001098Y-81016335D01*
X199001094Y-81016344D01*
X198939938Y-81244586D01*
X198939936Y-81244596D01*
X198919341Y-81479999D01*
X198919341Y-81480000D01*
X198939936Y-81715403D01*
X198939938Y-81715413D01*
X199001094Y-81943655D01*
X199001096Y-81943659D01*
X199001097Y-81943663D01*
X199084973Y-82123535D01*
X199100965Y-82157830D01*
X199100967Y-82157834D01*
X199142322Y-82216894D01*
X199236501Y-82351396D01*
X199236506Y-82351402D01*
X199358818Y-82473714D01*
X199392303Y-82535037D01*
X199387319Y-82604729D01*
X199345447Y-82660662D01*
X199314471Y-82677577D01*
X199182912Y-82726646D01*
X199182906Y-82726649D01*
X199067812Y-82812809D01*
X199067809Y-82812812D01*
X198981649Y-82927906D01*
X198981645Y-82927913D01*
X198931403Y-83062620D01*
X198931401Y-83062627D01*
X198925000Y-83122155D01*
X198925000Y-83770000D01*
X199830440Y-83770000D01*
X199799755Y-83823147D01*
X199765000Y-83952857D01*
X199765000Y-84087143D01*
X199799755Y-84216853D01*
X199830440Y-84270000D01*
X198925000Y-84270000D01*
X198925000Y-84917844D01*
X198931401Y-84977372D01*
X198931403Y-84977379D01*
X198981645Y-85112086D01*
X198981649Y-85112093D01*
X199067809Y-85227187D01*
X199067812Y-85227190D01*
X199182906Y-85313350D01*
X199182913Y-85313354D01*
X199314470Y-85362421D01*
X199370403Y-85404292D01*
X199394821Y-85469756D01*
X199379970Y-85538029D01*
X199358819Y-85566284D01*
X199236503Y-85688600D01*
X199100965Y-85882169D01*
X199100964Y-85882171D01*
X199001098Y-86096335D01*
X199001094Y-86096344D01*
X198939938Y-86324586D01*
X198939936Y-86324596D01*
X198919341Y-86559999D01*
X198919341Y-86560000D01*
X198939936Y-86795403D01*
X198939938Y-86795413D01*
X199001094Y-87023655D01*
X199001096Y-87023659D01*
X199001097Y-87023663D01*
X199063619Y-87157741D01*
X199100965Y-87237830D01*
X199100967Y-87237834D01*
X199236501Y-87431395D01*
X199236506Y-87431402D01*
X199403597Y-87598493D01*
X199403603Y-87598498D01*
X199589158Y-87728425D01*
X199632783Y-87783002D01*
X199639977Y-87852500D01*
X199608454Y-87914855D01*
X199589158Y-87931575D01*
X199403597Y-88061505D01*
X199236505Y-88228597D01*
X199100965Y-88422169D01*
X199100964Y-88422171D01*
X199001098Y-88636335D01*
X199001094Y-88636344D01*
X198939938Y-88864586D01*
X198939936Y-88864596D01*
X198919341Y-89099999D01*
X198919341Y-89100000D01*
X198939936Y-89335403D01*
X198939938Y-89335413D01*
X199001094Y-89563655D01*
X199001096Y-89563659D01*
X199001097Y-89563663D01*
X199100965Y-89777830D01*
X199100967Y-89777834D01*
X199236501Y-89971395D01*
X199236506Y-89971402D01*
X199403597Y-90138493D01*
X199403603Y-90138498D01*
X199589158Y-90268425D01*
X199632783Y-90323002D01*
X199639977Y-90392500D01*
X199608454Y-90454855D01*
X199589158Y-90471575D01*
X199403597Y-90601505D01*
X199236505Y-90768597D01*
X199100965Y-90962169D01*
X199100964Y-90962171D01*
X199001098Y-91176335D01*
X199001094Y-91176344D01*
X198939938Y-91404586D01*
X198939936Y-91404596D01*
X198919341Y-91639999D01*
X198919341Y-91640000D01*
X198939936Y-91875403D01*
X198939938Y-91875413D01*
X199001094Y-92103655D01*
X199001096Y-92103659D01*
X199001097Y-92103663D01*
X199100965Y-92317830D01*
X199100967Y-92317834D01*
X199236501Y-92511395D01*
X199236506Y-92511402D01*
X199403597Y-92678493D01*
X199403603Y-92678498D01*
X199589158Y-92808425D01*
X199632783Y-92863002D01*
X199639977Y-92932500D01*
X199608454Y-92994855D01*
X199589158Y-93011575D01*
X199403597Y-93141505D01*
X199236505Y-93308597D01*
X199100965Y-93502169D01*
X199100964Y-93502171D01*
X199001098Y-93716335D01*
X199001094Y-93716344D01*
X198939938Y-93944586D01*
X198939936Y-93944596D01*
X198919341Y-94179999D01*
X198919341Y-94180000D01*
X198939936Y-94415403D01*
X198939938Y-94415413D01*
X199001094Y-94643655D01*
X199001096Y-94643659D01*
X199001097Y-94643663D01*
X199029919Y-94705471D01*
X199100965Y-94857830D01*
X199100967Y-94857834D01*
X199209281Y-95012521D01*
X199236501Y-95051396D01*
X199236506Y-95051402D01*
X199358430Y-95173326D01*
X199391915Y-95234649D01*
X199386931Y-95304341D01*
X199345059Y-95360274D01*
X199314083Y-95377189D01*
X199182669Y-95426203D01*
X199182664Y-95426206D01*
X199067455Y-95512452D01*
X199067452Y-95512455D01*
X198981206Y-95627664D01*
X198981202Y-95627671D01*
X198930908Y-95762517D01*
X198924501Y-95822116D01*
X198924501Y-95822123D01*
X198924500Y-95822135D01*
X198924500Y-97617870D01*
X198924501Y-97617876D01*
X198930908Y-97677483D01*
X198981202Y-97812328D01*
X198981206Y-97812335D01*
X199067452Y-97927544D01*
X199067455Y-97927547D01*
X199182664Y-98013793D01*
X199182671Y-98013797D01*
X199314081Y-98062810D01*
X199370015Y-98104681D01*
X199394432Y-98170145D01*
X199379580Y-98238418D01*
X199358430Y-98266673D01*
X199236503Y-98388600D01*
X199100965Y-98582169D01*
X199100964Y-98582171D01*
X199001098Y-98796335D01*
X199001094Y-98796344D01*
X198939938Y-99024586D01*
X198939936Y-99024596D01*
X198919341Y-99259999D01*
X198919341Y-99260000D01*
X198939936Y-99495403D01*
X198939938Y-99495413D01*
X199001094Y-99723655D01*
X199001096Y-99723659D01*
X199001097Y-99723663D01*
X199082923Y-99899139D01*
X199100965Y-99937830D01*
X199100967Y-99937834D01*
X199236501Y-100131395D01*
X199236506Y-100131402D01*
X199403597Y-100298493D01*
X199403603Y-100298498D01*
X199589158Y-100428425D01*
X199632783Y-100483002D01*
X199639977Y-100552500D01*
X199608454Y-100614855D01*
X199589158Y-100631575D01*
X199403597Y-100761505D01*
X199236505Y-100928597D01*
X199100965Y-101122169D01*
X199100964Y-101122171D01*
X199001098Y-101336335D01*
X199001094Y-101336344D01*
X198939938Y-101564586D01*
X198939936Y-101564596D01*
X198919341Y-101799999D01*
X198919341Y-101800000D01*
X198939936Y-102035403D01*
X198939938Y-102035413D01*
X199001094Y-102263655D01*
X199001096Y-102263659D01*
X199001097Y-102263663D01*
X199096322Y-102467873D01*
X199100965Y-102477830D01*
X199100967Y-102477834D01*
X199192456Y-102608493D01*
X199236505Y-102671401D01*
X199403599Y-102838495D01*
X199439733Y-102863796D01*
X199597165Y-102974032D01*
X199597167Y-102974033D01*
X199597170Y-102974035D01*
X199811337Y-103073903D01*
X200039592Y-103135063D01*
X200227918Y-103151539D01*
X200274999Y-103155659D01*
X200275000Y-103155659D01*
X200275001Y-103155659D01*
X200314234Y-103152226D01*
X200510408Y-103135063D01*
X200738663Y-103073903D01*
X200952830Y-102974035D01*
X201146401Y-102838495D01*
X201313495Y-102671401D01*
X201449035Y-102477830D01*
X201548903Y-102263663D01*
X201610063Y-102035408D01*
X201630659Y-101800000D01*
X201610063Y-101564592D01*
X201548903Y-101336337D01*
X201449035Y-101122171D01*
X201313495Y-100928599D01*
X201313494Y-100928597D01*
X201146402Y-100761506D01*
X201146396Y-100761501D01*
X200960842Y-100631575D01*
X200917217Y-100576998D01*
X200910023Y-100507500D01*
X200941546Y-100445145D01*
X200960842Y-100428425D01*
X200983026Y-100412891D01*
X201146401Y-100298495D01*
X201313495Y-100131401D01*
X201449035Y-99937830D01*
X201548903Y-99723663D01*
X201610063Y-99495408D01*
X201630659Y-99260000D01*
X201613161Y-99059998D01*
X219674532Y-99059998D01*
X219674532Y-99060001D01*
X219694364Y-99286686D01*
X219694366Y-99286697D01*
X219753258Y-99506488D01*
X219753261Y-99506497D01*
X219849431Y-99712732D01*
X219849432Y-99712734D01*
X219979954Y-99899141D01*
X220140858Y-100060045D01*
X220140861Y-100060047D01*
X220327266Y-100190568D01*
X220533504Y-100286739D01*
X220533509Y-100286740D01*
X220533511Y-100286741D01*
X220568429Y-100296097D01*
X220753308Y-100345635D01*
X220915230Y-100359801D01*
X220979998Y-100365468D01*
X220980000Y-100365468D01*
X220980002Y-100365468D01*
X221036673Y-100360509D01*
X221206692Y-100345635D01*
X221426496Y-100286739D01*
X221632734Y-100190568D01*
X221819139Y-100060047D01*
X221980047Y-99899139D01*
X222110568Y-99712734D01*
X222206739Y-99506496D01*
X222265635Y-99286692D01*
X222285468Y-99060000D01*
X222265635Y-98833308D01*
X222206739Y-98613504D01*
X222110568Y-98407266D01*
X221980047Y-98220861D01*
X221980045Y-98220858D01*
X221819141Y-98059954D01*
X221632734Y-97929432D01*
X221632732Y-97929431D01*
X221426497Y-97833261D01*
X221426488Y-97833258D01*
X221206697Y-97774366D01*
X221206693Y-97774365D01*
X221206692Y-97774365D01*
X221206691Y-97774364D01*
X221206686Y-97774364D01*
X220980002Y-97754532D01*
X220979998Y-97754532D01*
X220753313Y-97774364D01*
X220753302Y-97774366D01*
X220533511Y-97833258D01*
X220533502Y-97833261D01*
X220327267Y-97929431D01*
X220327265Y-97929432D01*
X220140858Y-98059954D01*
X219979954Y-98220858D01*
X219849432Y-98407265D01*
X219849431Y-98407267D01*
X219753261Y-98613502D01*
X219753258Y-98613511D01*
X219694366Y-98833302D01*
X219694364Y-98833313D01*
X219674532Y-99059998D01*
X201613161Y-99059998D01*
X201610063Y-99024592D01*
X201548903Y-98796337D01*
X201449035Y-98582171D01*
X201326566Y-98407267D01*
X201313496Y-98388600D01*
X201299054Y-98374158D01*
X201191567Y-98266671D01*
X201158084Y-98205351D01*
X201163068Y-98135659D01*
X201204939Y-98079725D01*
X201235915Y-98062810D01*
X201367331Y-98013796D01*
X201482546Y-97927546D01*
X201568796Y-97812331D01*
X201619091Y-97677483D01*
X201625500Y-97617873D01*
X201625499Y-96519993D01*
X209414700Y-96519993D01*
X209414700Y-96520006D01*
X209433864Y-96751297D01*
X209433866Y-96751308D01*
X209490842Y-96976300D01*
X209584075Y-97188848D01*
X209711016Y-97383147D01*
X209711019Y-97383151D01*
X209711021Y-97383153D01*
X209868216Y-97553913D01*
X209868219Y-97553915D01*
X209868222Y-97553918D01*
X210051365Y-97696464D01*
X210051371Y-97696468D01*
X210051374Y-97696470D01*
X210255497Y-97806936D01*
X210332179Y-97833261D01*
X210475015Y-97882297D01*
X210475017Y-97882297D01*
X210475019Y-97882298D01*
X210703951Y-97920500D01*
X210703952Y-97920500D01*
X210936048Y-97920500D01*
X210936049Y-97920500D01*
X211164981Y-97882298D01*
X211384503Y-97806936D01*
X211588626Y-97696470D01*
X211771784Y-97553913D01*
X211780130Y-97544846D01*
X211840010Y-97508854D01*
X211909849Y-97510949D01*
X211967468Y-97550469D01*
X211987544Y-97585491D01*
X212016203Y-97662330D01*
X212016206Y-97662335D01*
X212102452Y-97777544D01*
X212102455Y-97777547D01*
X212217664Y-97863793D01*
X212217671Y-97863797D01*
X212352517Y-97914091D01*
X212352516Y-97914091D01*
X212359444Y-97914835D01*
X212412127Y-97920500D01*
X214307872Y-97920499D01*
X214367483Y-97914091D01*
X214502331Y-97863796D01*
X214617546Y-97777546D01*
X214703796Y-97662331D01*
X214754091Y-97527483D01*
X214760500Y-97467873D01*
X214760499Y-95572128D01*
X214754091Y-95512517D01*
X214744233Y-95486087D01*
X214703797Y-95377671D01*
X214703793Y-95377664D01*
X214617547Y-95262455D01*
X214617544Y-95262452D01*
X214502335Y-95176206D01*
X214502328Y-95176202D01*
X214367482Y-95125908D01*
X214367483Y-95125908D01*
X214307883Y-95119501D01*
X214307881Y-95119500D01*
X214307873Y-95119500D01*
X214307864Y-95119500D01*
X212412129Y-95119500D01*
X212412123Y-95119501D01*
X212352516Y-95125908D01*
X212217671Y-95176202D01*
X212217664Y-95176206D01*
X212102455Y-95262452D01*
X212102452Y-95262455D01*
X212016206Y-95377664D01*
X212016203Y-95377670D01*
X211987544Y-95454508D01*
X211945672Y-95510441D01*
X211880208Y-95534858D01*
X211811935Y-95520006D01*
X211780135Y-95495158D01*
X211771784Y-95486087D01*
X211771778Y-95486082D01*
X211771777Y-95486081D01*
X211588634Y-95343535D01*
X211588628Y-95343531D01*
X211384504Y-95233064D01*
X211384495Y-95233061D01*
X211164984Y-95157702D01*
X210974450Y-95125908D01*
X210936049Y-95119500D01*
X210703951Y-95119500D01*
X210665550Y-95125908D01*
X210475015Y-95157702D01*
X210255504Y-95233061D01*
X210255495Y-95233064D01*
X210051371Y-95343531D01*
X210051365Y-95343535D01*
X209868222Y-95486081D01*
X209868219Y-95486084D01*
X209868216Y-95486086D01*
X209868216Y-95486087D01*
X209823319Y-95534858D01*
X209711016Y-95656852D01*
X209584075Y-95851151D01*
X209490842Y-96063699D01*
X209433866Y-96288691D01*
X209433864Y-96288702D01*
X209414700Y-96519993D01*
X201625499Y-96519993D01*
X201625499Y-95822128D01*
X201619091Y-95762517D01*
X201568884Y-95627906D01*
X201568797Y-95627671D01*
X201568793Y-95627664D01*
X201482547Y-95512455D01*
X201482544Y-95512452D01*
X201367335Y-95426206D01*
X201367328Y-95426202D01*
X201235917Y-95377189D01*
X201179983Y-95335318D01*
X201155566Y-95269853D01*
X201170418Y-95201580D01*
X201191563Y-95173332D01*
X201313495Y-95051401D01*
X201449035Y-94857830D01*
X201548903Y-94643663D01*
X201610063Y-94415408D01*
X201630659Y-94180000D01*
X201613161Y-93979997D01*
X219675034Y-93979997D01*
X219675034Y-93980002D01*
X219694858Y-94206599D01*
X219694860Y-94206610D01*
X219753730Y-94426317D01*
X219753735Y-94426331D01*
X219849863Y-94632478D01*
X219900974Y-94705472D01*
X220580000Y-94026446D01*
X220580000Y-94032661D01*
X220607259Y-94134394D01*
X220659920Y-94225606D01*
X220734394Y-94300080D01*
X220825606Y-94352741D01*
X220927339Y-94380000D01*
X220933553Y-94380000D01*
X220254526Y-95059025D01*
X220327513Y-95110132D01*
X220327521Y-95110136D01*
X220533668Y-95206264D01*
X220533682Y-95206269D01*
X220753389Y-95265139D01*
X220753400Y-95265141D01*
X220979998Y-95284966D01*
X220980002Y-95284966D01*
X221206599Y-95265141D01*
X221206610Y-95265139D01*
X221426317Y-95206269D01*
X221426331Y-95206264D01*
X221632478Y-95110136D01*
X221705471Y-95059024D01*
X221026447Y-94380000D01*
X221032661Y-94380000D01*
X221134394Y-94352741D01*
X221225606Y-94300080D01*
X221300080Y-94225606D01*
X221352741Y-94134394D01*
X221380000Y-94032661D01*
X221380000Y-94026447D01*
X222059024Y-94705471D01*
X222110136Y-94632478D01*
X222206264Y-94426331D01*
X222206269Y-94426317D01*
X222265139Y-94206610D01*
X222265141Y-94206599D01*
X222284966Y-93980002D01*
X222284966Y-93979997D01*
X222265141Y-93753400D01*
X222265139Y-93753389D01*
X222206269Y-93533682D01*
X222206264Y-93533668D01*
X222110136Y-93327521D01*
X222110132Y-93327513D01*
X222059025Y-93254526D01*
X221380000Y-93933551D01*
X221380000Y-93927339D01*
X221352741Y-93825606D01*
X221300080Y-93734394D01*
X221225606Y-93659920D01*
X221134394Y-93607259D01*
X221032661Y-93580000D01*
X221026445Y-93580000D01*
X221705472Y-92900974D01*
X221632478Y-92849863D01*
X221426331Y-92753735D01*
X221426317Y-92753730D01*
X221206610Y-92694860D01*
X221206599Y-92694858D01*
X220980002Y-92675034D01*
X220979998Y-92675034D01*
X220753400Y-92694858D01*
X220753389Y-92694860D01*
X220533682Y-92753730D01*
X220533673Y-92753734D01*
X220327516Y-92849866D01*
X220327512Y-92849868D01*
X220254526Y-92900973D01*
X220254526Y-92900974D01*
X220933553Y-93580000D01*
X220927339Y-93580000D01*
X220825606Y-93607259D01*
X220734394Y-93659920D01*
X220659920Y-93734394D01*
X220607259Y-93825606D01*
X220580000Y-93927339D01*
X220580000Y-93933552D01*
X219900974Y-93254526D01*
X219900973Y-93254526D01*
X219849868Y-93327512D01*
X219849866Y-93327516D01*
X219753734Y-93533673D01*
X219753730Y-93533682D01*
X219694860Y-93753389D01*
X219694858Y-93753400D01*
X219675034Y-93979997D01*
X201613161Y-93979997D01*
X201610063Y-93944592D01*
X201548903Y-93716337D01*
X201449035Y-93502171D01*
X201326745Y-93327521D01*
X201313494Y-93308597D01*
X201146402Y-93141506D01*
X201146396Y-93141501D01*
X200960842Y-93011575D01*
X200917217Y-92956998D01*
X200910023Y-92887500D01*
X200941546Y-92825145D01*
X200960842Y-92808425D01*
X201038947Y-92753735D01*
X201146401Y-92678495D01*
X201313495Y-92511401D01*
X201449035Y-92317830D01*
X201548903Y-92103663D01*
X201610063Y-91875408D01*
X201630659Y-91640000D01*
X201610063Y-91404592D01*
X201548903Y-91176337D01*
X201449035Y-90962171D01*
X201313495Y-90768599D01*
X201313494Y-90768597D01*
X201146402Y-90601506D01*
X201146396Y-90601501D01*
X200960842Y-90471575D01*
X200917217Y-90416998D01*
X200910023Y-90347500D01*
X200941546Y-90285145D01*
X200960842Y-90268425D01*
X200983026Y-90252891D01*
X201146401Y-90138495D01*
X201313495Y-89971401D01*
X201449035Y-89777830D01*
X201548903Y-89563663D01*
X201610063Y-89335408D01*
X201630659Y-89100000D01*
X201610063Y-88864592D01*
X201548903Y-88636337D01*
X201449035Y-88422171D01*
X201313495Y-88228599D01*
X201313494Y-88228597D01*
X201146402Y-88061506D01*
X201146396Y-88061501D01*
X200960842Y-87931575D01*
X200917217Y-87876998D01*
X200910023Y-87807500D01*
X200941546Y-87745145D01*
X200960842Y-87728425D01*
X200996020Y-87703793D01*
X201146401Y-87598495D01*
X201313495Y-87431401D01*
X201449035Y-87237830D01*
X201548903Y-87023663D01*
X201610063Y-86795408D01*
X201630659Y-86560000D01*
X201613160Y-86359993D01*
X209414700Y-86359993D01*
X209414700Y-86360006D01*
X209433864Y-86591297D01*
X209433866Y-86591308D01*
X209490842Y-86816300D01*
X209584075Y-87028848D01*
X209711016Y-87223147D01*
X209711019Y-87223151D01*
X209711021Y-87223153D01*
X209868216Y-87393913D01*
X209868219Y-87393915D01*
X209868222Y-87393918D01*
X210051365Y-87536464D01*
X210051371Y-87536468D01*
X210051374Y-87536470D01*
X210255497Y-87646936D01*
X210369487Y-87686068D01*
X210475015Y-87722297D01*
X210475017Y-87722297D01*
X210475019Y-87722298D01*
X210703951Y-87760500D01*
X210703952Y-87760500D01*
X210936048Y-87760500D01*
X210936049Y-87760500D01*
X211164981Y-87722298D01*
X211384503Y-87646936D01*
X211588626Y-87536470D01*
X211771784Y-87393913D01*
X211780130Y-87384846D01*
X211840010Y-87348854D01*
X211909849Y-87350949D01*
X211967468Y-87390469D01*
X211987544Y-87425491D01*
X212016203Y-87502330D01*
X212016206Y-87502335D01*
X212102452Y-87617544D01*
X212102455Y-87617547D01*
X212217664Y-87703793D01*
X212217671Y-87703797D01*
X212352517Y-87754091D01*
X212352516Y-87754091D01*
X212359444Y-87754835D01*
X212412127Y-87760500D01*
X214307872Y-87760499D01*
X214367483Y-87754091D01*
X214502331Y-87703796D01*
X214617546Y-87617546D01*
X214703796Y-87502331D01*
X214754091Y-87367483D01*
X214760500Y-87307873D01*
X214760499Y-86360000D01*
X214760499Y-85412129D01*
X214760498Y-85412123D01*
X214760034Y-85407810D01*
X214754091Y-85352517D01*
X214744233Y-85326087D01*
X214703797Y-85217671D01*
X214703793Y-85217664D01*
X214617547Y-85102455D01*
X214617544Y-85102452D01*
X214502335Y-85016206D01*
X214502328Y-85016202D01*
X214367482Y-84965908D01*
X214367483Y-84965908D01*
X214307883Y-84959501D01*
X214307881Y-84959500D01*
X214307873Y-84959500D01*
X214307864Y-84959500D01*
X212412129Y-84959500D01*
X212412123Y-84959501D01*
X212352516Y-84965908D01*
X212217671Y-85016202D01*
X212217664Y-85016206D01*
X212102455Y-85102452D01*
X212102452Y-85102455D01*
X212016206Y-85217664D01*
X212016203Y-85217670D01*
X211987544Y-85294508D01*
X211945672Y-85350441D01*
X211880208Y-85374858D01*
X211811935Y-85360006D01*
X211780135Y-85335158D01*
X211771784Y-85326087D01*
X211771778Y-85326082D01*
X211771777Y-85326081D01*
X211588634Y-85183535D01*
X211588628Y-85183531D01*
X211384504Y-85073064D01*
X211384495Y-85073061D01*
X211164984Y-84997702D01*
X210974450Y-84965908D01*
X210936049Y-84959500D01*
X210703951Y-84959500D01*
X210665550Y-84965908D01*
X210475015Y-84997702D01*
X210255504Y-85073061D01*
X210255495Y-85073064D01*
X210051371Y-85183531D01*
X210051365Y-85183535D01*
X209868222Y-85326081D01*
X209868219Y-85326084D01*
X209868216Y-85326086D01*
X209868216Y-85326087D01*
X209834410Y-85362810D01*
X209711016Y-85496852D01*
X209584075Y-85691151D01*
X209490842Y-85903699D01*
X209433866Y-86128691D01*
X209433864Y-86128702D01*
X209414700Y-86359993D01*
X201613160Y-86359993D01*
X201610063Y-86324592D01*
X201557572Y-86128691D01*
X201548905Y-86096344D01*
X201548904Y-86096343D01*
X201548903Y-86096337D01*
X201449035Y-85882171D01*
X201441955Y-85872060D01*
X201313496Y-85688600D01*
X201297616Y-85672720D01*
X201191179Y-85566283D01*
X201157696Y-85504963D01*
X201162680Y-85435271D01*
X201204551Y-85379337D01*
X201235529Y-85362422D01*
X201367086Y-85313354D01*
X201367093Y-85313350D01*
X201482187Y-85227190D01*
X201482190Y-85227187D01*
X201568350Y-85112093D01*
X201568354Y-85112086D01*
X201618596Y-84977379D01*
X201618598Y-84977372D01*
X201624999Y-84917844D01*
X201625000Y-84917827D01*
X201625000Y-84270000D01*
X200719560Y-84270000D01*
X200750245Y-84216853D01*
X200785000Y-84087143D01*
X200785000Y-83952857D01*
X200750245Y-83823147D01*
X200748427Y-83819998D01*
X219674532Y-83819998D01*
X219674532Y-83820001D01*
X219694364Y-84046686D01*
X219694366Y-84046697D01*
X219753258Y-84266488D01*
X219753261Y-84266497D01*
X219849431Y-84472732D01*
X219849432Y-84472734D01*
X219979954Y-84659141D01*
X220140858Y-84820045D01*
X220140861Y-84820047D01*
X220327266Y-84950568D01*
X220533504Y-85046739D01*
X220753308Y-85105635D01*
X220915230Y-85119801D01*
X220979998Y-85125468D01*
X220980000Y-85125468D01*
X220980002Y-85125468D01*
X221036673Y-85120509D01*
X221206692Y-85105635D01*
X221426496Y-85046739D01*
X221632734Y-84950568D01*
X221819139Y-84820047D01*
X221980047Y-84659139D01*
X222110568Y-84472734D01*
X222206739Y-84266496D01*
X222265635Y-84046692D01*
X222285468Y-83820000D01*
X222265635Y-83593308D01*
X222206739Y-83373504D01*
X222110568Y-83167266D01*
X222012839Y-83027693D01*
X221980045Y-82980858D01*
X221819141Y-82819954D01*
X221632734Y-82689432D01*
X221632732Y-82689431D01*
X221426497Y-82593261D01*
X221426488Y-82593258D01*
X221206697Y-82534366D01*
X221206693Y-82534365D01*
X221206692Y-82534365D01*
X221206691Y-82534364D01*
X221206686Y-82534364D01*
X220980002Y-82514532D01*
X220979998Y-82514532D01*
X220753313Y-82534364D01*
X220753302Y-82534366D01*
X220533511Y-82593258D01*
X220533502Y-82593261D01*
X220327267Y-82689431D01*
X220327265Y-82689432D01*
X220140858Y-82819954D01*
X219979954Y-82980858D01*
X219849432Y-83167265D01*
X219849431Y-83167267D01*
X219753261Y-83373502D01*
X219753258Y-83373511D01*
X219694366Y-83593302D01*
X219694364Y-83593313D01*
X219674532Y-83819998D01*
X200748427Y-83819998D01*
X200719560Y-83770000D01*
X201625000Y-83770000D01*
X201625000Y-83122172D01*
X201624999Y-83122155D01*
X201618598Y-83062627D01*
X201618596Y-83062620D01*
X201568354Y-82927913D01*
X201568350Y-82927906D01*
X201482190Y-82812812D01*
X201482187Y-82812809D01*
X201367093Y-82726649D01*
X201367088Y-82726646D01*
X201235528Y-82677577D01*
X201179595Y-82635705D01*
X201155178Y-82570241D01*
X201170030Y-82501968D01*
X201191175Y-82473720D01*
X201313495Y-82351401D01*
X201449035Y-82157830D01*
X201548903Y-81943663D01*
X201610063Y-81715408D01*
X201630659Y-81480000D01*
X201610063Y-81244592D01*
X201548903Y-81016337D01*
X201449035Y-80802171D01*
X201313495Y-80608599D01*
X201313494Y-80608597D01*
X201146402Y-80441506D01*
X201146396Y-80441501D01*
X200960842Y-80311575D01*
X200917217Y-80256998D01*
X200910023Y-80187500D01*
X200941546Y-80125145D01*
X200960842Y-80108425D01*
X200983026Y-80092891D01*
X201146401Y-79978495D01*
X201313495Y-79811401D01*
X201449035Y-79617830D01*
X201548903Y-79403663D01*
X201610063Y-79175408D01*
X201630659Y-78940000D01*
X201613161Y-78739998D01*
X219674532Y-78739998D01*
X219674532Y-78740001D01*
X219694364Y-78966686D01*
X219694366Y-78966697D01*
X219753258Y-79186488D01*
X219753261Y-79186497D01*
X219849431Y-79392732D01*
X219849432Y-79392734D01*
X219979954Y-79579141D01*
X220140858Y-79740045D01*
X220165050Y-79756984D01*
X220327266Y-79870568D01*
X220533504Y-79966739D01*
X220753308Y-80025635D01*
X220915230Y-80039801D01*
X220979998Y-80045468D01*
X220980000Y-80045468D01*
X220980002Y-80045468D01*
X221036673Y-80040509D01*
X221206692Y-80025635D01*
X221426496Y-79966739D01*
X221632734Y-79870568D01*
X221819139Y-79740047D01*
X221980047Y-79579139D01*
X222110568Y-79392734D01*
X222206739Y-79186496D01*
X222265635Y-78966692D01*
X222285468Y-78740000D01*
X222265635Y-78513308D01*
X222206739Y-78293504D01*
X222110568Y-78087266D01*
X221980047Y-77900861D01*
X221980045Y-77900858D01*
X221819141Y-77739954D01*
X221632734Y-77609432D01*
X221632732Y-77609431D01*
X221426497Y-77513261D01*
X221426488Y-77513258D01*
X221206697Y-77454366D01*
X221206693Y-77454365D01*
X221206692Y-77454365D01*
X221206691Y-77454364D01*
X221206686Y-77454364D01*
X220980002Y-77434532D01*
X220979998Y-77434532D01*
X220753313Y-77454364D01*
X220753302Y-77454366D01*
X220533511Y-77513258D01*
X220533502Y-77513261D01*
X220327267Y-77609431D01*
X220327265Y-77609432D01*
X220140858Y-77739954D01*
X219979954Y-77900858D01*
X219849432Y-78087265D01*
X219849431Y-78087267D01*
X219753261Y-78293502D01*
X219753258Y-78293511D01*
X219694366Y-78513302D01*
X219694364Y-78513313D01*
X219674532Y-78739998D01*
X201613161Y-78739998D01*
X201610063Y-78704592D01*
X201548903Y-78476337D01*
X201449035Y-78262171D01*
X201326567Y-78087267D01*
X201313494Y-78068597D01*
X201146402Y-77901506D01*
X201146396Y-77901501D01*
X200960842Y-77771575D01*
X200917217Y-77716998D01*
X200910023Y-77647500D01*
X200941546Y-77585145D01*
X200960842Y-77568425D01*
X200996020Y-77543793D01*
X201146401Y-77438495D01*
X201313495Y-77271401D01*
X201449035Y-77077830D01*
X201548903Y-76863663D01*
X201610063Y-76635408D01*
X201630659Y-76400000D01*
X201613160Y-76199993D01*
X209414700Y-76199993D01*
X209414700Y-76200006D01*
X209433864Y-76431297D01*
X209433866Y-76431308D01*
X209490842Y-76656300D01*
X209584075Y-76868848D01*
X209711016Y-77063147D01*
X209711019Y-77063151D01*
X209711021Y-77063153D01*
X209868216Y-77233913D01*
X209868219Y-77233915D01*
X209868222Y-77233918D01*
X210051365Y-77376464D01*
X210051371Y-77376468D01*
X210051374Y-77376470D01*
X210255497Y-77486936D01*
X210369487Y-77526068D01*
X210475015Y-77562297D01*
X210475017Y-77562297D01*
X210475019Y-77562298D01*
X210703951Y-77600500D01*
X210703952Y-77600500D01*
X210936048Y-77600500D01*
X210936049Y-77600500D01*
X211164981Y-77562298D01*
X211384503Y-77486936D01*
X211588626Y-77376470D01*
X211771784Y-77233913D01*
X211780130Y-77224846D01*
X211840010Y-77188854D01*
X211909849Y-77190949D01*
X211967468Y-77230469D01*
X211987544Y-77265491D01*
X212016203Y-77342330D01*
X212016206Y-77342335D01*
X212102452Y-77457544D01*
X212102455Y-77457547D01*
X212217664Y-77543793D01*
X212217671Y-77543797D01*
X212352517Y-77594091D01*
X212352516Y-77594091D01*
X212359444Y-77594835D01*
X212412127Y-77600500D01*
X214307872Y-77600499D01*
X214367483Y-77594091D01*
X214502331Y-77543796D01*
X214617546Y-77457546D01*
X214703796Y-77342331D01*
X214754091Y-77207483D01*
X214760500Y-77147873D01*
X214760499Y-76200000D01*
X214760499Y-75252129D01*
X214760498Y-75252123D01*
X214760034Y-75247810D01*
X214754091Y-75192517D01*
X214744233Y-75166087D01*
X214703797Y-75057671D01*
X214703793Y-75057664D01*
X214617547Y-74942455D01*
X214617544Y-74942452D01*
X214502335Y-74856206D01*
X214502328Y-74856202D01*
X214367482Y-74805908D01*
X214367483Y-74805908D01*
X214307883Y-74799501D01*
X214307881Y-74799500D01*
X214307873Y-74799500D01*
X214307864Y-74799500D01*
X212412129Y-74799500D01*
X212412123Y-74799501D01*
X212352516Y-74805908D01*
X212217671Y-74856202D01*
X212217664Y-74856206D01*
X212102455Y-74942452D01*
X212102452Y-74942455D01*
X212016206Y-75057664D01*
X212016203Y-75057670D01*
X211987544Y-75134508D01*
X211945672Y-75190441D01*
X211880208Y-75214858D01*
X211811935Y-75200006D01*
X211780135Y-75175158D01*
X211771784Y-75166087D01*
X211771778Y-75166082D01*
X211771777Y-75166081D01*
X211588634Y-75023535D01*
X211588628Y-75023531D01*
X211384504Y-74913064D01*
X211384495Y-74913061D01*
X211164984Y-74837702D01*
X210974450Y-74805908D01*
X210936049Y-74799500D01*
X210703951Y-74799500D01*
X210665550Y-74805908D01*
X210475015Y-74837702D01*
X210255504Y-74913061D01*
X210255495Y-74913064D01*
X210051371Y-75023531D01*
X210051365Y-75023535D01*
X209868222Y-75166081D01*
X209868219Y-75166084D01*
X209868216Y-75166086D01*
X209868216Y-75166087D01*
X209823322Y-75214855D01*
X209711016Y-75336852D01*
X209584075Y-75531151D01*
X209490842Y-75743699D01*
X209433866Y-75968691D01*
X209433864Y-75968702D01*
X209414700Y-76199993D01*
X201613160Y-76199993D01*
X201610063Y-76164592D01*
X201557572Y-75968691D01*
X201548905Y-75936344D01*
X201548904Y-75936343D01*
X201548903Y-75936337D01*
X201449035Y-75722171D01*
X201441956Y-75712060D01*
X201313494Y-75528597D01*
X201146402Y-75361506D01*
X201146396Y-75361501D01*
X200960842Y-75231575D01*
X200917217Y-75176998D01*
X200910023Y-75107500D01*
X200941546Y-75045145D01*
X200960842Y-75028425D01*
X200983026Y-75012891D01*
X201146401Y-74898495D01*
X201313495Y-74731401D01*
X201449035Y-74537830D01*
X201548903Y-74323663D01*
X201610063Y-74095408D01*
X201630659Y-73860000D01*
X201610063Y-73624592D01*
X201548903Y-73396337D01*
X201449035Y-73182171D01*
X201313495Y-72988599D01*
X201191567Y-72866671D01*
X201158084Y-72805351D01*
X201163068Y-72735659D01*
X201204939Y-72679725D01*
X201235915Y-72662810D01*
X201367331Y-72613796D01*
X201482546Y-72527546D01*
X201568796Y-72412331D01*
X201619091Y-72277483D01*
X201625500Y-72217873D01*
X201625499Y-70422128D01*
X201619091Y-70362517D01*
X201568796Y-70227669D01*
X201568795Y-70227668D01*
X201568793Y-70227664D01*
X201482547Y-70112455D01*
X201482544Y-70112452D01*
X201367335Y-70026206D01*
X201367328Y-70026202D01*
X201235917Y-69977189D01*
X201179983Y-69935318D01*
X201155566Y-69869853D01*
X201170418Y-69801580D01*
X201191563Y-69773332D01*
X201313495Y-69651401D01*
X201449035Y-69457830D01*
X201548903Y-69243663D01*
X201610063Y-69015408D01*
X201630659Y-68780000D01*
X201610063Y-68544592D01*
X201552564Y-68329999D01*
X219701127Y-68329999D01*
X219701128Y-68330000D01*
X220664314Y-68330000D01*
X220659920Y-68334394D01*
X220607259Y-68425606D01*
X220580000Y-68527339D01*
X220580000Y-68632661D01*
X220607259Y-68734394D01*
X220659920Y-68825606D01*
X220664314Y-68830000D01*
X219701128Y-68830000D01*
X219753730Y-69026317D01*
X219753734Y-69026326D01*
X219849865Y-69232482D01*
X219980342Y-69418820D01*
X220141179Y-69579657D01*
X220327517Y-69710134D01*
X220533673Y-69806265D01*
X220533682Y-69806269D01*
X220729999Y-69858872D01*
X220730000Y-69858871D01*
X220730000Y-68895686D01*
X220734394Y-68900080D01*
X220825606Y-68952741D01*
X220927339Y-68980000D01*
X221032661Y-68980000D01*
X221134394Y-68952741D01*
X221225606Y-68900080D01*
X221230000Y-68895686D01*
X221230000Y-69858872D01*
X221426317Y-69806269D01*
X221426326Y-69806265D01*
X221632482Y-69710134D01*
X221818820Y-69579657D01*
X221979657Y-69418820D01*
X222110134Y-69232482D01*
X222206265Y-69026326D01*
X222206269Y-69026317D01*
X222258872Y-68830000D01*
X221295686Y-68830000D01*
X221300080Y-68825606D01*
X221352741Y-68734394D01*
X221380000Y-68632661D01*
X221380000Y-68527339D01*
X221352741Y-68425606D01*
X221300080Y-68334394D01*
X221295686Y-68330000D01*
X222258872Y-68330000D01*
X222258872Y-68329999D01*
X222206269Y-68133682D01*
X222206265Y-68133673D01*
X222110134Y-67927517D01*
X221979657Y-67741179D01*
X221818820Y-67580342D01*
X221632482Y-67449865D01*
X221426328Y-67353734D01*
X221230000Y-67301127D01*
X221230000Y-68264314D01*
X221225606Y-68259920D01*
X221134394Y-68207259D01*
X221032661Y-68180000D01*
X220927339Y-68180000D01*
X220825606Y-68207259D01*
X220734394Y-68259920D01*
X220730000Y-68264314D01*
X220730000Y-67301127D01*
X220533671Y-67353734D01*
X220327517Y-67449865D01*
X220141179Y-67580342D01*
X219980342Y-67741179D01*
X219849865Y-67927517D01*
X219753734Y-68133673D01*
X219753730Y-68133682D01*
X219701127Y-68329999D01*
X201552564Y-68329999D01*
X201548903Y-68316337D01*
X201449035Y-68102171D01*
X201326742Y-67927517D01*
X201313494Y-67908597D01*
X201146402Y-67741506D01*
X201146396Y-67741501D01*
X200960842Y-67611575D01*
X200917217Y-67556998D01*
X200910023Y-67487500D01*
X200941546Y-67425145D01*
X200960842Y-67408425D01*
X201033006Y-67357895D01*
X201146401Y-67278495D01*
X201313495Y-67111401D01*
X201449035Y-66917830D01*
X201548903Y-66703663D01*
X201610063Y-66475408D01*
X201630659Y-66240000D01*
X201613160Y-66039994D01*
X209164357Y-66039994D01*
X209164357Y-66040005D01*
X209184890Y-66287812D01*
X209184892Y-66287824D01*
X209245936Y-66528881D01*
X209345826Y-66756606D01*
X209481833Y-66964782D01*
X209514245Y-66999991D01*
X209650256Y-67147738D01*
X209846491Y-67300474D01*
X210065190Y-67418828D01*
X210300386Y-67499571D01*
X210545665Y-67540500D01*
X210794335Y-67540500D01*
X211039614Y-67499571D01*
X211274810Y-67418828D01*
X211493509Y-67300474D01*
X211689744Y-67147738D01*
X211858164Y-66964785D01*
X211994173Y-66756607D01*
X212094063Y-66528881D01*
X212155108Y-66287821D01*
X212159071Y-66239999D01*
X212175643Y-66040005D01*
X212175643Y-66039994D01*
X215664357Y-66039994D01*
X215664357Y-66040005D01*
X215684890Y-66287812D01*
X215684892Y-66287824D01*
X215745936Y-66528881D01*
X215845826Y-66756606D01*
X215981833Y-66964782D01*
X216014245Y-66999991D01*
X216150256Y-67147738D01*
X216346491Y-67300474D01*
X216565190Y-67418828D01*
X216800386Y-67499571D01*
X217045665Y-67540500D01*
X217294335Y-67540500D01*
X217539614Y-67499571D01*
X217774810Y-67418828D01*
X217993509Y-67300474D01*
X218189744Y-67147738D01*
X218358164Y-66964785D01*
X218494173Y-66756607D01*
X218594063Y-66528881D01*
X218655108Y-66287821D01*
X218659071Y-66239999D01*
X218675643Y-66040005D01*
X218675643Y-66039994D01*
X218655109Y-65792187D01*
X218655107Y-65792175D01*
X218594063Y-65551118D01*
X218494173Y-65323393D01*
X218358166Y-65115217D01*
X218336557Y-65091744D01*
X218189744Y-64932262D01*
X217993509Y-64779526D01*
X217993507Y-64779525D01*
X217993506Y-64779524D01*
X217774811Y-64661172D01*
X217774802Y-64661169D01*
X217539616Y-64580429D01*
X217294335Y-64539500D01*
X217045665Y-64539500D01*
X216800383Y-64580429D01*
X216565197Y-64661169D01*
X216565188Y-64661172D01*
X216346493Y-64779524D01*
X216150257Y-64932261D01*
X215981833Y-65115217D01*
X215845826Y-65323393D01*
X215745936Y-65551118D01*
X215684892Y-65792175D01*
X215684890Y-65792187D01*
X215664357Y-66039994D01*
X212175643Y-66039994D01*
X212155109Y-65792187D01*
X212155107Y-65792175D01*
X212094063Y-65551118D01*
X211994173Y-65323393D01*
X211858166Y-65115217D01*
X211836557Y-65091744D01*
X211689744Y-64932262D01*
X211493509Y-64779526D01*
X211493507Y-64779525D01*
X211493506Y-64779524D01*
X211274811Y-64661172D01*
X211274802Y-64661169D01*
X211039616Y-64580429D01*
X210794335Y-64539500D01*
X210545665Y-64539500D01*
X210300383Y-64580429D01*
X210065197Y-64661169D01*
X210065188Y-64661172D01*
X209846493Y-64779524D01*
X209650257Y-64932261D01*
X209481833Y-65115217D01*
X209345826Y-65323393D01*
X209245936Y-65551118D01*
X209184892Y-65792175D01*
X209184890Y-65792187D01*
X209164357Y-66039994D01*
X201613160Y-66039994D01*
X201610063Y-66004592D01*
X201548903Y-65776337D01*
X201449035Y-65562171D01*
X201441297Y-65551119D01*
X201313494Y-65368597D01*
X201146402Y-65201506D01*
X201146396Y-65201501D01*
X200960842Y-65071575D01*
X200917217Y-65016998D01*
X200910023Y-64947500D01*
X200941546Y-64885145D01*
X200960842Y-64868425D01*
X201016954Y-64829135D01*
X201146401Y-64738495D01*
X201313495Y-64571401D01*
X201449035Y-64377830D01*
X201548903Y-64163663D01*
X201610063Y-63935408D01*
X201630659Y-63700000D01*
X201610063Y-63464592D01*
X201552564Y-63249999D01*
X219701127Y-63249999D01*
X219701128Y-63250000D01*
X220664314Y-63250000D01*
X220659920Y-63254394D01*
X220607259Y-63345606D01*
X220580000Y-63447339D01*
X220580000Y-63552661D01*
X220607259Y-63654394D01*
X220659920Y-63745606D01*
X220664314Y-63750000D01*
X219701128Y-63750000D01*
X219753730Y-63946317D01*
X219753734Y-63946326D01*
X219849865Y-64152482D01*
X219980342Y-64338820D01*
X220141179Y-64499657D01*
X220327517Y-64630134D01*
X220533673Y-64726265D01*
X220533682Y-64726269D01*
X220729999Y-64778872D01*
X220730000Y-64778871D01*
X220730000Y-63815686D01*
X220734394Y-63820080D01*
X220825606Y-63872741D01*
X220927339Y-63900000D01*
X221032661Y-63900000D01*
X221134394Y-63872741D01*
X221225606Y-63820080D01*
X221230000Y-63815686D01*
X221230000Y-64778872D01*
X221426317Y-64726269D01*
X221426326Y-64726265D01*
X221632482Y-64630134D01*
X221818820Y-64499657D01*
X221979657Y-64338820D01*
X222110134Y-64152482D01*
X222206265Y-63946326D01*
X222206269Y-63946317D01*
X222258872Y-63750000D01*
X221295686Y-63750000D01*
X221300080Y-63745606D01*
X221352741Y-63654394D01*
X221380000Y-63552661D01*
X221380000Y-63447339D01*
X221352741Y-63345606D01*
X221300080Y-63254394D01*
X221295686Y-63250000D01*
X222258872Y-63250000D01*
X222258872Y-63249999D01*
X222206269Y-63053682D01*
X222206265Y-63053673D01*
X222110134Y-62847517D01*
X221979657Y-62661179D01*
X221818820Y-62500342D01*
X221632482Y-62369865D01*
X221426328Y-62273734D01*
X221230000Y-62221127D01*
X221230000Y-63184314D01*
X221225606Y-63179920D01*
X221134394Y-63127259D01*
X221032661Y-63100000D01*
X220927339Y-63100000D01*
X220825606Y-63127259D01*
X220734394Y-63179920D01*
X220730000Y-63184314D01*
X220730000Y-62221127D01*
X220533671Y-62273734D01*
X220327517Y-62369865D01*
X220141179Y-62500342D01*
X219980342Y-62661179D01*
X219849865Y-62847517D01*
X219753734Y-63053673D01*
X219753730Y-63053682D01*
X219701127Y-63249999D01*
X201552564Y-63249999D01*
X201548903Y-63236337D01*
X201449035Y-63022171D01*
X201428848Y-62993340D01*
X201313494Y-62828597D01*
X201146402Y-62661506D01*
X201146396Y-62661501D01*
X200960842Y-62531575D01*
X200917217Y-62476998D01*
X200910023Y-62407500D01*
X200941546Y-62345145D01*
X200960842Y-62328425D01*
X201016954Y-62289135D01*
X201146401Y-62198495D01*
X201313495Y-62031401D01*
X201449035Y-61837830D01*
X201548903Y-61623663D01*
X201571322Y-61539994D01*
X209164859Y-61539994D01*
X209164859Y-61540005D01*
X209185385Y-61787729D01*
X209185387Y-61787738D01*
X209246412Y-62028717D01*
X209346267Y-62256367D01*
X209446562Y-62409881D01*
X210146212Y-61710233D01*
X210157482Y-61752292D01*
X210229890Y-61877708D01*
X210332292Y-61980110D01*
X210457708Y-62052518D01*
X210499766Y-62063787D01*
X209799943Y-62763609D01*
X209846768Y-62800055D01*
X209846771Y-62800057D01*
X210065385Y-62918364D01*
X210065396Y-62918369D01*
X210300506Y-62999083D01*
X210545707Y-63040000D01*
X210794293Y-63040000D01*
X211039493Y-62999083D01*
X211274603Y-62918369D01*
X211274614Y-62918364D01*
X211493230Y-62800056D01*
X211493236Y-62800051D01*
X211540055Y-62763610D01*
X211540056Y-62763609D01*
X210840233Y-62063787D01*
X210882292Y-62052518D01*
X211007708Y-61980110D01*
X211110110Y-61877708D01*
X211182518Y-61752292D01*
X211193787Y-61710233D01*
X211893435Y-62409882D01*
X211993733Y-62256364D01*
X212093587Y-62028717D01*
X212154612Y-61787738D01*
X212154614Y-61787729D01*
X212175141Y-61540005D01*
X212175141Y-61539994D01*
X215664859Y-61539994D01*
X215664859Y-61540005D01*
X215685385Y-61787729D01*
X215685387Y-61787738D01*
X215746412Y-62028717D01*
X215846267Y-62256367D01*
X215946562Y-62409881D01*
X216646212Y-61710233D01*
X216657482Y-61752292D01*
X216729890Y-61877708D01*
X216832292Y-61980110D01*
X216957708Y-62052518D01*
X216999766Y-62063787D01*
X216299943Y-62763609D01*
X216346768Y-62800055D01*
X216346771Y-62800057D01*
X216565385Y-62918364D01*
X216565396Y-62918369D01*
X216800506Y-62999083D01*
X217045707Y-63040000D01*
X217294293Y-63040000D01*
X217539493Y-62999083D01*
X217774603Y-62918369D01*
X217774614Y-62918364D01*
X217993230Y-62800056D01*
X217993236Y-62800051D01*
X218040055Y-62763610D01*
X218040056Y-62763609D01*
X217340233Y-62063787D01*
X217382292Y-62052518D01*
X217507708Y-61980110D01*
X217610110Y-61877708D01*
X217682518Y-61752292D01*
X217693787Y-61710233D01*
X218393435Y-62409882D01*
X218493733Y-62256364D01*
X218593587Y-62028717D01*
X218654612Y-61787738D01*
X218654614Y-61787729D01*
X218675141Y-61540005D01*
X218675141Y-61539994D01*
X218654614Y-61292270D01*
X218654612Y-61292261D01*
X218593587Y-61051282D01*
X218493732Y-60823632D01*
X218393435Y-60670116D01*
X217693787Y-61369765D01*
X217682518Y-61327708D01*
X217610110Y-61202292D01*
X217507708Y-61099890D01*
X217382292Y-61027482D01*
X217340233Y-61016212D01*
X218040055Y-60316389D01*
X218040055Y-60316388D01*
X217993236Y-60279947D01*
X217993231Y-60279944D01*
X217774614Y-60161635D01*
X217774603Y-60161630D01*
X217539493Y-60080916D01*
X217294293Y-60040000D01*
X217045707Y-60040000D01*
X216800506Y-60080916D01*
X216565396Y-60161630D01*
X216565385Y-60161635D01*
X216346770Y-60279943D01*
X216299943Y-60316389D01*
X216999766Y-61016212D01*
X216957708Y-61027482D01*
X216832292Y-61099890D01*
X216729890Y-61202292D01*
X216657482Y-61327708D01*
X216646212Y-61369766D01*
X215946563Y-60670117D01*
X215846267Y-60823633D01*
X215846265Y-60823637D01*
X215746412Y-61051282D01*
X215685387Y-61292261D01*
X215685385Y-61292270D01*
X215664859Y-61539994D01*
X212175141Y-61539994D01*
X212154614Y-61292270D01*
X212154612Y-61292261D01*
X212093587Y-61051282D01*
X211993732Y-60823632D01*
X211893435Y-60670116D01*
X211193787Y-61369765D01*
X211182518Y-61327708D01*
X211110110Y-61202292D01*
X211007708Y-61099890D01*
X210882292Y-61027482D01*
X210840233Y-61016212D01*
X211540055Y-60316389D01*
X211540055Y-60316388D01*
X211493236Y-60279947D01*
X211493231Y-60279944D01*
X211274614Y-60161635D01*
X211274603Y-60161630D01*
X211039493Y-60080916D01*
X210794293Y-60040000D01*
X210545707Y-60040000D01*
X210300506Y-60080916D01*
X210065396Y-60161630D01*
X210065385Y-60161635D01*
X209846770Y-60279943D01*
X209799943Y-60316389D01*
X210499766Y-61016212D01*
X210457708Y-61027482D01*
X210332292Y-61099890D01*
X210229890Y-61202292D01*
X210157482Y-61327708D01*
X210146212Y-61369765D01*
X209446563Y-60670117D01*
X209346267Y-60823633D01*
X209346265Y-60823637D01*
X209246412Y-61051282D01*
X209185387Y-61292261D01*
X209185385Y-61292270D01*
X209164859Y-61539994D01*
X201571322Y-61539994D01*
X201610063Y-61395408D01*
X201630659Y-61160000D01*
X201610063Y-60924592D01*
X201548903Y-60696337D01*
X201449035Y-60482171D01*
X201440434Y-60469888D01*
X201313496Y-60288600D01*
X201260396Y-60235500D01*
X201191179Y-60166283D01*
X201157696Y-60104963D01*
X201162680Y-60035271D01*
X201204551Y-59979337D01*
X201235529Y-59962422D01*
X201367086Y-59913354D01*
X201367093Y-59913350D01*
X201482187Y-59827190D01*
X201482190Y-59827187D01*
X201568350Y-59712093D01*
X201568354Y-59712086D01*
X201618596Y-59577379D01*
X201618598Y-59577372D01*
X201624999Y-59517844D01*
X201625000Y-59517827D01*
X201625000Y-58870000D01*
X200719560Y-58870000D01*
X200750245Y-58816853D01*
X200785000Y-58687143D01*
X200785000Y-58552857D01*
X200750245Y-58423147D01*
X200719560Y-58370000D01*
X201625000Y-58370000D01*
X201625000Y-57722172D01*
X201624999Y-57722155D01*
X201618598Y-57662627D01*
X201618596Y-57662620D01*
X201568354Y-57527913D01*
X201568350Y-57527906D01*
X201482190Y-57412812D01*
X201482187Y-57412809D01*
X201367093Y-57326649D01*
X201367088Y-57326646D01*
X201235528Y-57277577D01*
X201179595Y-57235705D01*
X201155178Y-57170241D01*
X201170030Y-57101968D01*
X201191175Y-57073720D01*
X201313495Y-56951401D01*
X201449035Y-56757830D01*
X201548903Y-56543663D01*
X201610063Y-56315408D01*
X201630659Y-56080000D01*
X201610063Y-55844592D01*
X201548903Y-55616337D01*
X201449035Y-55402171D01*
X201449034Y-55402169D01*
X201313494Y-55208597D01*
X201146402Y-55041506D01*
X201146396Y-55041501D01*
X200960842Y-54911575D01*
X200917217Y-54856998D01*
X200910023Y-54787500D01*
X200941546Y-54725145D01*
X200960842Y-54708425D01*
X200996020Y-54683793D01*
X201146401Y-54578495D01*
X201313495Y-54411401D01*
X201449035Y-54217830D01*
X201548903Y-54003663D01*
X201610063Y-53775408D01*
X201630659Y-53540000D01*
X201613160Y-53339993D01*
X209414700Y-53339993D01*
X209414700Y-53340006D01*
X209433864Y-53571297D01*
X209433866Y-53571308D01*
X209490842Y-53796300D01*
X209584075Y-54008848D01*
X209711016Y-54203147D01*
X209711019Y-54203151D01*
X209711021Y-54203153D01*
X209868216Y-54373913D01*
X209868219Y-54373915D01*
X209868222Y-54373918D01*
X210051365Y-54516464D01*
X210051371Y-54516468D01*
X210051374Y-54516470D01*
X210255497Y-54626936D01*
X210309479Y-54645468D01*
X210475015Y-54702297D01*
X210475017Y-54702297D01*
X210475019Y-54702298D01*
X210703951Y-54740500D01*
X210703952Y-54740500D01*
X210936048Y-54740500D01*
X210936049Y-54740500D01*
X211164981Y-54702298D01*
X211384503Y-54626936D01*
X211588626Y-54516470D01*
X211771784Y-54373913D01*
X211780130Y-54364846D01*
X211840010Y-54328854D01*
X211909849Y-54330949D01*
X211967468Y-54370469D01*
X211987544Y-54405491D01*
X212016203Y-54482330D01*
X212016206Y-54482335D01*
X212102452Y-54597544D01*
X212102455Y-54597547D01*
X212217664Y-54683793D01*
X212217671Y-54683797D01*
X212352517Y-54734091D01*
X212352516Y-54734091D01*
X212359444Y-54734835D01*
X212412127Y-54740500D01*
X214307872Y-54740499D01*
X214367483Y-54734091D01*
X214502331Y-54683796D01*
X214617546Y-54597546D01*
X214703796Y-54482331D01*
X214754091Y-54347483D01*
X214760500Y-54287873D01*
X214760499Y-53339998D01*
X219674532Y-53339998D01*
X219674532Y-53340001D01*
X219694364Y-53566686D01*
X219694366Y-53566697D01*
X219753258Y-53786488D01*
X219753261Y-53786497D01*
X219849431Y-53992732D01*
X219849432Y-53992734D01*
X219979954Y-54179141D01*
X220140858Y-54340045D01*
X220140861Y-54340047D01*
X220327266Y-54470568D01*
X220533504Y-54566739D01*
X220753308Y-54625635D01*
X220915230Y-54639801D01*
X220979998Y-54645468D01*
X220980000Y-54645468D01*
X220980002Y-54645468D01*
X221036673Y-54640509D01*
X221206692Y-54625635D01*
X221426496Y-54566739D01*
X221632734Y-54470568D01*
X221819139Y-54340047D01*
X221980047Y-54179139D01*
X222110568Y-53992734D01*
X222206739Y-53786496D01*
X222265635Y-53566692D01*
X222282634Y-53372384D01*
X222285468Y-53340001D01*
X222285468Y-53339998D01*
X222265635Y-53113313D01*
X222265635Y-53113308D01*
X222206739Y-52893504D01*
X222110568Y-52687266D01*
X221980047Y-52500861D01*
X221980045Y-52500858D01*
X221819141Y-52339954D01*
X221632734Y-52209432D01*
X221632732Y-52209431D01*
X221426497Y-52113261D01*
X221426488Y-52113258D01*
X221206697Y-52054366D01*
X221206693Y-52054365D01*
X221206692Y-52054365D01*
X221206691Y-52054364D01*
X221206686Y-52054364D01*
X220980002Y-52034532D01*
X220979998Y-52034532D01*
X220753313Y-52054364D01*
X220753302Y-52054366D01*
X220533511Y-52113258D01*
X220533502Y-52113261D01*
X220327267Y-52209431D01*
X220327265Y-52209432D01*
X220140858Y-52339954D01*
X219979954Y-52500858D01*
X219849432Y-52687265D01*
X219849431Y-52687267D01*
X219753261Y-52893502D01*
X219753258Y-52893511D01*
X219694366Y-53113302D01*
X219694364Y-53113313D01*
X219674532Y-53339998D01*
X214760499Y-53339998D01*
X214760499Y-52392128D01*
X214754091Y-52332517D01*
X214744233Y-52306087D01*
X214703797Y-52197671D01*
X214703793Y-52197664D01*
X214617547Y-52082455D01*
X214617544Y-52082452D01*
X214502335Y-51996206D01*
X214502328Y-51996202D01*
X214367482Y-51945908D01*
X214367483Y-51945908D01*
X214307883Y-51939501D01*
X214307881Y-51939500D01*
X214307873Y-51939500D01*
X214307864Y-51939500D01*
X212412129Y-51939500D01*
X212412123Y-51939501D01*
X212352516Y-51945908D01*
X212217671Y-51996202D01*
X212217664Y-51996206D01*
X212102455Y-52082452D01*
X212102452Y-52082455D01*
X212016206Y-52197664D01*
X212016203Y-52197670D01*
X211987544Y-52274508D01*
X211945672Y-52330441D01*
X211880208Y-52354858D01*
X211811935Y-52340006D01*
X211780135Y-52315158D01*
X211771784Y-52306087D01*
X211771778Y-52306082D01*
X211771777Y-52306081D01*
X211588634Y-52163535D01*
X211588628Y-52163531D01*
X211384504Y-52053064D01*
X211384495Y-52053061D01*
X211164984Y-51977702D01*
X210974450Y-51945908D01*
X210936049Y-51939500D01*
X210703951Y-51939500D01*
X210665550Y-51945908D01*
X210475015Y-51977702D01*
X210255504Y-52053061D01*
X210255495Y-52053064D01*
X210051371Y-52163531D01*
X210051365Y-52163535D01*
X209868222Y-52306081D01*
X209868219Y-52306084D01*
X209868216Y-52306086D01*
X209868216Y-52306087D01*
X209823319Y-52354858D01*
X209711016Y-52476852D01*
X209584075Y-52671151D01*
X209490842Y-52883699D01*
X209433866Y-53108691D01*
X209433864Y-53108702D01*
X209414700Y-53339993D01*
X201613160Y-53339993D01*
X201610063Y-53304592D01*
X201548903Y-53076337D01*
X201449035Y-52862171D01*
X201410301Y-52806852D01*
X201313494Y-52668597D01*
X201146402Y-52501506D01*
X201146395Y-52501501D01*
X201135018Y-52493535D01*
X201107521Y-52474281D01*
X200952834Y-52365967D01*
X200952830Y-52365965D01*
X200897047Y-52339953D01*
X200738663Y-52266097D01*
X200738659Y-52266096D01*
X200738655Y-52266094D01*
X200510413Y-52204938D01*
X200510403Y-52204936D01*
X200275001Y-52184341D01*
X200274999Y-52184341D01*
X200039596Y-52204936D01*
X200039586Y-52204938D01*
X199811344Y-52266094D01*
X199811335Y-52266098D01*
X199597171Y-52365964D01*
X199597169Y-52365965D01*
X199403597Y-52501505D01*
X199236505Y-52668597D01*
X199100965Y-52862169D01*
X199100964Y-52862171D01*
X199001098Y-53076335D01*
X199001094Y-53076344D01*
X198939938Y-53304586D01*
X198939936Y-53304596D01*
X198919341Y-53539999D01*
X195504529Y-53539999D01*
X195496135Y-53438702D01*
X195496133Y-53438691D01*
X195439157Y-53213699D01*
X195345924Y-53001151D01*
X195218983Y-52806852D01*
X195218980Y-52806849D01*
X195218979Y-52806847D01*
X195061784Y-52636087D01*
X195061779Y-52636083D01*
X195061777Y-52636081D01*
X194878634Y-52493535D01*
X194878628Y-52493531D01*
X194674504Y-52383064D01*
X194674495Y-52383061D01*
X194454984Y-52307702D01*
X194256060Y-52274508D01*
X194226049Y-52269500D01*
X193993951Y-52269500D01*
X193963940Y-52274508D01*
X193765015Y-52307702D01*
X193545504Y-52383061D01*
X193545495Y-52383064D01*
X193341371Y-52493531D01*
X193341365Y-52493535D01*
X193158222Y-52636081D01*
X193158219Y-52636084D01*
X193158216Y-52636086D01*
X193158216Y-52636087D01*
X193111104Y-52687265D01*
X193001016Y-52806852D01*
X192874075Y-53001151D01*
X192780842Y-53213699D01*
X192723866Y-53438691D01*
X192723864Y-53438702D01*
X192704700Y-53669993D01*
X190065300Y-53669993D01*
X190046135Y-53438702D01*
X190046133Y-53438691D01*
X189989157Y-53213699D01*
X189895924Y-53001151D01*
X189768983Y-52806852D01*
X189768980Y-52806849D01*
X189768979Y-52806847D01*
X189611784Y-52636087D01*
X189611779Y-52636083D01*
X189611777Y-52636081D01*
X189428634Y-52493535D01*
X189428628Y-52493531D01*
X189224504Y-52383064D01*
X189224495Y-52383061D01*
X189004984Y-52307702D01*
X188806060Y-52274508D01*
X188776049Y-52269500D01*
X188543951Y-52269500D01*
X188513940Y-52274508D01*
X188315015Y-52307702D01*
X188095504Y-52383061D01*
X188095495Y-52383064D01*
X187891371Y-52493531D01*
X187891365Y-52493535D01*
X187708222Y-52636081D01*
X187708219Y-52636084D01*
X187708216Y-52636086D01*
X187708216Y-52636087D01*
X187661104Y-52687265D01*
X187551016Y-52806852D01*
X187424075Y-53001151D01*
X187330842Y-53213699D01*
X187273866Y-53438691D01*
X187273864Y-53438702D01*
X187254700Y-53669993D01*
X183839286Y-53669993D01*
X183850659Y-53540000D01*
X183830063Y-53304592D01*
X183768903Y-53076337D01*
X183669035Y-52862171D01*
X183630301Y-52806852D01*
X183533494Y-52668597D01*
X183366402Y-52501506D01*
X183366395Y-52501501D01*
X183355018Y-52493535D01*
X183327521Y-52474281D01*
X183172834Y-52365967D01*
X183172830Y-52365965D01*
X183117047Y-52339953D01*
X182958663Y-52266097D01*
X182958659Y-52266096D01*
X182958655Y-52266094D01*
X182730413Y-52204938D01*
X182730403Y-52204936D01*
X182495001Y-52184341D01*
X182494999Y-52184341D01*
X182259596Y-52204936D01*
X182259586Y-52204938D01*
X182031344Y-52266094D01*
X182031335Y-52266098D01*
X181817171Y-52365964D01*
X181817169Y-52365965D01*
X181623597Y-52501505D01*
X181456505Y-52668597D01*
X181320965Y-52862169D01*
X181320964Y-52862171D01*
X181221098Y-53076335D01*
X181221094Y-53076344D01*
X181159938Y-53304586D01*
X181159936Y-53304596D01*
X181139341Y-53539999D01*
X181139341Y-53540000D01*
X181159936Y-53775403D01*
X181159938Y-53775413D01*
X181221094Y-54003655D01*
X181221096Y-54003659D01*
X181221097Y-54003663D01*
X181278284Y-54126300D01*
X181320965Y-54217830D01*
X181320967Y-54217834D01*
X181456501Y-54411395D01*
X181456506Y-54411402D01*
X181623597Y-54578493D01*
X181623603Y-54578498D01*
X181809158Y-54708425D01*
X181852783Y-54763002D01*
X181859977Y-54832500D01*
X181828454Y-54894855D01*
X181809158Y-54911575D01*
X181623597Y-55041505D01*
X181456506Y-55208596D01*
X181320965Y-55402170D01*
X181320962Y-55402175D01*
X181318289Y-55407909D01*
X181272115Y-55460346D01*
X181205909Y-55479500D01*
X168140098Y-55479500D01*
X168073059Y-55459815D01*
X168052417Y-55443181D01*
X168008717Y-55399481D01*
X168008716Y-55399480D01*
X167921904Y-55349360D01*
X167921904Y-55349359D01*
X167921900Y-55349358D01*
X167871785Y-55320423D01*
X167719057Y-55279499D01*
X167560943Y-55279499D01*
X167453587Y-55308265D01*
X167408210Y-55320424D01*
X167408209Y-55320425D01*
X167358096Y-55349359D01*
X167358095Y-55349360D01*
X167316564Y-55373338D01*
X167271285Y-55399479D01*
X167271282Y-55399481D01*
X167159481Y-55511282D01*
X167159480Y-55511284D01*
X167123531Y-55573550D01*
X167080423Y-55648215D01*
X167039499Y-55800943D01*
X167039499Y-55800945D01*
X167039499Y-55969046D01*
X167039500Y-55969059D01*
X167039500Y-60235500D01*
X167019815Y-60302539D01*
X166967011Y-60348294D01*
X166915500Y-60359500D01*
X165179057Y-60359500D01*
X165020943Y-60359500D01*
X164868215Y-60400423D01*
X164868214Y-60400423D01*
X164868212Y-60400424D01*
X164868209Y-60400425D01*
X164818096Y-60429359D01*
X164818095Y-60429360D01*
X164776564Y-60453338D01*
X164747898Y-60469888D01*
X164685899Y-60486500D01*
X158665304Y-60486500D01*
X158598265Y-60466815D01*
X158563729Y-60433623D01*
X158450827Y-60272381D01*
X158413946Y-60235500D01*
X158294620Y-60116174D01*
X158294616Y-60116171D01*
X158294615Y-60116170D01*
X158113666Y-59989468D01*
X158113662Y-59989466D01*
X157984218Y-59929105D01*
X157931779Y-59882932D01*
X157912627Y-59815739D01*
X157932843Y-59748858D01*
X157984219Y-59704340D01*
X158113416Y-59644095D01*
X158113417Y-59644094D01*
X158178188Y-59598741D01*
X157507448Y-58928000D01*
X157530160Y-58928000D01*
X157627061Y-58902036D01*
X157713940Y-58851876D01*
X157784876Y-58780940D01*
X157835036Y-58694061D01*
X157861000Y-58597160D01*
X157861000Y-58574447D01*
X158531741Y-59245188D01*
X158577094Y-59180417D01*
X158577100Y-59180407D01*
X158670419Y-58980284D01*
X158670424Y-58980270D01*
X158727573Y-58766986D01*
X158727575Y-58766976D01*
X158746821Y-58547000D01*
X158746821Y-58546999D01*
X158727575Y-58327023D01*
X158727573Y-58327013D01*
X158670424Y-58113729D01*
X158670420Y-58113720D01*
X158577096Y-57913586D01*
X158531741Y-57848811D01*
X158531740Y-57848810D01*
X157861000Y-58519551D01*
X157861000Y-58496840D01*
X157835036Y-58399939D01*
X157784876Y-58313060D01*
X157713940Y-58242124D01*
X157627061Y-58191964D01*
X157530160Y-58166000D01*
X157507447Y-58166000D01*
X158178188Y-57495258D01*
X158113411Y-57449901D01*
X158113405Y-57449898D01*
X157984219Y-57389658D01*
X157931779Y-57343486D01*
X157912627Y-57276293D01*
X157932843Y-57209411D01*
X157984219Y-57164894D01*
X158113662Y-57104534D01*
X158294620Y-56977826D01*
X158450826Y-56821620D01*
X158577534Y-56640662D01*
X158670894Y-56440450D01*
X158728070Y-56227068D01*
X158747323Y-56007000D01*
X158728070Y-55786932D01*
X158670894Y-55573550D01*
X158577534Y-55373339D01*
X158462181Y-55208597D01*
X158450827Y-55192381D01*
X158450823Y-55192377D01*
X158294620Y-55036174D01*
X158294616Y-55036171D01*
X158294615Y-55036170D01*
X158113666Y-54909468D01*
X158113662Y-54909466D01*
X158082328Y-54894855D01*
X157913450Y-54816106D01*
X157913447Y-54816105D01*
X157913445Y-54816104D01*
X157700070Y-54758930D01*
X157700062Y-54758929D01*
X157480002Y-54739677D01*
X157479998Y-54739677D01*
X157259937Y-54758929D01*
X157259929Y-54758930D01*
X157046554Y-54816104D01*
X157046548Y-54816107D01*
X156846340Y-54909465D01*
X156846338Y-54909466D01*
X156665377Y-55036175D01*
X156509175Y-55192377D01*
X156382466Y-55373338D01*
X156382465Y-55373340D01*
X156332962Y-55479500D01*
X156289107Y-55573549D01*
X156289106Y-55573551D01*
X156231930Y-55786929D01*
X156231929Y-55786937D01*
X156212677Y-56006997D01*
X154940000Y-56006997D01*
X154940000Y-51424500D01*
X154959685Y-51357461D01*
X155012489Y-51311706D01*
X155064000Y-51300500D01*
X222895500Y-51300500D01*
X222962539Y-51320185D01*
G37*
%TD.AperFunction*%
%TD*%
M02*
