%TF.GenerationSoftware,KiCad,Pcbnew,8.0.9-1.fc41*%
%TF.CreationDate,2025-03-30T16:52:24-04:00*%
%TF.ProjectId,pico_env,7069636f-5f65-46e7-962e-6b696361645f,rev?*%
%TF.SameCoordinates,Original*%
%TF.FileFunction,Copper,L1,Top*%
%TF.FilePolarity,Positive*%
%FSLAX46Y46*%
G04 Gerber Fmt 4.6, Leading zero omitted, Abs format (unit mm)*
G04 Created by KiCad (PCBNEW 8.0.9-1.fc41) date 2025-03-30 16:52:24*
%MOMM*%
%LPD*%
G01*
G04 APERTURE LIST*
%TA.AperFunction,ComponentPad*%
%ADD10R,1.508000X1.508000*%
%TD*%
%TA.AperFunction,ComponentPad*%
%ADD11C,1.508000*%
%TD*%
%TA.AperFunction,ComponentPad*%
%ADD12C,1.600000*%
%TD*%
%TA.AperFunction,ComponentPad*%
%ADD13O,1.600000X1.600000*%
%TD*%
%TA.AperFunction,ComponentPad*%
%ADD14C,1.750000*%
%TD*%
%TA.AperFunction,ComponentPad*%
%ADD15O,1.700000X1.700000*%
%TD*%
%TA.AperFunction,ComponentPad*%
%ADD16R,1.700000X1.700000*%
%TD*%
%TA.AperFunction,ComponentPad*%
%ADD17R,1.800000X1.800000*%
%TD*%
%TA.AperFunction,ComponentPad*%
%ADD18C,1.800000*%
%TD*%
%TA.AperFunction,SMDPad,CuDef*%
%ADD19R,3.500000X1.700000*%
%TD*%
%TA.AperFunction,ComponentPad*%
%ADD20C,2.000000*%
%TD*%
%TA.AperFunction,ViaPad*%
%ADD21C,0.600000*%
%TD*%
%TA.AperFunction,Conductor*%
%ADD22C,0.500000*%
%TD*%
%TA.AperFunction,Conductor*%
%ADD23C,0.200000*%
%TD*%
G04 APERTURE END LIST*
D10*
%TO.P,RFID-RC522,1,SDA*%
%TO.N,/RFID_SDA*%
X142240000Y-111760000D03*
D11*
%TO.P,RFID-RC522,2,SCK*%
%TO.N,/RFID_SCK*%
X142240000Y-109220000D03*
%TO.P,RFID-RC522,3,MOSI*%
%TO.N,/MOSI*%
X142240000Y-106680000D03*
%TO.P,RFID-RC522,4,MISO*%
%TO.N,/MISO*%
X142240000Y-104140000D03*
%TO.P,RFID-RC522,5,IRQ*%
%TO.N,/RFID_IRQ*%
X142240000Y-101600000D03*
%TO.P,RFID-RC522,6,GND*%
%TO.N,GND*%
X142240000Y-99060000D03*
%TO.P,RFID-RC522,7,RST*%
%TO.N,/RFID_RST*%
X142240000Y-96520000D03*
%TO.P,RFID-RC522,8,3V3*%
%TO.N,+3.3V*%
X142240000Y-93980000D03*
%TD*%
D12*
%TO.P,R3,1*%
%TO.N,Net-(D3-K)*%
X220980000Y-99060000D03*
D13*
%TO.P,R3,2*%
%TO.N,GND*%
X220980000Y-109220000D03*
%TD*%
D12*
%TO.P,R1,1*%
%TO.N,Net-(D1-K)*%
X220980000Y-78740000D03*
D13*
%TO.P,R1,2*%
%TO.N,GND*%
X220980000Y-68580000D03*
%TD*%
D12*
%TO.P,C1,1*%
%TO.N,+3.3V*%
X210860000Y-104140000D03*
%TO.P,C1,2*%
%TO.N,GND*%
X213360000Y-104140000D03*
%TD*%
D14*
%TO.P,GY-BME/BMP1,1,Vin3.3*%
%TO.N,+3.3V*%
X157480000Y-88646000D03*
%TO.P,GY-BME/BMP1,2,GND*%
%TO.N,GND*%
X157480000Y-86106000D03*
%TO.P,GY-BME/BMP1,3,SCL*%
%TO.N,/SCL*%
X157480000Y-83566000D03*
%TO.P,GY-BME/BMP1,4,SDA*%
%TO.N,/SDA*%
X157480000Y-81026000D03*
%TO.P,GY-BME/BMP1,5,CSB*%
%TO.N,+3.3V*%
X157480000Y-78486000D03*
%TO.P,GY-BME/BMP1,6,SDO*%
%TO.N,GND*%
X157480000Y-75946000D03*
%TD*%
D15*
%TO.P,SSD1,1,SDA*%
%TO.N,/SDA*%
X165100000Y-99060000D03*
%TO.P,SSD1,2,SCL*%
%TO.N,/SCL*%
X167640000Y-99060000D03*
%TO.P,SSD1,3,VCC*%
%TO.N,+3.3V*%
X170180000Y-99060000D03*
D16*
%TO.P,SSD1,4,GND*%
%TO.N,GND*%
X172720000Y-99060000D03*
%TD*%
D12*
%TO.P,R4,1*%
%TO.N,Net-(D4-K)*%
X220980000Y-53340000D03*
D13*
%TO.P,R4,2*%
%TO.N,GND*%
X220980000Y-63500000D03*
%TD*%
D17*
%TO.P,D1,1,K*%
%TO.N,Net-(D1-K)*%
X213360000Y-76200000D03*
D18*
%TO.P,D1,2,A*%
%TO.N,Net-(D1-A)*%
X210820000Y-76200000D03*
%TD*%
D17*
%TO.P,D2,1,K*%
%TO.N,Net-(D2-K)*%
X213360000Y-86360000D03*
D18*
%TO.P,D2,2,A*%
%TO.N,Net-(D2-A)*%
X210820000Y-86360000D03*
%TD*%
D17*
%TO.P,D3,1,K*%
%TO.N,Net-(D3-K)*%
X213360000Y-96520000D03*
D18*
%TO.P,D3,2,A*%
%TO.N,Net-(D3-A)*%
X210820000Y-96520000D03*
%TD*%
D15*
%TO.P,U1,1,GPIO0*%
%TO.N,/SDA*%
X182495000Y-53540000D03*
D19*
X181595000Y-53540000D03*
D15*
%TO.P,U1,2,GPIO1*%
%TO.N,/SCL*%
X182495000Y-56080000D03*
D19*
X181595000Y-56080000D03*
D16*
%TO.P,U1,3,GND*%
%TO.N,GND*%
X182495000Y-58620000D03*
D19*
X181595000Y-58620000D03*
D15*
%TO.P,U1,4,GPIO2*%
%TO.N,unconnected-(U1-GPIO2-Pad4)*%
X182495000Y-61160000D03*
D19*
X181595000Y-61160000D03*
D15*
%TO.P,U1,5,GPIO3*%
%TO.N,unconnected-(U1-GPIO3-Pad5)*%
X182495000Y-63700000D03*
D19*
X181595000Y-63700000D03*
D15*
%TO.P,U1,6,GPIO4*%
%TO.N,/MISO*%
X182495000Y-66240000D03*
D19*
X181595000Y-66240000D03*
D15*
%TO.P,U1,7,GPIO5*%
%TO.N,/RFID_SDA*%
X182495000Y-68780000D03*
D19*
X181595000Y-68780000D03*
D16*
%TO.P,U1,8,GND*%
%TO.N,GND*%
X182495000Y-71320000D03*
D19*
X181595000Y-71320000D03*
D15*
%TO.P,U1,9,GPIO6*%
%TO.N,/RFID_SCK*%
X182495000Y-73860000D03*
D19*
X181595000Y-73860000D03*
D15*
%TO.P,U1,10,GPIO7*%
%TO.N,/MOSI*%
X182495000Y-76400000D03*
D19*
X181595000Y-76400000D03*
D15*
%TO.P,U1,11,GPIO8*%
%TO.N,unconnected-(U1-GPIO8-Pad11)*%
X182495000Y-78940000D03*
D19*
X181595000Y-78940000D03*
D15*
%TO.P,U1,12,GPIO9*%
%TO.N,unconnected-(U1-GPIO9-Pad12)*%
X182495000Y-81480000D03*
D19*
X181595000Y-81480000D03*
D16*
%TO.P,U1,13,GND*%
%TO.N,unconnected-(U1-GND-Pad13)*%
X182495000Y-84020000D03*
D19*
X181595000Y-84020000D03*
D15*
%TO.P,U1,14,GPIO10*%
%TO.N,unconnected-(U1-GPIO10-Pad14)*%
X182495000Y-86560000D03*
D19*
X181595000Y-86560000D03*
D15*
%TO.P,U1,15,GPIO11*%
%TO.N,unconnected-(U1-GPIO11-Pad15)*%
X182495000Y-89100000D03*
D19*
X181595000Y-89100000D03*
D15*
%TO.P,U1,16,GPIO12*%
%TO.N,unconnected-(U1-GPIO12-Pad16)*%
X182495000Y-91640000D03*
D19*
X181595000Y-91640000D03*
D15*
%TO.P,U1,17,GPIO13*%
%TO.N,unconnected-(U1-GPIO13-Pad17)*%
X182495000Y-94180000D03*
D19*
X181595000Y-94180000D03*
D16*
%TO.P,U1,18,GND*%
%TO.N,GND*%
X182495000Y-96720000D03*
D19*
X181595000Y-96720000D03*
D15*
%TO.P,U1,19,GPIO14*%
%TO.N,Net-(U1-GPIO14)*%
X182495000Y-99260000D03*
D19*
X181595000Y-99260000D03*
D15*
%TO.P,U1,20,GPIO15*%
%TO.N,Net-(U1-GPIO15)*%
X182495000Y-101800000D03*
D19*
X181595000Y-101800000D03*
D15*
%TO.P,U1,21,GPIO16*%
%TO.N,/RFID_IRQ*%
X200275000Y-101800000D03*
D19*
X201175000Y-101800000D03*
D15*
%TO.P,U1,22,GPIO17*%
%TO.N,unconnected-(U1-GPIO17-Pad22)*%
X200275000Y-99260000D03*
D19*
X201175000Y-99260000D03*
D16*
%TO.P,U1,23,GND*%
%TO.N,unconnected-(U1-GND-Pad23)*%
X200275000Y-96720000D03*
D19*
X201175000Y-96720000D03*
D15*
%TO.P,U1,24,GPIO18*%
%TO.N,unconnected-(U1-GPIO18-Pad24)*%
X200275000Y-94180000D03*
D19*
X201175000Y-94180000D03*
D15*
%TO.P,U1,25,GPIO19*%
%TO.N,Net-(D3-A)*%
X200275000Y-91640000D03*
D19*
X201175000Y-91640000D03*
D15*
%TO.P,U1,26,GPIO20*%
%TO.N,Net-(D2-A)*%
X200275000Y-89100000D03*
D19*
X201175000Y-89100000D03*
D15*
%TO.P,U1,27,GPIO21*%
%TO.N,Net-(D1-A)*%
X200275000Y-86560000D03*
D19*
X201175000Y-86560000D03*
D16*
%TO.P,U1,28,GND*%
%TO.N,GND*%
X200275000Y-84020000D03*
D19*
X201175000Y-84020000D03*
D15*
%TO.P,U1,29,GPIO22*%
%TO.N,/RFID_RST*%
X200275000Y-81480000D03*
D19*
X201175000Y-81480000D03*
D15*
%TO.P,U1,30,RUN*%
%TO.N,Net-(U1-RUN)*%
X200275000Y-78940000D03*
D19*
X201175000Y-78940000D03*
D15*
%TO.P,U1,31,GPIO26_ADC0*%
%TO.N,unconnected-(U1-GPIO26_ADC0-Pad31)*%
X200275000Y-76400000D03*
D19*
X201175000Y-76400000D03*
D15*
%TO.P,U1,32,GPIO27_ADC1*%
%TO.N,unconnected-(U1-GPIO27_ADC1-Pad32)*%
X200275000Y-73860000D03*
D19*
X201175000Y-73860000D03*
D16*
%TO.P,U1,33,AGND*%
%TO.N,unconnected-(U1-AGND-Pad33)*%
X200275000Y-71320000D03*
D19*
X201175000Y-71320000D03*
D15*
%TO.P,U1,34,GPIO28_ADC2*%
%TO.N,unconnected-(U1-GPIO28_ADC2-Pad34)*%
X200275000Y-68780000D03*
D19*
X201175000Y-68780000D03*
D15*
%TO.P,U1,35,ADC_VREF*%
%TO.N,unconnected-(U1-ADC_VREF-Pad35)*%
X200275000Y-66240000D03*
D19*
X201175000Y-66240000D03*
D15*
%TO.P,U1,36,3V3*%
%TO.N,+3.3V*%
X200275000Y-63700000D03*
D19*
X201175000Y-63700000D03*
D15*
%TO.P,U1,37,3V3_EN*%
%TO.N,unconnected-(U1-3V3_EN-Pad37)*%
X200275000Y-61160000D03*
D19*
X201175000Y-61160000D03*
D16*
%TO.P,U1,38,GND*%
%TO.N,GND*%
X200275000Y-58620000D03*
D19*
X201175000Y-58620000D03*
D15*
%TO.P,U1,39,VSYS*%
%TO.N,unconnected-(U1-VSYS-Pad39)*%
X200275000Y-56080000D03*
D19*
X201175000Y-56080000D03*
D15*
%TO.P,U1,40,VBUS*%
%TO.N,unconnected-(U1-VBUS-Pad40)*%
X200275000Y-53540000D03*
D19*
X201175000Y-53540000D03*
%TD*%
D17*
%TO.P,D4,1,K*%
%TO.N,Net-(D4-K)*%
X213360000Y-53340000D03*
D18*
%TO.P,D4,2,A*%
%TO.N,+3.3V*%
X210820000Y-53340000D03*
%TD*%
D20*
%TO.P,Reset,1,1*%
%TO.N,Net-(U1-RUN)*%
X217170000Y-68000000D03*
X210670000Y-68000000D03*
%TO.P,Reset,2,2*%
%TO.N,GND*%
X217170000Y-63500000D03*
X210670000Y-63500000D03*
%TD*%
D12*
%TO.P,R2,1*%
%TO.N,GND*%
X220980000Y-93980000D03*
D13*
%TO.P,R2,2*%
%TO.N,Net-(D2-K)*%
X220980000Y-83820000D03*
%TD*%
D20*
%TO.P,SW2,1,1*%
%TO.N,GND*%
X202080000Y-113720000D03*
X195580000Y-113720000D03*
%TO.P,SW2,2,2*%
%TO.N,Net-(U1-GPIO14)*%
X202080000Y-109220000D03*
X195580000Y-109220000D03*
%TD*%
D14*
%TO.P,U2,1,ADDR*%
%TO.N,unconnected-(U2-ADDR-Pad1)*%
X157480000Y-66167000D03*
%TO.P,U2,2,SDA*%
%TO.N,/SDA*%
X157480000Y-63627000D03*
%TO.P,U2,3,SCL*%
%TO.N,/SCL*%
X157480000Y-61087000D03*
%TO.P,U2,4,GND*%
%TO.N,GND*%
X157480000Y-58547000D03*
%TO.P,U2,5,VCC*%
%TO.N,+3.3V*%
X157480000Y-56007000D03*
%TD*%
D20*
%TO.P,SW3,1,1*%
%TO.N,GND*%
X187960000Y-113720000D03*
X181460000Y-113720000D03*
%TO.P,SW3,2,2*%
%TO.N,Net-(U1-GPIO15)*%
X187960000Y-109220000D03*
X181460000Y-109220000D03*
%TD*%
D21*
%TO.N,+3.3V*%
X163830000Y-91440000D03*
X166370000Y-91440000D03*
%TO.N,/MOSI*%
X161925000Y-106680000D03*
X169545000Y-106680000D03*
%TO.N,/RFID_SCK*%
X165735000Y-109220000D03*
X161925000Y-109220000D03*
%TD*%
D22*
%TO.N,Net-(D1-K)*%
X217170000Y-78740000D02*
X220980000Y-78740000D01*
X214630000Y-77470000D02*
X215900000Y-77470000D01*
X213360000Y-76200000D02*
X214630000Y-77470000D01*
X215900000Y-77470000D02*
X217170000Y-78740000D01*
%TO.N,Net-(D1-A)*%
X204270000Y-86560000D02*
X200275000Y-86560000D01*
X210820000Y-76200000D02*
X210820000Y-81280000D01*
X207010000Y-83820000D02*
X204270000Y-86560000D01*
X210820000Y-81280000D02*
X208280000Y-83820000D01*
X208280000Y-83820000D02*
X207010000Y-83820000D01*
%TO.N,Net-(D2-K)*%
X213360000Y-86360000D02*
X213360000Y-83820000D01*
X213360000Y-83820000D02*
X220980000Y-83820000D01*
%TO.N,Net-(D2-A)*%
X210620000Y-89100000D02*
X200275000Y-89100000D01*
X210820000Y-88900000D02*
X210620000Y-89100000D01*
X210820000Y-86360000D02*
X210820000Y-88900000D01*
%TO.N,Net-(D3-K)*%
X213360000Y-96520000D02*
X213360000Y-99060000D01*
X213360000Y-99060000D02*
X220980000Y-99060000D01*
%TO.N,Net-(D3-A)*%
X210820000Y-96520000D02*
X205940000Y-91640000D01*
X205940000Y-91640000D02*
X200275000Y-91640000D01*
%TO.N,Net-(D4-K)*%
X213360000Y-53340000D02*
X220980000Y-53340000D01*
%TO.N,+3.3V*%
X205740000Y-58420000D02*
X205740000Y-63500000D01*
X210820000Y-53340000D02*
X205740000Y-58420000D01*
X205540000Y-63700000D02*
X200275000Y-63700000D01*
X205740000Y-63500000D02*
X205540000Y-63700000D01*
D23*
%TO.N,/SDA*%
X165100000Y-81280000D02*
X165100000Y-99060000D01*
X165100000Y-63627000D02*
X157480000Y-63627000D01*
X164846000Y-81026000D02*
X165100000Y-81280000D01*
X157480000Y-81026000D02*
X164846000Y-81026000D01*
X172720000Y-63500000D02*
X170180000Y-63500000D01*
X170053000Y-63627000D02*
X165100000Y-63627000D01*
X182495000Y-53540000D02*
X175060000Y-53540000D01*
X165100000Y-63627000D02*
X165100000Y-81280000D01*
X175060000Y-53540000D02*
X172720000Y-55880000D01*
X170180000Y-63500000D02*
X170053000Y-63627000D01*
X172720000Y-55880000D02*
X172720000Y-63500000D01*
%TO.N,Net-(U1-RUN)*%
X205740000Y-73660000D02*
X205740000Y-78740000D01*
X210670000Y-68730000D02*
X205740000Y-73660000D01*
X205540000Y-78940000D02*
X200275000Y-78940000D01*
X205740000Y-78740000D02*
X205540000Y-78940000D01*
X210670000Y-68000000D02*
X217170000Y-68000000D01*
%TO.N,Net-(U1-GPIO14)*%
X185420000Y-99060000D02*
X182695000Y-99060000D01*
X182695000Y-99060000D02*
X182495000Y-99260000D01*
X185420000Y-106680000D02*
X185420000Y-99060000D01*
X193040000Y-106680000D02*
X185420000Y-106680000D01*
X195580000Y-109220000D02*
X193040000Y-106680000D01*
X195580000Y-109220000D02*
X202080000Y-109220000D01*
%TO.N,Net-(U1-GPIO15)*%
X181460000Y-109220000D02*
X187960000Y-109220000D01*
X177800000Y-101600000D02*
X180340000Y-101600000D01*
X180340000Y-101600000D02*
X180540000Y-101800000D01*
X180540000Y-101800000D02*
X182495000Y-101800000D01*
X177800000Y-109220000D02*
X177800000Y-101600000D01*
X181460000Y-109220000D02*
X177800000Y-109220000D01*
%TO.N,/MISO*%
X174425000Y-66240000D02*
X173990000Y-66675000D01*
X162560000Y-103505000D02*
X162560000Y-104140000D01*
X173990000Y-66675000D02*
X173990000Y-103505000D01*
X173990000Y-103505000D02*
X162560000Y-103505000D01*
X162560000Y-104140000D02*
X142240000Y-104140000D01*
X182495000Y-66240000D02*
X174425000Y-66240000D01*
%TO.N,/RFID_SDA*%
X174625000Y-103505000D02*
X173990000Y-104140000D01*
X163830000Y-111125000D02*
X163195000Y-111760000D01*
X163195000Y-111760000D02*
X142240000Y-111760000D01*
X174625000Y-68580000D02*
X174625000Y-103505000D01*
X173990000Y-104140000D02*
X163830000Y-104140000D01*
X174825000Y-68780000D02*
X174625000Y-68580000D01*
X182495000Y-68780000D02*
X174825000Y-68780000D01*
X163830000Y-104140000D02*
X163830000Y-111125000D01*
%TO.N,/MOSI*%
X175895000Y-106045000D02*
X175260000Y-106680000D01*
X175260000Y-106680000D02*
X169545000Y-106680000D01*
X176330000Y-76400000D02*
X175895000Y-76835000D01*
X182495000Y-76400000D02*
X176330000Y-76400000D01*
X142240000Y-106680000D02*
X161925000Y-106680000D01*
X175895000Y-76835000D02*
X175895000Y-106045000D01*
%TO.N,/RFID_SCK*%
X175260000Y-104140000D02*
X175260000Y-73660000D01*
X168275000Y-106680000D02*
X168275000Y-104775000D01*
X174625000Y-104775000D02*
X175260000Y-104140000D01*
X165735000Y-109220000D02*
X168275000Y-106680000D01*
X175260000Y-73660000D02*
X175460000Y-73860000D01*
X175460000Y-73860000D02*
X182495000Y-73860000D01*
X168275000Y-104775000D02*
X174625000Y-104775000D01*
X142240000Y-109220000D02*
X161925000Y-109220000D01*
%TD*%
%TA.AperFunction,Conductor*%
%TO.N,+3.3V*%
G36*
X179287540Y-54160185D02*
G01*
X179333295Y-54212989D01*
X179344501Y-54264500D01*
X179344501Y-54437876D01*
X179350908Y-54497483D01*
X179401202Y-54632328D01*
X179401203Y-54632330D01*
X179478578Y-54735689D01*
X179502995Y-54801153D01*
X179488144Y-54869426D01*
X179478578Y-54884311D01*
X179401203Y-54987669D01*
X179401202Y-54987671D01*
X179350908Y-55122517D01*
X179344501Y-55182116D01*
X179344501Y-55182123D01*
X179344500Y-55182135D01*
X179344500Y-56977870D01*
X179344501Y-56977876D01*
X179350908Y-57037483D01*
X179401202Y-57172328D01*
X179401203Y-57172330D01*
X179478578Y-57275689D01*
X179502995Y-57341153D01*
X179488144Y-57409426D01*
X179478578Y-57424311D01*
X179401203Y-57527669D01*
X179401202Y-57527671D01*
X179350908Y-57662517D01*
X179344501Y-57722116D01*
X179344501Y-57722123D01*
X179344500Y-57722135D01*
X179344500Y-59517870D01*
X179344501Y-59517876D01*
X179350908Y-59577483D01*
X179401202Y-59712328D01*
X179401203Y-59712330D01*
X179478578Y-59815689D01*
X179502995Y-59881153D01*
X179488144Y-59949426D01*
X179478578Y-59964311D01*
X179401203Y-60067669D01*
X179401202Y-60067671D01*
X179350908Y-60202517D01*
X179344501Y-60262116D01*
X179344501Y-60262123D01*
X179344500Y-60262135D01*
X179344500Y-62057870D01*
X179344501Y-62057876D01*
X179350908Y-62117483D01*
X179401202Y-62252328D01*
X179401203Y-62252330D01*
X179478578Y-62355689D01*
X179502995Y-62421153D01*
X179488144Y-62489426D01*
X179478578Y-62504309D01*
X179478265Y-62504729D01*
X179401203Y-62607669D01*
X179401202Y-62607671D01*
X179350908Y-62742517D01*
X179346514Y-62783393D01*
X179344501Y-62802123D01*
X179344500Y-62802135D01*
X179344500Y-64597870D01*
X179344501Y-64597876D01*
X179350908Y-64657483D01*
X179401202Y-64792328D01*
X179401203Y-64792330D01*
X179478578Y-64895689D01*
X179502995Y-64961153D01*
X179488144Y-65029426D01*
X179478578Y-65044311D01*
X179401203Y-65147669D01*
X179401202Y-65147671D01*
X179350908Y-65282517D01*
X179344501Y-65342116D01*
X179344501Y-65342123D01*
X179344500Y-65342135D01*
X179344500Y-65515500D01*
X179324815Y-65582539D01*
X179272011Y-65628294D01*
X179220500Y-65639500D01*
X174511669Y-65639500D01*
X174511653Y-65639499D01*
X174504057Y-65639499D01*
X174345943Y-65639499D01*
X174238587Y-65668265D01*
X174193210Y-65680424D01*
X174193209Y-65680425D01*
X174143096Y-65709359D01*
X174143095Y-65709360D01*
X174099689Y-65734420D01*
X174056285Y-65759479D01*
X174056282Y-65759481D01*
X173509481Y-66306282D01*
X173509479Y-66306285D01*
X173459361Y-66393094D01*
X173459359Y-66393096D01*
X173430425Y-66443209D01*
X173430424Y-66443210D01*
X173430423Y-66443215D01*
X173389499Y-66595943D01*
X173389499Y-66595945D01*
X173389499Y-66764046D01*
X173389500Y-66764059D01*
X173389500Y-97585500D01*
X173369815Y-97652539D01*
X173317011Y-97698294D01*
X173265500Y-97709500D01*
X171822129Y-97709500D01*
X171822123Y-97709501D01*
X171762516Y-97715908D01*
X171627671Y-97766202D01*
X171627664Y-97766206D01*
X171512455Y-97852452D01*
X171512452Y-97852455D01*
X171426206Y-97967664D01*
X171426202Y-97967671D01*
X171376997Y-98099598D01*
X171335126Y-98155532D01*
X171269661Y-98179949D01*
X171201388Y-98165097D01*
X171173134Y-98143946D01*
X171051082Y-98021894D01*
X170857578Y-97886399D01*
X170643492Y-97786570D01*
X170643486Y-97786567D01*
X170430000Y-97729364D01*
X170430000Y-98626988D01*
X170372993Y-98594075D01*
X170245826Y-98560000D01*
X170114174Y-98560000D01*
X169987007Y-98594075D01*
X169930000Y-98626988D01*
X169930000Y-97729364D01*
X169929999Y-97729364D01*
X169716513Y-97786567D01*
X169716507Y-97786570D01*
X169502422Y-97886399D01*
X169502420Y-97886400D01*
X169308926Y-98021886D01*
X169308920Y-98021891D01*
X169141891Y-98188920D01*
X169141890Y-98188922D01*
X169011880Y-98374595D01*
X168957303Y-98418219D01*
X168887804Y-98425412D01*
X168825450Y-98393890D01*
X168808730Y-98374594D01*
X168678494Y-98188597D01*
X168511402Y-98021506D01*
X168511395Y-98021501D01*
X168317834Y-97885967D01*
X168317830Y-97885965D01*
X168297860Y-97876653D01*
X168103663Y-97786097D01*
X168103659Y-97786096D01*
X168103655Y-97786094D01*
X167875413Y-97724938D01*
X167875403Y-97724936D01*
X167640001Y-97704341D01*
X167639999Y-97704341D01*
X167404596Y-97724936D01*
X167404586Y-97724938D01*
X167176344Y-97786094D01*
X167176335Y-97786098D01*
X166962171Y-97885964D01*
X166962169Y-97885965D01*
X166768597Y-98021505D01*
X166601505Y-98188597D01*
X166471575Y-98374158D01*
X166416998Y-98417783D01*
X166347500Y-98424977D01*
X166285145Y-98393454D01*
X166268425Y-98374158D01*
X166138494Y-98188597D01*
X165971402Y-98021506D01*
X165971395Y-98021501D01*
X165777831Y-97885965D01*
X165777826Y-97885962D01*
X165772091Y-97883288D01*
X165719653Y-97837113D01*
X165700500Y-97770908D01*
X165700500Y-64351500D01*
X165720185Y-64284461D01*
X165772989Y-64238706D01*
X165824500Y-64227500D01*
X169966331Y-64227500D01*
X169966347Y-64227501D01*
X169973943Y-64227501D01*
X170132054Y-64227501D01*
X170132057Y-64227501D01*
X170284785Y-64186577D01*
X170343402Y-64152734D01*
X170405104Y-64117111D01*
X170467101Y-64100500D01*
X172799055Y-64100500D01*
X172799057Y-64100500D01*
X172951784Y-64059577D01*
X173088716Y-63980520D01*
X173200520Y-63868716D01*
X173279577Y-63731784D01*
X173320500Y-63579057D01*
X173320500Y-56180097D01*
X173340185Y-56113058D01*
X173356819Y-56092416D01*
X175272417Y-54176819D01*
X175333740Y-54143334D01*
X175360098Y-54140500D01*
X179220501Y-54140500D01*
X179287540Y-54160185D01*
G37*
%TD.AperFunction*%
%TA.AperFunction,Conductor*%
G36*
X222962539Y-51320185D02*
G01*
X223008294Y-51372989D01*
X223019500Y-51424500D01*
X223019500Y-114176000D01*
X222999815Y-114243039D01*
X222947011Y-114288794D01*
X222895500Y-114300000D01*
X217874500Y-114300000D01*
X217807461Y-114280315D01*
X217761706Y-114227511D01*
X217751954Y-114182685D01*
X217750766Y-114182763D01*
X217750500Y-114178717D01*
X217750500Y-114178712D01*
X217718838Y-113938211D01*
X217656054Y-113703900D01*
X217563224Y-113479788D01*
X217441936Y-113269711D01*
X217294265Y-113077262D01*
X217294260Y-113077256D01*
X217122743Y-112905739D01*
X217122736Y-112905733D01*
X216930293Y-112758067D01*
X216930292Y-112758066D01*
X216930289Y-112758064D01*
X216720212Y-112636776D01*
X216720205Y-112636773D01*
X216496104Y-112543947D01*
X216261785Y-112481161D01*
X216021289Y-112449500D01*
X216021288Y-112449500D01*
X215778712Y-112449500D01*
X215778711Y-112449500D01*
X215538214Y-112481161D01*
X215303895Y-112543947D01*
X215079794Y-112636773D01*
X215079785Y-112636777D01*
X214869706Y-112758067D01*
X214677263Y-112905733D01*
X214677256Y-112905739D01*
X214505739Y-113077256D01*
X214505733Y-113077263D01*
X214358067Y-113269706D01*
X214236777Y-113479785D01*
X214236773Y-113479794D01*
X214143947Y-113703895D01*
X214081161Y-113938214D01*
X214049499Y-114178717D01*
X214049234Y-114182763D01*
X214047546Y-114182652D01*
X214029815Y-114243039D01*
X213977011Y-114288794D01*
X213925500Y-114300000D01*
X203640304Y-114300000D01*
X203573265Y-114280315D01*
X203527510Y-114227511D01*
X203517566Y-114158353D01*
X203520098Y-114145559D01*
X203565108Y-113967821D01*
X203565109Y-113967812D01*
X203585643Y-113720005D01*
X203585643Y-113719994D01*
X203565109Y-113472187D01*
X203565107Y-113472175D01*
X203504063Y-113231118D01*
X203404173Y-113003393D01*
X203268166Y-112795217D01*
X203232366Y-112756328D01*
X203099744Y-112612262D01*
X202903509Y-112459526D01*
X202903507Y-112459525D01*
X202903506Y-112459524D01*
X202684811Y-112341172D01*
X202684802Y-112341169D01*
X202449616Y-112260429D01*
X202204335Y-112219500D01*
X201955665Y-112219500D01*
X201710383Y-112260429D01*
X201475197Y-112341169D01*
X201475188Y-112341172D01*
X201256493Y-112459524D01*
X201060257Y-112612261D01*
X200891833Y-112795217D01*
X200755826Y-113003393D01*
X200655936Y-113231118D01*
X200594892Y-113472175D01*
X200594890Y-113472187D01*
X200574357Y-113719994D01*
X200574357Y-113720005D01*
X200594890Y-113967812D01*
X200594892Y-113967821D01*
X200639902Y-114145559D01*
X200637277Y-114215380D01*
X200597321Y-114272697D01*
X200532720Y-114299314D01*
X200519696Y-114300000D01*
X197140304Y-114300000D01*
X197073265Y-114280315D01*
X197027510Y-114227511D01*
X197017566Y-114158353D01*
X197020098Y-114145559D01*
X197065108Y-113967821D01*
X197065109Y-113967812D01*
X197085643Y-113720005D01*
X197085643Y-113719994D01*
X197065109Y-113472187D01*
X197065107Y-113472175D01*
X197004063Y-113231118D01*
X196904173Y-113003393D01*
X196768166Y-112795217D01*
X196732366Y-112756328D01*
X196599744Y-112612262D01*
X196403509Y-112459526D01*
X196403507Y-112459525D01*
X196403506Y-112459524D01*
X196184811Y-112341172D01*
X196184802Y-112341169D01*
X195949616Y-112260429D01*
X195704335Y-112219500D01*
X195455665Y-112219500D01*
X195210383Y-112260429D01*
X194975197Y-112341169D01*
X194975188Y-112341172D01*
X194756493Y-112459524D01*
X194560257Y-112612261D01*
X194391833Y-112795217D01*
X194255826Y-113003393D01*
X194155936Y-113231118D01*
X194094892Y-113472175D01*
X194094890Y-113472187D01*
X194074357Y-113719994D01*
X194074357Y-113720005D01*
X194094890Y-113967812D01*
X194094892Y-113967821D01*
X194139902Y-114145559D01*
X194137277Y-114215380D01*
X194097321Y-114272697D01*
X194032720Y-114299314D01*
X194019696Y-114300000D01*
X189520304Y-114300000D01*
X189453265Y-114280315D01*
X189407510Y-114227511D01*
X189397566Y-114158353D01*
X189400098Y-114145559D01*
X189445108Y-113967821D01*
X189445109Y-113967812D01*
X189465643Y-113720005D01*
X189465643Y-113719994D01*
X189445109Y-113472187D01*
X189445107Y-113472175D01*
X189384063Y-113231118D01*
X189284173Y-113003393D01*
X189148166Y-112795217D01*
X189112366Y-112756328D01*
X188979744Y-112612262D01*
X188783509Y-112459526D01*
X188783507Y-112459525D01*
X188783506Y-112459524D01*
X188564811Y-112341172D01*
X188564802Y-112341169D01*
X188329616Y-112260429D01*
X188084335Y-112219500D01*
X187835665Y-112219500D01*
X187590383Y-112260429D01*
X187355197Y-112341169D01*
X187355188Y-112341172D01*
X187136493Y-112459524D01*
X186940257Y-112612261D01*
X186771833Y-112795217D01*
X186635826Y-113003393D01*
X186535936Y-113231118D01*
X186474892Y-113472175D01*
X186474890Y-113472187D01*
X186454357Y-113719994D01*
X186454357Y-113720005D01*
X186474890Y-113967812D01*
X186474892Y-113967821D01*
X186519902Y-114145559D01*
X186517277Y-114215380D01*
X186477321Y-114272697D01*
X186412720Y-114299314D01*
X186399696Y-114300000D01*
X183020304Y-114300000D01*
X182953265Y-114280315D01*
X182907510Y-114227511D01*
X182897566Y-114158353D01*
X182900098Y-114145559D01*
X182945108Y-113967821D01*
X182945109Y-113967812D01*
X182965643Y-113720005D01*
X182965643Y-113719994D01*
X182945109Y-113472187D01*
X182945107Y-113472175D01*
X182884063Y-113231118D01*
X182784173Y-113003393D01*
X182648166Y-112795217D01*
X182612366Y-112756328D01*
X182479744Y-112612262D01*
X182283509Y-112459526D01*
X182283507Y-112459525D01*
X182283506Y-112459524D01*
X182064811Y-112341172D01*
X182064802Y-112341169D01*
X181829616Y-112260429D01*
X181584335Y-112219500D01*
X181335665Y-112219500D01*
X181090383Y-112260429D01*
X180855197Y-112341169D01*
X180855188Y-112341172D01*
X180636493Y-112459524D01*
X180440257Y-112612261D01*
X180271833Y-112795217D01*
X180135826Y-113003393D01*
X180035936Y-113231118D01*
X179974892Y-113472175D01*
X179974890Y-113472187D01*
X179954357Y-113719994D01*
X179954357Y-113720005D01*
X179974890Y-113967812D01*
X179974892Y-113967821D01*
X180019902Y-114145559D01*
X180017277Y-114215380D01*
X179977321Y-114272697D01*
X179912720Y-114299314D01*
X179899696Y-114300000D01*
X140324500Y-114300000D01*
X140257461Y-114280315D01*
X140211706Y-114227511D01*
X140200500Y-114176000D01*
X140200500Y-96519997D01*
X140980708Y-96519997D01*
X140980708Y-96520002D01*
X140999838Y-96738668D01*
X140999839Y-96738675D01*
X141003224Y-96751308D01*
X141056653Y-96950703D01*
X141056654Y-96950706D01*
X141056655Y-96950708D01*
X141149419Y-97149642D01*
X141149423Y-97149650D01*
X141275322Y-97329452D01*
X141275327Y-97329458D01*
X141430541Y-97484672D01*
X141430547Y-97484677D01*
X141610349Y-97610576D01*
X141610351Y-97610577D01*
X141610354Y-97610579D01*
X141626003Y-97617876D01*
X141754120Y-97677618D01*
X141806560Y-97723790D01*
X141825712Y-97790983D01*
X141805496Y-97857865D01*
X141754120Y-97902382D01*
X141610357Y-97969419D01*
X141610349Y-97969423D01*
X141430547Y-98095322D01*
X141430541Y-98095327D01*
X141275327Y-98250541D01*
X141275322Y-98250547D01*
X141149423Y-98430349D01*
X141149419Y-98430357D01*
X141056655Y-98629291D01*
X140999839Y-98841324D01*
X140999838Y-98841331D01*
X140980708Y-99059997D01*
X140980708Y-99060002D01*
X140999838Y-99278668D01*
X140999839Y-99278675D01*
X141004323Y-99295408D01*
X141056653Y-99490703D01*
X141056654Y-99490706D01*
X141056655Y-99490708D01*
X141149419Y-99689642D01*
X141149423Y-99689650D01*
X141275322Y-99869452D01*
X141275327Y-99869458D01*
X141430541Y-100024672D01*
X141430547Y-100024677D01*
X141610349Y-100150576D01*
X141610351Y-100150577D01*
X141610354Y-100150579D01*
X141626003Y-100157876D01*
X141754120Y-100217618D01*
X141806560Y-100263790D01*
X141825712Y-100330983D01*
X141805496Y-100397865D01*
X141754120Y-100442382D01*
X141610357Y-100509419D01*
X141610349Y-100509423D01*
X141430547Y-100635322D01*
X141430541Y-100635327D01*
X141275327Y-100790541D01*
X141275322Y-100790547D01*
X141149423Y-100970349D01*
X141149419Y-100970357D01*
X141056655Y-101169291D01*
X140999839Y-101381324D01*
X140999838Y-101381331D01*
X140980708Y-101599997D01*
X140980708Y-101600002D01*
X140993517Y-101746421D01*
X140999839Y-101818674D01*
X141056653Y-102030703D01*
X141056654Y-102030706D01*
X141056655Y-102030708D01*
X141149419Y-102229642D01*
X141149423Y-102229650D01*
X141275322Y-102409452D01*
X141275327Y-102409458D01*
X141430541Y-102564672D01*
X141430547Y-102564677D01*
X141610349Y-102690576D01*
X141610351Y-102690577D01*
X141610354Y-102690579D01*
X141626003Y-102697876D01*
X141754120Y-102757618D01*
X141806560Y-102803790D01*
X141825712Y-102870983D01*
X141805496Y-102937865D01*
X141754120Y-102982382D01*
X141610357Y-103049419D01*
X141610349Y-103049423D01*
X141430547Y-103175322D01*
X141430541Y-103175327D01*
X141275327Y-103330541D01*
X141275322Y-103330547D01*
X141149423Y-103510349D01*
X141149419Y-103510357D01*
X141056655Y-103709291D01*
X140999839Y-103921324D01*
X140999838Y-103921331D01*
X140980708Y-104139997D01*
X140980708Y-104140002D01*
X140999838Y-104358668D01*
X140999839Y-104358675D01*
X141016240Y-104419885D01*
X141056653Y-104570703D01*
X141056654Y-104570706D01*
X141056655Y-104570708D01*
X141149419Y-104769642D01*
X141149423Y-104769650D01*
X141275322Y-104949452D01*
X141275327Y-104949458D01*
X141430541Y-105104672D01*
X141430547Y-105104677D01*
X141610349Y-105230576D01*
X141610351Y-105230577D01*
X141610354Y-105230579D01*
X141663841Y-105255520D01*
X141754120Y-105297618D01*
X141806560Y-105343790D01*
X141825712Y-105410983D01*
X141805496Y-105477865D01*
X141754120Y-105522382D01*
X141610357Y-105589419D01*
X141610349Y-105589423D01*
X141430547Y-105715322D01*
X141430541Y-105715327D01*
X141275327Y-105870541D01*
X141275322Y-105870547D01*
X141149423Y-106050349D01*
X141149419Y-106050357D01*
X141056655Y-106249291D01*
X141056653Y-106249295D01*
X141056653Y-106249297D01*
X141038149Y-106318355D01*
X140999839Y-106461324D01*
X140999838Y-106461331D01*
X140980708Y-106679997D01*
X140980708Y-106680002D01*
X140999838Y-106898668D01*
X140999839Y-106898675D01*
X141003352Y-106911784D01*
X141056653Y-107110703D01*
X141056654Y-107110706D01*
X141056655Y-107110708D01*
X141149419Y-107309642D01*
X141149423Y-107309650D01*
X141275322Y-107489452D01*
X141275327Y-107489458D01*
X141430541Y-107644672D01*
X141430547Y-107644677D01*
X141610349Y-107770576D01*
X141610351Y-107770577D01*
X141610354Y-107770579D01*
X141666618Y-107796815D01*
X141754120Y-107837618D01*
X141806560Y-107883790D01*
X141825712Y-107950983D01*
X141805496Y-108017865D01*
X141754120Y-108062382D01*
X141610357Y-108129419D01*
X141610349Y-108129423D01*
X141430547Y-108255322D01*
X141430541Y-108255327D01*
X141275327Y-108410541D01*
X141275322Y-108410547D01*
X141149423Y-108590349D01*
X141149419Y-108590357D01*
X141056655Y-108789291D01*
X140999839Y-109001324D01*
X140999838Y-109001331D01*
X140980708Y-109219997D01*
X140980708Y-109220002D01*
X140999838Y-109438668D01*
X140999839Y-109438675D01*
X141003352Y-109451784D01*
X141056653Y-109650703D01*
X141056654Y-109650706D01*
X141056655Y-109650708D01*
X141149419Y-109849642D01*
X141149423Y-109849650D01*
X141275322Y-110029452D01*
X141275327Y-110029458D01*
X141430541Y-110184672D01*
X141430547Y-110184677D01*
X141566576Y-110279925D01*
X141610201Y-110334502D01*
X141617395Y-110404000D01*
X141585872Y-110466355D01*
X141525643Y-110501769D01*
X141495455Y-110505500D01*
X141438130Y-110505500D01*
X141438123Y-110505501D01*
X141378516Y-110511908D01*
X141243671Y-110562202D01*
X141243664Y-110562206D01*
X141128455Y-110648452D01*
X141128452Y-110648455D01*
X141042206Y-110763664D01*
X141042202Y-110763671D01*
X140991908Y-110898517D01*
X140987471Y-110939794D01*
X140985501Y-110958123D01*
X140985500Y-110958135D01*
X140985500Y-112561870D01*
X140985501Y-112561876D01*
X140991908Y-112621483D01*
X141042202Y-112756328D01*
X141042206Y-112756335D01*
X141128452Y-112871544D01*
X141128455Y-112871547D01*
X141243664Y-112957793D01*
X141243671Y-112957797D01*
X141378517Y-113008091D01*
X141378516Y-113008091D01*
X141385444Y-113008835D01*
X141438127Y-113014500D01*
X143041872Y-113014499D01*
X143101483Y-113008091D01*
X143236331Y-112957796D01*
X143351546Y-112871546D01*
X143437796Y-112756331D01*
X143488091Y-112621483D01*
X143494500Y-112561873D01*
X143494500Y-112484500D01*
X143514185Y-112417461D01*
X143566989Y-112371706D01*
X143618500Y-112360500D01*
X163108331Y-112360500D01*
X163108347Y-112360501D01*
X163115943Y-112360501D01*
X163274054Y-112360501D01*
X163274057Y-112360501D01*
X163426785Y-112319577D01*
X163476904Y-112290639D01*
X163563716Y-112240520D01*
X163675520Y-112128716D01*
X163675520Y-112128714D01*
X163685728Y-112118507D01*
X163685729Y-112118504D01*
X164165524Y-111638711D01*
X169599500Y-111638711D01*
X169599500Y-111881288D01*
X169631161Y-112121785D01*
X169693947Y-112356104D01*
X169779179Y-112561872D01*
X169786776Y-112580212D01*
X169908064Y-112790289D01*
X169908066Y-112790292D01*
X169908067Y-112790293D01*
X170055733Y-112982736D01*
X170055739Y-112982743D01*
X170227256Y-113154260D01*
X170227262Y-113154265D01*
X170419711Y-113301936D01*
X170629788Y-113423224D01*
X170853900Y-113516054D01*
X171088211Y-113578838D01*
X171268586Y-113602584D01*
X171328711Y-113610500D01*
X171328712Y-113610500D01*
X171571289Y-113610500D01*
X171619388Y-113604167D01*
X171811789Y-113578838D01*
X172046100Y-113516054D01*
X172270212Y-113423224D01*
X172480289Y-113301936D01*
X172672738Y-113154265D01*
X172844265Y-112982738D01*
X172991936Y-112790289D01*
X173113224Y-112580212D01*
X173206054Y-112356100D01*
X173268838Y-112121789D01*
X173300500Y-111881288D01*
X173300500Y-111638712D01*
X173268838Y-111398211D01*
X173206054Y-111163900D01*
X173204231Y-111159500D01*
X173189188Y-111123181D01*
X173113224Y-110939788D01*
X172991936Y-110729711D01*
X172844265Y-110537262D01*
X172844260Y-110537256D01*
X172672743Y-110365739D01*
X172672736Y-110365733D01*
X172480293Y-110218067D01*
X172480292Y-110218066D01*
X172480289Y-110218064D01*
X172270212Y-110096776D01*
X172270205Y-110096773D01*
X172046104Y-110003947D01*
X171811785Y-109941161D01*
X171571289Y-109909500D01*
X171571288Y-109909500D01*
X171328712Y-109909500D01*
X171328711Y-109909500D01*
X171088214Y-109941161D01*
X170853895Y-110003947D01*
X170629794Y-110096773D01*
X170629785Y-110096777D01*
X170419706Y-110218067D01*
X170227263Y-110365733D01*
X170227256Y-110365739D01*
X170055739Y-110537256D01*
X170055733Y-110537263D01*
X169908067Y-110729706D01*
X169786777Y-110939785D01*
X169786773Y-110939794D01*
X169693947Y-111163895D01*
X169631161Y-111398214D01*
X169599500Y-111638711D01*
X164165524Y-111638711D01*
X164310520Y-111493716D01*
X164389577Y-111356784D01*
X164430501Y-111204057D01*
X164430501Y-111045942D01*
X164430501Y-111038347D01*
X164430500Y-111038329D01*
X164430500Y-104864500D01*
X164450185Y-104797461D01*
X164502989Y-104751706D01*
X164554500Y-104740500D01*
X167550500Y-104740500D01*
X167617539Y-104760185D01*
X167663294Y-104812989D01*
X167674500Y-104864500D01*
X167674500Y-106379902D01*
X167654815Y-106446941D01*
X167638181Y-106467583D01*
X165716465Y-108389298D01*
X165655142Y-108422783D01*
X165642668Y-108424837D01*
X165555750Y-108434630D01*
X165385478Y-108494210D01*
X165232737Y-108590184D01*
X165105184Y-108717737D01*
X165009211Y-108870476D01*
X164949631Y-109040745D01*
X164949630Y-109040750D01*
X164929435Y-109219996D01*
X164929435Y-109220003D01*
X164949630Y-109399249D01*
X164949631Y-109399254D01*
X165009211Y-109569523D01*
X165091525Y-109700524D01*
X165105184Y-109722262D01*
X165232738Y-109849816D01*
X165304153Y-109894689D01*
X165378112Y-109941161D01*
X165385478Y-109945789D01*
X165551681Y-110003946D01*
X165555745Y-110005368D01*
X165555750Y-110005369D01*
X165734996Y-110025565D01*
X165735000Y-110025565D01*
X165735004Y-110025565D01*
X165914249Y-110005369D01*
X165914252Y-110005368D01*
X165914255Y-110005368D01*
X166084522Y-109945789D01*
X166237262Y-109849816D01*
X166364816Y-109722262D01*
X166460789Y-109569522D01*
X166520368Y-109399255D01*
X166530161Y-109312329D01*
X166557226Y-109247918D01*
X166565690Y-109238543D01*
X168633506Y-107170728D01*
X168633511Y-107170724D01*
X168643714Y-107160520D01*
X168643716Y-107160520D01*
X168692092Y-107112143D01*
X168753413Y-107078659D01*
X168823105Y-107083643D01*
X168879038Y-107125514D01*
X168884765Y-107133852D01*
X168901523Y-107160521D01*
X168915184Y-107182262D01*
X169042738Y-107309816D01*
X169195478Y-107405789D01*
X169365745Y-107465368D01*
X169365750Y-107465369D01*
X169544996Y-107485565D01*
X169545000Y-107485565D01*
X169545004Y-107485565D01*
X169724249Y-107465369D01*
X169724252Y-107465368D01*
X169724255Y-107465368D01*
X169894522Y-107405789D01*
X170047262Y-107309816D01*
X170047267Y-107309810D01*
X170050097Y-107307555D01*
X170052275Y-107306665D01*
X170053158Y-107306111D01*
X170053255Y-107306265D01*
X170114783Y-107281145D01*
X170127412Y-107280500D01*
X175173331Y-107280500D01*
X175173347Y-107280501D01*
X175180943Y-107280501D01*
X175339054Y-107280501D01*
X175339057Y-107280501D01*
X175491785Y-107239577D01*
X175541904Y-107210639D01*
X175628716Y-107160520D01*
X175740520Y-107048716D01*
X175740520Y-107048714D01*
X175750728Y-107038507D01*
X175750729Y-107038504D01*
X176375520Y-106413716D01*
X176454577Y-106276784D01*
X176495501Y-106124057D01*
X176495501Y-105965942D01*
X176495501Y-105958347D01*
X176495500Y-105958329D01*
X176495500Y-77135097D01*
X176515185Y-77068058D01*
X176531819Y-77047416D01*
X176542416Y-77036819D01*
X176603739Y-77003334D01*
X176630097Y-77000500D01*
X179220501Y-77000500D01*
X179287540Y-77020185D01*
X179333295Y-77072989D01*
X179344501Y-77124500D01*
X179344501Y-77297876D01*
X179350908Y-77357483D01*
X179401202Y-77492328D01*
X179401203Y-77492330D01*
X179478578Y-77595689D01*
X179502995Y-77661153D01*
X179488144Y-77729426D01*
X179478578Y-77744311D01*
X179401203Y-77847669D01*
X179401202Y-77847671D01*
X179350908Y-77982517D01*
X179344943Y-78038006D01*
X179344501Y-78042123D01*
X179344500Y-78042135D01*
X179344500Y-79837870D01*
X179344501Y-79837876D01*
X179350908Y-79897483D01*
X179401202Y-80032328D01*
X179401203Y-80032330D01*
X179478578Y-80135689D01*
X179502995Y-80201153D01*
X179488144Y-80269426D01*
X179478578Y-80284311D01*
X179401203Y-80387669D01*
X179401202Y-80387671D01*
X179350908Y-80522517D01*
X179344960Y-80577844D01*
X179344501Y-80582123D01*
X179344500Y-80582135D01*
X179344500Y-82377870D01*
X179344501Y-82377876D01*
X179350908Y-82437483D01*
X179401202Y-82572328D01*
X179401203Y-82572330D01*
X179478578Y-82675689D01*
X179502995Y-82741153D01*
X179488144Y-82809426D01*
X179478578Y-82824311D01*
X179401203Y-82927669D01*
X179401202Y-82927671D01*
X179350908Y-83062517D01*
X179347057Y-83098340D01*
X179344501Y-83122123D01*
X179344500Y-83122135D01*
X179344500Y-84917870D01*
X179344501Y-84917876D01*
X179350908Y-84977483D01*
X179401202Y-85112328D01*
X179401203Y-85112330D01*
X179478578Y-85215689D01*
X179502995Y-85281153D01*
X179488144Y-85349426D01*
X179478578Y-85364311D01*
X179401203Y-85467669D01*
X179401202Y-85467671D01*
X179350908Y-85602517D01*
X179344960Y-85657844D01*
X179344501Y-85662123D01*
X179344500Y-85662135D01*
X179344500Y-87457870D01*
X179344501Y-87457876D01*
X179350908Y-87517483D01*
X179401202Y-87652328D01*
X179401203Y-87652330D01*
X179478578Y-87755689D01*
X179502995Y-87821153D01*
X179488144Y-87889426D01*
X179478578Y-87904311D01*
X179401203Y-88007669D01*
X179401202Y-88007671D01*
X179350908Y-88142517D01*
X179344943Y-88198006D01*
X179344501Y-88202123D01*
X179344500Y-88202135D01*
X179344500Y-89997870D01*
X179344501Y-89997876D01*
X179350908Y-90057483D01*
X179401202Y-90192328D01*
X179401203Y-90192330D01*
X179478578Y-90295689D01*
X179502995Y-90361153D01*
X179488144Y-90429426D01*
X179478578Y-90444311D01*
X179401203Y-90547669D01*
X179401202Y-90547671D01*
X179350908Y-90682517D01*
X179344501Y-90742116D01*
X179344501Y-90742123D01*
X179344500Y-90742135D01*
X179344500Y-92537870D01*
X179344501Y-92537876D01*
X179350908Y-92597483D01*
X179401202Y-92732328D01*
X179401203Y-92732330D01*
X179478578Y-92835689D01*
X179502995Y-92901153D01*
X179488144Y-92969426D01*
X179478578Y-92984311D01*
X179401203Y-93087669D01*
X179401202Y-93087671D01*
X179350908Y-93222517D01*
X179344501Y-93282116D01*
X179344501Y-93282123D01*
X179344500Y-93282135D01*
X179344500Y-95077870D01*
X179344501Y-95077876D01*
X179350908Y-95137483D01*
X179401202Y-95272328D01*
X179401203Y-95272330D01*
X179478578Y-95375689D01*
X179502995Y-95441153D01*
X179488144Y-95509426D01*
X179478578Y-95524311D01*
X179401203Y-95627669D01*
X179401202Y-95627671D01*
X179350908Y-95762517D01*
X179344501Y-95822116D01*
X179344501Y-95822123D01*
X179344500Y-95822135D01*
X179344500Y-97617870D01*
X179344501Y-97617876D01*
X179350908Y-97677483D01*
X179401202Y-97812328D01*
X179401203Y-97812330D01*
X179478578Y-97915689D01*
X179502995Y-97981153D01*
X179488144Y-98049426D01*
X179478578Y-98064311D01*
X179401203Y-98167669D01*
X179401202Y-98167671D01*
X179350908Y-98302517D01*
X179345938Y-98348752D01*
X179344501Y-98362123D01*
X179344500Y-98362135D01*
X179344500Y-100157870D01*
X179344501Y-100157876D01*
X179350908Y-100217483D01*
X179401202Y-100352328D01*
X179401203Y-100352330D01*
X179478578Y-100455689D01*
X179502995Y-100521153D01*
X179488144Y-100589426D01*
X179478578Y-100604311D01*
X179401203Y-100707669D01*
X179401202Y-100707671D01*
X179350910Y-100842513D01*
X179350909Y-100842517D01*
X179345937Y-100888757D01*
X179319201Y-100953306D01*
X179261809Y-100993154D01*
X179222649Y-100999500D01*
X177720943Y-100999500D01*
X177568216Y-101040423D01*
X177568209Y-101040426D01*
X177431290Y-101119475D01*
X177431282Y-101119481D01*
X177319481Y-101231282D01*
X177319475Y-101231290D01*
X177240426Y-101368209D01*
X177240423Y-101368216D01*
X177199500Y-101520943D01*
X177199500Y-109140942D01*
X177199500Y-109140943D01*
X177199500Y-109299057D01*
X177236911Y-109438675D01*
X177240423Y-109451783D01*
X177240426Y-109451790D01*
X177319475Y-109588709D01*
X177319479Y-109588714D01*
X177319480Y-109588716D01*
X177431284Y-109700520D01*
X177431286Y-109700521D01*
X177431290Y-109700524D01*
X177568209Y-109779573D01*
X177568216Y-109779577D01*
X177720943Y-109820500D01*
X180003884Y-109820500D01*
X180070923Y-109840185D01*
X180116678Y-109892989D01*
X180117440Y-109894689D01*
X180135827Y-109936608D01*
X180271833Y-110144782D01*
X180271836Y-110144785D01*
X180440256Y-110327738D01*
X180636491Y-110480474D01*
X180855190Y-110598828D01*
X181090386Y-110679571D01*
X181335665Y-110720500D01*
X181584335Y-110720500D01*
X181829614Y-110679571D01*
X182064810Y-110598828D01*
X182283509Y-110480474D01*
X182479744Y-110327738D01*
X182648164Y-110144785D01*
X182784173Y-109936607D01*
X182802560Y-109894689D01*
X182847517Y-109841204D01*
X182914253Y-109820514D01*
X182916116Y-109820500D01*
X186503884Y-109820500D01*
X186570923Y-109840185D01*
X186616678Y-109892989D01*
X186617440Y-109894689D01*
X186635827Y-109936608D01*
X186771833Y-110144782D01*
X186771836Y-110144785D01*
X186940256Y-110327738D01*
X187136491Y-110480474D01*
X187355190Y-110598828D01*
X187590386Y-110679571D01*
X187835665Y-110720500D01*
X188084335Y-110720500D01*
X188329614Y-110679571D01*
X188564810Y-110598828D01*
X188783509Y-110480474D01*
X188979744Y-110327738D01*
X189148164Y-110144785D01*
X189284173Y-109936607D01*
X189384063Y-109708881D01*
X189445108Y-109467821D01*
X189445109Y-109467812D01*
X189465643Y-109220005D01*
X189465643Y-109219994D01*
X189445109Y-108972187D01*
X189445107Y-108972175D01*
X189384063Y-108731118D01*
X189284173Y-108503393D01*
X189148166Y-108295217D01*
X189126557Y-108271744D01*
X188979744Y-108112262D01*
X188783509Y-107959526D01*
X188783507Y-107959525D01*
X188783506Y-107959524D01*
X188564811Y-107841172D01*
X188564802Y-107841169D01*
X188329616Y-107760429D01*
X188084335Y-107719500D01*
X187835665Y-107719500D01*
X187590383Y-107760429D01*
X187355197Y-107841169D01*
X187355188Y-107841172D01*
X187136493Y-107959524D01*
X186940257Y-108112261D01*
X186771833Y-108295217D01*
X186635827Y-108503391D01*
X186617440Y-108545311D01*
X186572483Y-108598796D01*
X186505747Y-108619486D01*
X186503884Y-108619500D01*
X182916116Y-108619500D01*
X182849077Y-108599815D01*
X182803322Y-108547011D01*
X182802560Y-108545311D01*
X182784172Y-108503391D01*
X182648166Y-108295217D01*
X182626557Y-108271744D01*
X182479744Y-108112262D01*
X182283509Y-107959526D01*
X182283507Y-107959525D01*
X182283506Y-107959524D01*
X182064811Y-107841172D01*
X182064802Y-107841169D01*
X181829616Y-107760429D01*
X181584335Y-107719500D01*
X181335665Y-107719500D01*
X181090383Y-107760429D01*
X180855197Y-107841169D01*
X180855188Y-107841172D01*
X180636493Y-107959524D01*
X180440257Y-108112261D01*
X180271833Y-108295217D01*
X180135827Y-108503391D01*
X180117440Y-108545311D01*
X180072483Y-108598796D01*
X180005747Y-108619486D01*
X180003884Y-108619500D01*
X178524500Y-108619500D01*
X178457461Y-108599815D01*
X178411706Y-108547011D01*
X178400500Y-108495500D01*
X178400500Y-102324500D01*
X178420185Y-102257461D01*
X178472989Y-102211706D01*
X178524500Y-102200500D01*
X179220501Y-102200500D01*
X179287540Y-102220185D01*
X179333295Y-102272989D01*
X179344501Y-102324500D01*
X179344501Y-102697876D01*
X179350908Y-102757483D01*
X179401202Y-102892328D01*
X179401206Y-102892335D01*
X179487452Y-103007544D01*
X179487455Y-103007547D01*
X179602664Y-103093793D01*
X179602671Y-103093797D01*
X179737517Y-103144091D01*
X179737516Y-103144091D01*
X179744444Y-103144835D01*
X179797127Y-103150500D01*
X182430611Y-103150499D01*
X182441419Y-103150971D01*
X182494999Y-103155659D01*
X182495000Y-103155659D01*
X182495001Y-103155659D01*
X182548580Y-103150971D01*
X182559388Y-103150499D01*
X183392871Y-103150499D01*
X183392872Y-103150499D01*
X183452483Y-103144091D01*
X183587331Y-103093796D01*
X183702546Y-103007546D01*
X183788796Y-102892331D01*
X183839091Y-102757483D01*
X183845500Y-102697873D01*
X183845499Y-101864383D01*
X183845971Y-101853576D01*
X183850659Y-101800000D01*
X183850659Y-101799999D01*
X183845971Y-101746421D01*
X183845499Y-101735613D01*
X183845499Y-100902129D01*
X183845498Y-100902123D01*
X183845497Y-100902116D01*
X183839091Y-100842517D01*
X183819707Y-100790547D01*
X183788797Y-100707671D01*
X183788795Y-100707668D01*
X183711421Y-100604309D01*
X183687004Y-100538848D01*
X183701855Y-100470575D01*
X183711416Y-100455696D01*
X183788796Y-100352331D01*
X183839091Y-100217483D01*
X183845500Y-100157873D01*
X183845500Y-99784500D01*
X183865185Y-99717461D01*
X183917989Y-99671706D01*
X183969500Y-99660500D01*
X184695500Y-99660500D01*
X184762539Y-99680185D01*
X184808294Y-99732989D01*
X184819500Y-99784500D01*
X184819500Y-106600943D01*
X184819500Y-106759057D01*
X184856911Y-106898675D01*
X184860423Y-106911783D01*
X184860426Y-106911790D01*
X184939475Y-107048709D01*
X184939478Y-107048713D01*
X184939480Y-107048716D01*
X185051284Y-107160520D01*
X185051286Y-107160521D01*
X185051290Y-107160524D01*
X185188209Y-107239573D01*
X185188216Y-107239577D01*
X185340943Y-107280500D01*
X192739903Y-107280500D01*
X192806942Y-107300185D01*
X192827584Y-107316819D01*
X194123482Y-108612717D01*
X194156967Y-108674040D01*
X194156007Y-108730838D01*
X194094892Y-108972174D01*
X194094890Y-108972187D01*
X194074357Y-109219994D01*
X194074357Y-109220005D01*
X194094890Y-109467812D01*
X194094892Y-109467824D01*
X194155936Y-109708881D01*
X194255826Y-109936606D01*
X194391833Y-110144782D01*
X194391836Y-110144785D01*
X194560256Y-110327738D01*
X194756491Y-110480474D01*
X194975190Y-110598828D01*
X195210386Y-110679571D01*
X195455665Y-110720500D01*
X195704335Y-110720500D01*
X195949614Y-110679571D01*
X196184810Y-110598828D01*
X196403509Y-110480474D01*
X196599744Y-110327738D01*
X196768164Y-110144785D01*
X196904173Y-109936607D01*
X196922560Y-109894689D01*
X196967517Y-109841204D01*
X197034253Y-109820514D01*
X197036116Y-109820500D01*
X200623884Y-109820500D01*
X200690923Y-109840185D01*
X200736678Y-109892989D01*
X200737440Y-109894689D01*
X200755827Y-109936608D01*
X200891833Y-110144782D01*
X200891836Y-110144785D01*
X201060256Y-110327738D01*
X201256491Y-110480474D01*
X201475190Y-110598828D01*
X201710386Y-110679571D01*
X201955665Y-110720500D01*
X202204335Y-110720500D01*
X202449614Y-110679571D01*
X202684810Y-110598828D01*
X202903509Y-110480474D01*
X203099744Y-110327738D01*
X203268164Y-110144785D01*
X203404173Y-109936607D01*
X203504063Y-109708881D01*
X203565108Y-109467821D01*
X203565109Y-109467812D01*
X203585643Y-109220005D01*
X203585643Y-109219998D01*
X219674532Y-109219998D01*
X219674532Y-109220001D01*
X219694364Y-109446686D01*
X219694366Y-109446697D01*
X219753258Y-109666488D01*
X219753261Y-109666497D01*
X219849431Y-109872732D01*
X219849432Y-109872734D01*
X219979954Y-110059141D01*
X220140858Y-110220045D01*
X220140861Y-110220047D01*
X220327266Y-110350568D01*
X220533504Y-110446739D01*
X220753308Y-110505635D01*
X220915230Y-110519801D01*
X220979998Y-110525468D01*
X220980000Y-110525468D01*
X220980002Y-110525468D01*
X221036673Y-110520509D01*
X221206692Y-110505635D01*
X221426496Y-110446739D01*
X221632734Y-110350568D01*
X221819139Y-110220047D01*
X221980047Y-110059139D01*
X222110568Y-109872734D01*
X222206739Y-109666496D01*
X222265635Y-109446692D01*
X222282634Y-109252384D01*
X222285468Y-109220001D01*
X222285468Y-109219998D01*
X222278551Y-109140942D01*
X222265635Y-108993308D01*
X222206739Y-108773504D01*
X222110568Y-108567266D01*
X221980047Y-108380861D01*
X221980045Y-108380858D01*
X221819141Y-108219954D01*
X221632734Y-108089432D01*
X221632732Y-108089431D01*
X221426497Y-107993261D01*
X221426488Y-107993258D01*
X221206697Y-107934366D01*
X221206693Y-107934365D01*
X221206692Y-107934365D01*
X221206691Y-107934364D01*
X221206686Y-107934364D01*
X220980002Y-107914532D01*
X220979998Y-107914532D01*
X220753313Y-107934364D01*
X220753302Y-107934366D01*
X220533511Y-107993258D01*
X220533502Y-107993261D01*
X220327267Y-108089431D01*
X220327265Y-108089432D01*
X220140858Y-108219954D01*
X219979954Y-108380858D01*
X219849432Y-108567265D01*
X219849431Y-108567267D01*
X219753261Y-108773502D01*
X219753258Y-108773511D01*
X219694366Y-108993302D01*
X219694364Y-108993313D01*
X219674532Y-109219998D01*
X203585643Y-109219998D01*
X203585643Y-109219994D01*
X203565109Y-108972187D01*
X203565107Y-108972175D01*
X203504063Y-108731118D01*
X203404173Y-108503393D01*
X203268166Y-108295217D01*
X203246557Y-108271744D01*
X203099744Y-108112262D01*
X202903509Y-107959526D01*
X202903507Y-107959525D01*
X202903506Y-107959524D01*
X202684811Y-107841172D01*
X202684802Y-107841169D01*
X202449616Y-107760429D01*
X202204335Y-107719500D01*
X201955665Y-107719500D01*
X201710383Y-107760429D01*
X201475197Y-107841169D01*
X201475188Y-107841172D01*
X201256493Y-107959524D01*
X201060257Y-108112261D01*
X200891833Y-108295217D01*
X200755827Y-108503391D01*
X200737440Y-108545311D01*
X200692483Y-108598796D01*
X200625747Y-108619486D01*
X200623884Y-108619500D01*
X197036116Y-108619500D01*
X196969077Y-108599815D01*
X196923322Y-108547011D01*
X196922560Y-108545311D01*
X196904172Y-108503391D01*
X196768166Y-108295217D01*
X196746557Y-108271744D01*
X196599744Y-108112262D01*
X196403509Y-107959526D01*
X196403507Y-107959525D01*
X196403506Y-107959524D01*
X196184811Y-107841172D01*
X196184802Y-107841169D01*
X195949616Y-107760429D01*
X195704335Y-107719500D01*
X195455665Y-107719500D01*
X195210382Y-107760429D01*
X195210380Y-107760429D01*
X195104393Y-107796815D01*
X195034595Y-107799965D01*
X194976450Y-107767215D01*
X193527590Y-106318355D01*
X193527588Y-106318352D01*
X193408717Y-106199481D01*
X193408709Y-106199475D01*
X193306936Y-106140717D01*
X193306934Y-106140716D01*
X193271790Y-106120425D01*
X193271789Y-106120424D01*
X193259263Y-106117067D01*
X193119057Y-106079499D01*
X192960943Y-106079499D01*
X192953347Y-106079499D01*
X192953331Y-106079500D01*
X186144500Y-106079500D01*
X186077461Y-106059815D01*
X186031706Y-106007011D01*
X186020500Y-105955500D01*
X186020500Y-104139997D01*
X209555034Y-104139997D01*
X209555034Y-104140002D01*
X209574858Y-104366599D01*
X209574860Y-104366610D01*
X209633730Y-104586317D01*
X209633735Y-104586331D01*
X209729863Y-104792478D01*
X209780974Y-104865472D01*
X210460000Y-104186446D01*
X210460000Y-104192661D01*
X210487259Y-104294394D01*
X210539920Y-104385606D01*
X210614394Y-104460080D01*
X210705606Y-104512741D01*
X210807339Y-104540000D01*
X210813553Y-104540000D01*
X210134526Y-105219025D01*
X210207513Y-105270132D01*
X210207521Y-105270136D01*
X210413668Y-105366264D01*
X210413682Y-105366269D01*
X210633389Y-105425139D01*
X210633400Y-105425141D01*
X210859998Y-105444966D01*
X210860002Y-105444966D01*
X211086599Y-105425141D01*
X211086610Y-105425139D01*
X211306317Y-105366269D01*
X211306331Y-105366264D01*
X211512478Y-105270136D01*
X211585471Y-105219024D01*
X210906447Y-104540000D01*
X210912661Y-104540000D01*
X211014394Y-104512741D01*
X211105606Y-104460080D01*
X211180080Y-104385606D01*
X211232741Y-104294394D01*
X211260000Y-104192661D01*
X211260000Y-104186447D01*
X211939024Y-104865471D01*
X211990134Y-104792481D01*
X211997340Y-104777028D01*
X212043511Y-104724587D01*
X212110704Y-104705433D01*
X212177585Y-104725646D01*
X212222105Y-104777022D01*
X212229430Y-104792730D01*
X212229432Y-104792734D01*
X212359954Y-104979141D01*
X212520858Y-105140045D01*
X212520861Y-105140047D01*
X212707266Y-105270568D01*
X212913504Y-105366739D01*
X212913509Y-105366740D01*
X212913511Y-105366741D01*
X212946204Y-105375501D01*
X213133308Y-105425635D01*
X213295230Y-105439801D01*
X213359998Y-105445468D01*
X213360000Y-105445468D01*
X213360002Y-105445468D01*
X213416673Y-105440509D01*
X213586692Y-105425635D01*
X213806496Y-105366739D01*
X214012734Y-105270568D01*
X214199139Y-105140047D01*
X214360047Y-104979139D01*
X214490568Y-104792734D01*
X214586739Y-104586496D01*
X214645635Y-104366692D01*
X214665468Y-104140000D01*
X214645635Y-103913308D01*
X214586739Y-103693504D01*
X214490568Y-103487266D01*
X214360047Y-103300861D01*
X214360045Y-103300858D01*
X214199141Y-103139954D01*
X214012734Y-103009432D01*
X214012732Y-103009431D01*
X213806497Y-102913261D01*
X213806488Y-102913258D01*
X213586697Y-102854366D01*
X213586693Y-102854365D01*
X213586692Y-102854365D01*
X213586691Y-102854364D01*
X213586686Y-102854364D01*
X213360002Y-102834532D01*
X213359998Y-102834532D01*
X213133313Y-102854364D01*
X213133302Y-102854366D01*
X212913511Y-102913258D01*
X212913502Y-102913261D01*
X212707267Y-103009431D01*
X212707265Y-103009432D01*
X212520858Y-103139954D01*
X212359954Y-103300858D01*
X212229432Y-103487265D01*
X212229429Y-103487270D01*
X212222104Y-103502979D01*
X212175929Y-103555417D01*
X212108735Y-103574566D01*
X212041855Y-103554347D01*
X211997341Y-103502973D01*
X211990133Y-103487515D01*
X211990132Y-103487513D01*
X211939025Y-103414526D01*
X211260000Y-104093551D01*
X211260000Y-104087339D01*
X211232741Y-103985606D01*
X211180080Y-103894394D01*
X211105606Y-103819920D01*
X211014394Y-103767259D01*
X210912661Y-103740000D01*
X210906445Y-103740000D01*
X211585472Y-103060974D01*
X211512478Y-103009863D01*
X211306331Y-102913735D01*
X211306317Y-102913730D01*
X211086610Y-102854860D01*
X211086599Y-102854858D01*
X210860002Y-102835034D01*
X210859998Y-102835034D01*
X210633400Y-102854858D01*
X210633389Y-102854860D01*
X210413682Y-102913730D01*
X210413673Y-102913734D01*
X210207516Y-103009866D01*
X210207512Y-103009868D01*
X210134526Y-103060973D01*
X210134526Y-103060974D01*
X210813553Y-103740000D01*
X210807339Y-103740000D01*
X210705606Y-103767259D01*
X210614394Y-103819920D01*
X210539920Y-103894394D01*
X210487259Y-103985606D01*
X210460000Y-104087339D01*
X210460000Y-104093552D01*
X209780974Y-103414526D01*
X209780973Y-103414526D01*
X209729868Y-103487512D01*
X209729866Y-103487516D01*
X209633734Y-103693673D01*
X209633730Y-103693682D01*
X209574860Y-103913389D01*
X209574858Y-103913400D01*
X209555034Y-104139997D01*
X186020500Y-104139997D01*
X186020500Y-98980945D01*
X186020500Y-98980943D01*
X185979577Y-98828216D01*
X185977481Y-98824586D01*
X185900524Y-98691290D01*
X185900518Y-98691282D01*
X185788717Y-98579481D01*
X185788709Y-98579475D01*
X185651790Y-98500426D01*
X185651786Y-98500424D01*
X185651784Y-98500423D01*
X185499057Y-98459500D01*
X185499056Y-98459500D01*
X183967351Y-98459500D01*
X183900312Y-98439815D01*
X183854557Y-98387011D01*
X183844061Y-98348752D01*
X183839091Y-98302516D01*
X183788797Y-98167671D01*
X183788795Y-98167668D01*
X183711421Y-98064309D01*
X183687004Y-97998848D01*
X183701855Y-97930575D01*
X183711416Y-97915696D01*
X183788796Y-97812331D01*
X183839091Y-97677483D01*
X183845500Y-97617873D01*
X183845499Y-95822128D01*
X183839091Y-95762517D01*
X183819707Y-95710547D01*
X183788797Y-95627671D01*
X183788795Y-95627668D01*
X183711421Y-95524309D01*
X183687004Y-95458848D01*
X183701855Y-95390575D01*
X183711416Y-95375696D01*
X183788796Y-95272331D01*
X183839091Y-95137483D01*
X183845500Y-95077873D01*
X183845499Y-94244383D01*
X183845971Y-94233576D01*
X183850659Y-94180000D01*
X183850659Y-94179999D01*
X183845971Y-94126421D01*
X183845499Y-94115613D01*
X183845499Y-93282129D01*
X183845498Y-93282123D01*
X183845497Y-93282116D01*
X183839091Y-93222517D01*
X183808635Y-93140861D01*
X183788797Y-93087671D01*
X183788795Y-93087668D01*
X183711421Y-92984309D01*
X183687004Y-92918848D01*
X183701855Y-92850575D01*
X183711416Y-92835696D01*
X183788796Y-92732331D01*
X183839091Y-92597483D01*
X183845500Y-92537873D01*
X183845499Y-91704383D01*
X183845971Y-91693576D01*
X183850659Y-91640000D01*
X183850659Y-91639999D01*
X183845971Y-91586421D01*
X183845499Y-91575613D01*
X183845499Y-90742129D01*
X183845498Y-90742123D01*
X183845497Y-90742116D01*
X183839091Y-90682517D01*
X183788796Y-90547669D01*
X183711421Y-90444309D01*
X183687004Y-90378848D01*
X183701855Y-90310575D01*
X183711416Y-90295696D01*
X183788796Y-90192331D01*
X183839091Y-90057483D01*
X183845500Y-89997873D01*
X183845499Y-89164383D01*
X183845971Y-89153576D01*
X183850659Y-89100000D01*
X183850659Y-89099999D01*
X183845971Y-89046421D01*
X183845499Y-89035613D01*
X183845499Y-88202129D01*
X183845498Y-88202123D01*
X183845497Y-88202116D01*
X183839091Y-88142517D01*
X183788796Y-88007669D01*
X183711421Y-87904309D01*
X183687004Y-87838848D01*
X183701855Y-87770575D01*
X183711416Y-87755696D01*
X183788796Y-87652331D01*
X183839091Y-87517483D01*
X183845500Y-87457873D01*
X183845499Y-86624383D01*
X183845971Y-86613576D01*
X183847920Y-86591308D01*
X183850659Y-86560000D01*
X183845971Y-86506421D01*
X183845499Y-86495613D01*
X183845499Y-85662129D01*
X183845498Y-85662123D01*
X183845497Y-85662116D01*
X183839091Y-85602517D01*
X183788796Y-85467669D01*
X183711421Y-85364309D01*
X183687004Y-85298848D01*
X183701855Y-85230575D01*
X183711416Y-85215696D01*
X183788796Y-85112331D01*
X183839091Y-84977483D01*
X183845500Y-84917873D01*
X183845499Y-83122128D01*
X183839091Y-83062517D01*
X183828149Y-83033181D01*
X183788797Y-82927671D01*
X183788795Y-82927668D01*
X183711421Y-82824309D01*
X183687004Y-82758848D01*
X183701855Y-82690575D01*
X183711416Y-82675696D01*
X183788796Y-82572331D01*
X183839091Y-82437483D01*
X183845500Y-82377873D01*
X183845499Y-81544383D01*
X183845971Y-81533576D01*
X183850659Y-81480000D01*
X183850659Y-81479999D01*
X183845971Y-81426421D01*
X183845499Y-81415613D01*
X183845499Y-80582129D01*
X183845498Y-80582123D01*
X183845497Y-80582116D01*
X183839091Y-80522517D01*
X183798726Y-80414294D01*
X183788797Y-80387671D01*
X183788795Y-80387668D01*
X183775061Y-80369322D01*
X183711421Y-80284309D01*
X183687004Y-80218848D01*
X183701855Y-80150575D01*
X183711416Y-80135696D01*
X183788796Y-80032331D01*
X183839091Y-79897483D01*
X183845500Y-79837873D01*
X183845499Y-79004383D01*
X183845971Y-78993576D01*
X183850659Y-78940000D01*
X183850659Y-78939999D01*
X183845971Y-78886421D01*
X183845499Y-78875613D01*
X183845499Y-78042129D01*
X183845498Y-78042123D01*
X183845497Y-78042116D01*
X183839091Y-77982517D01*
X183834353Y-77969815D01*
X183788797Y-77847671D01*
X183788795Y-77847668D01*
X183775071Y-77829335D01*
X183711421Y-77744309D01*
X183687004Y-77678848D01*
X183701855Y-77610575D01*
X183711416Y-77595696D01*
X183788796Y-77492331D01*
X183839091Y-77357483D01*
X183845500Y-77297873D01*
X183845499Y-76464383D01*
X183845971Y-76453576D01*
X183847920Y-76431308D01*
X183850659Y-76400000D01*
X183845971Y-76346421D01*
X183845499Y-76335613D01*
X183845499Y-75502129D01*
X183845498Y-75502123D01*
X183845497Y-75502116D01*
X183839091Y-75442517D01*
X183788796Y-75307669D01*
X183711421Y-75204309D01*
X183687004Y-75138848D01*
X183701855Y-75070575D01*
X183711416Y-75055696D01*
X183788796Y-74952331D01*
X183839091Y-74817483D01*
X183845500Y-74757873D01*
X183845499Y-73924383D01*
X183845971Y-73913576D01*
X183850659Y-73860000D01*
X183850659Y-73859999D01*
X183845971Y-73806421D01*
X183845499Y-73795613D01*
X183845499Y-72962129D01*
X183845498Y-72962123D01*
X183845497Y-72962116D01*
X183839091Y-72902517D01*
X183788796Y-72767669D01*
X183711421Y-72664309D01*
X183687004Y-72598848D01*
X183701855Y-72530575D01*
X183711416Y-72515696D01*
X183788796Y-72412331D01*
X183839091Y-72277483D01*
X183845500Y-72217873D01*
X183845499Y-70422128D01*
X183839091Y-70362517D01*
X183788796Y-70227669D01*
X183711421Y-70124309D01*
X183687004Y-70058848D01*
X183701855Y-69990575D01*
X183711416Y-69975696D01*
X183788796Y-69872331D01*
X183839091Y-69737483D01*
X183845500Y-69677873D01*
X183845499Y-68844383D01*
X183845971Y-68833576D01*
X183850659Y-68780000D01*
X183850659Y-68779999D01*
X183845971Y-68726421D01*
X183845499Y-68715613D01*
X183845499Y-67882129D01*
X183845498Y-67882123D01*
X183845497Y-67882116D01*
X183839091Y-67822517D01*
X183808635Y-67740861D01*
X183788797Y-67687671D01*
X183788795Y-67687668D01*
X183711421Y-67584309D01*
X183687004Y-67518848D01*
X183701855Y-67450575D01*
X183711416Y-67435696D01*
X183788796Y-67332331D01*
X183839091Y-67197483D01*
X183845500Y-67137873D01*
X183845499Y-66304383D01*
X183845971Y-66293576D01*
X183850659Y-66240000D01*
X183850659Y-66239999D01*
X183845971Y-66186421D01*
X183845499Y-66175613D01*
X183845499Y-65342129D01*
X183845498Y-65342123D01*
X183845497Y-65342116D01*
X183839091Y-65282517D01*
X183790241Y-65151544D01*
X183788797Y-65147671D01*
X183788795Y-65147668D01*
X183711421Y-65044309D01*
X183687004Y-64978848D01*
X183701855Y-64910575D01*
X183711416Y-64895696D01*
X183788796Y-64792331D01*
X183839091Y-64657483D01*
X183845500Y-64597873D01*
X183845499Y-63764384D01*
X183845971Y-63753576D01*
X183850659Y-63700000D01*
X183850659Y-63699999D01*
X183845971Y-63646421D01*
X183845499Y-63635613D01*
X183845499Y-62802129D01*
X183845498Y-62802123D01*
X183845497Y-62802116D01*
X183839091Y-62742517D01*
X183808635Y-62660861D01*
X183788797Y-62607671D01*
X183788795Y-62607668D01*
X183764502Y-62575217D01*
X183711421Y-62504309D01*
X183687004Y-62438848D01*
X183701855Y-62370575D01*
X183711416Y-62355696D01*
X183788796Y-62252331D01*
X183839091Y-62117483D01*
X183845500Y-62057873D01*
X183845499Y-61224383D01*
X183845971Y-61213576D01*
X183850659Y-61160000D01*
X183850659Y-61159999D01*
X183845971Y-61106421D01*
X183845499Y-61095613D01*
X183845499Y-60262129D01*
X183845498Y-60262123D01*
X183845497Y-60262116D01*
X183839091Y-60202517D01*
X183829220Y-60176052D01*
X183788797Y-60067671D01*
X183788795Y-60067668D01*
X183711421Y-59964309D01*
X183687004Y-59898848D01*
X183701855Y-59830575D01*
X183711416Y-59815696D01*
X183788796Y-59712331D01*
X183839091Y-59577483D01*
X183845500Y-59517873D01*
X183845499Y-57722128D01*
X183839091Y-57662517D01*
X183838748Y-57661598D01*
X183788797Y-57527671D01*
X183788795Y-57527668D01*
X183773231Y-57506877D01*
X183711421Y-57424309D01*
X183687004Y-57358848D01*
X183701855Y-57290575D01*
X183711416Y-57275696D01*
X183788796Y-57172331D01*
X183839091Y-57037483D01*
X183845500Y-56977873D01*
X183845500Y-56699997D01*
X187704723Y-56699997D01*
X187704723Y-56700002D01*
X187704742Y-56700214D01*
X187723120Y-56910289D01*
X187723793Y-56917975D01*
X187723793Y-56917979D01*
X187780422Y-57129322D01*
X187780424Y-57129326D01*
X187780425Y-57129330D01*
X187812102Y-57197262D01*
X187872897Y-57327638D01*
X187888555Y-57350000D01*
X187998402Y-57506877D01*
X188153123Y-57661598D01*
X188332361Y-57787102D01*
X188530670Y-57879575D01*
X188742023Y-57936207D01*
X188924926Y-57952208D01*
X188959998Y-57955277D01*
X188960000Y-57955277D01*
X188960002Y-57955277D01*
X188988254Y-57952805D01*
X189177977Y-57936207D01*
X189389330Y-57879575D01*
X189587639Y-57787102D01*
X189766877Y-57661598D01*
X189921598Y-57506877D01*
X190047102Y-57327639D01*
X190139575Y-57129330D01*
X190196207Y-56917977D01*
X190215258Y-56700214D01*
X190215277Y-56700002D01*
X190215277Y-56699997D01*
X192554723Y-56699997D01*
X192554723Y-56700002D01*
X192554742Y-56700214D01*
X192573120Y-56910289D01*
X192573793Y-56917975D01*
X192573793Y-56917979D01*
X192630422Y-57129322D01*
X192630424Y-57129326D01*
X192630425Y-57129330D01*
X192662102Y-57197262D01*
X192722897Y-57327638D01*
X192738555Y-57350000D01*
X192848402Y-57506877D01*
X193003123Y-57661598D01*
X193182361Y-57787102D01*
X193380670Y-57879575D01*
X193592023Y-57936207D01*
X193774926Y-57952208D01*
X193809998Y-57955277D01*
X193810000Y-57955277D01*
X193810002Y-57955277D01*
X193838254Y-57952805D01*
X194027977Y-57936207D01*
X194239330Y-57879575D01*
X194437639Y-57787102D01*
X194616877Y-57661598D01*
X194771598Y-57506877D01*
X194897102Y-57327639D01*
X194989575Y-57129330D01*
X195046207Y-56917977D01*
X195065258Y-56700214D01*
X195065277Y-56700002D01*
X195065277Y-56699997D01*
X195056630Y-56601161D01*
X195046207Y-56482023D01*
X194989575Y-56270670D01*
X194897102Y-56072362D01*
X194897100Y-56072359D01*
X194897099Y-56072357D01*
X194771599Y-55893124D01*
X194771596Y-55893121D01*
X194616877Y-55738402D01*
X194437639Y-55612898D01*
X194437640Y-55612898D01*
X194437638Y-55612897D01*
X194322067Y-55559006D01*
X194239330Y-55520425D01*
X194239326Y-55520424D01*
X194239322Y-55520422D01*
X194027977Y-55463793D01*
X193810002Y-55444723D01*
X193809998Y-55444723D01*
X193664682Y-55457436D01*
X193592023Y-55463793D01*
X193592020Y-55463793D01*
X193380677Y-55520422D01*
X193380668Y-55520426D01*
X193182361Y-55612898D01*
X193182357Y-55612900D01*
X193003121Y-55738402D01*
X192848402Y-55893121D01*
X192722900Y-56072357D01*
X192722898Y-56072361D01*
X192630426Y-56270668D01*
X192630422Y-56270677D01*
X192573793Y-56482020D01*
X192573793Y-56482024D01*
X192554723Y-56699997D01*
X190215277Y-56699997D01*
X190206630Y-56601161D01*
X190196207Y-56482023D01*
X190139575Y-56270670D01*
X190047102Y-56072362D01*
X190047100Y-56072359D01*
X190047099Y-56072357D01*
X189921599Y-55893124D01*
X189921596Y-55893121D01*
X189766877Y-55738402D01*
X189587639Y-55612898D01*
X189587640Y-55612898D01*
X189587638Y-55612897D01*
X189472067Y-55559006D01*
X189389330Y-55520425D01*
X189389326Y-55520424D01*
X189389322Y-55520422D01*
X189177977Y-55463793D01*
X188960002Y-55444723D01*
X188959998Y-55444723D01*
X188814682Y-55457436D01*
X188742023Y-55463793D01*
X188742020Y-55463793D01*
X188530677Y-55520422D01*
X188530668Y-55520426D01*
X188332361Y-55612898D01*
X188332357Y-55612900D01*
X188153121Y-55738402D01*
X187998402Y-55893121D01*
X187872900Y-56072357D01*
X187872898Y-56072361D01*
X187780426Y-56270668D01*
X187780422Y-56270677D01*
X187723793Y-56482020D01*
X187723793Y-56482024D01*
X187704723Y-56699997D01*
X183845500Y-56699997D01*
X183845499Y-56144383D01*
X183845971Y-56133576D01*
X183850659Y-56080000D01*
X183850659Y-56079999D01*
X183845971Y-56026421D01*
X183845499Y-56015613D01*
X183845499Y-55182129D01*
X183845498Y-55182123D01*
X183845497Y-55182116D01*
X183839091Y-55122517D01*
X183788796Y-54987669D01*
X183711421Y-54884309D01*
X183687004Y-54818848D01*
X183701855Y-54750575D01*
X183711416Y-54735696D01*
X183788796Y-54632331D01*
X183839091Y-54497483D01*
X183845500Y-54437873D01*
X183845499Y-53669993D01*
X187254700Y-53669993D01*
X187254700Y-53670006D01*
X187273864Y-53901297D01*
X187273866Y-53901308D01*
X187330842Y-54126300D01*
X187424075Y-54338848D01*
X187551016Y-54533147D01*
X187551019Y-54533151D01*
X187551021Y-54533153D01*
X187708216Y-54703913D01*
X187708219Y-54703915D01*
X187708222Y-54703918D01*
X187891365Y-54846464D01*
X187891371Y-54846468D01*
X187891374Y-54846470D01*
X188095497Y-54956936D01*
X188185019Y-54987669D01*
X188315015Y-55032297D01*
X188315017Y-55032297D01*
X188315019Y-55032298D01*
X188543951Y-55070500D01*
X188543952Y-55070500D01*
X188776048Y-55070500D01*
X188776049Y-55070500D01*
X189004981Y-55032298D01*
X189224503Y-54956936D01*
X189428626Y-54846470D01*
X189611784Y-54703913D01*
X189768979Y-54533153D01*
X189895924Y-54338849D01*
X189989157Y-54126300D01*
X190046134Y-53901305D01*
X190046135Y-53901297D01*
X190065300Y-53670006D01*
X190065300Y-53669993D01*
X192704700Y-53669993D01*
X192704700Y-53670006D01*
X192723864Y-53901297D01*
X192723866Y-53901308D01*
X192780842Y-54126300D01*
X192874075Y-54338848D01*
X193001016Y-54533147D01*
X193001019Y-54533151D01*
X193001021Y-54533153D01*
X193158216Y-54703913D01*
X193158219Y-54703915D01*
X193158222Y-54703918D01*
X193341365Y-54846464D01*
X193341371Y-54846468D01*
X193341374Y-54846470D01*
X193545497Y-54956936D01*
X193635019Y-54987669D01*
X193765015Y-55032297D01*
X193765017Y-55032297D01*
X193765019Y-55032298D01*
X193993951Y-55070500D01*
X193993952Y-55070500D01*
X194226048Y-55070500D01*
X194226049Y-55070500D01*
X194454981Y-55032298D01*
X194674503Y-54956936D01*
X194878626Y-54846470D01*
X195061784Y-54703913D01*
X195218979Y-54533153D01*
X195345924Y-54338849D01*
X195439157Y-54126300D01*
X195496134Y-53901305D01*
X195496135Y-53901297D01*
X195515300Y-53670006D01*
X195515300Y-53669993D01*
X195504528Y-53539997D01*
X198919341Y-53539997D01*
X198919341Y-53540002D01*
X198924028Y-53593576D01*
X198924500Y-53604383D01*
X198924500Y-54437870D01*
X198924501Y-54437876D01*
X198930908Y-54497483D01*
X198981202Y-54632328D01*
X198981203Y-54632330D01*
X199058578Y-54735689D01*
X199082995Y-54801153D01*
X199068144Y-54869426D01*
X199058578Y-54884311D01*
X198981203Y-54987669D01*
X198981202Y-54987671D01*
X198930908Y-55122517D01*
X198924501Y-55182116D01*
X198924501Y-55182123D01*
X198924500Y-55182135D01*
X198924500Y-56015616D01*
X198924028Y-56026423D01*
X198919341Y-56079997D01*
X198919341Y-56080002D01*
X198924028Y-56133576D01*
X198924500Y-56144383D01*
X198924500Y-56977870D01*
X198924501Y-56977876D01*
X198930908Y-57037483D01*
X198981202Y-57172328D01*
X198981203Y-57172330D01*
X199058578Y-57275689D01*
X199082995Y-57341153D01*
X199068144Y-57409426D01*
X199058578Y-57424311D01*
X198981203Y-57527669D01*
X198981202Y-57527671D01*
X198930908Y-57662517D01*
X198924501Y-57722116D01*
X198924501Y-57722123D01*
X198924500Y-57722135D01*
X198924500Y-59517870D01*
X198924501Y-59517876D01*
X198930908Y-59577483D01*
X198981202Y-59712328D01*
X198981203Y-59712330D01*
X199058578Y-59815689D01*
X199082995Y-59881153D01*
X199068144Y-59949426D01*
X199058578Y-59964311D01*
X198981203Y-60067669D01*
X198981202Y-60067671D01*
X198930908Y-60202517D01*
X198924501Y-60262116D01*
X198924501Y-60262123D01*
X198924500Y-60262135D01*
X198924500Y-61095616D01*
X198924028Y-61106423D01*
X198919341Y-61159997D01*
X198919341Y-61160002D01*
X198924028Y-61213576D01*
X198924500Y-61224383D01*
X198924500Y-62057870D01*
X198924501Y-62057876D01*
X198930908Y-62117483D01*
X198981202Y-62252328D01*
X198981206Y-62252335D01*
X199058889Y-62356105D01*
X199083307Y-62421569D01*
X199068456Y-62489842D01*
X199058890Y-62504727D01*
X198981647Y-62607910D01*
X198981645Y-62607913D01*
X198931403Y-62742620D01*
X198931401Y-62742627D01*
X198925000Y-62802155D01*
X198925000Y-63450000D01*
X199830440Y-63450000D01*
X199799755Y-63503147D01*
X199765000Y-63632857D01*
X199765000Y-63767143D01*
X199799755Y-63896853D01*
X199830440Y-63950000D01*
X198925000Y-63950000D01*
X198925000Y-64597844D01*
X198931401Y-64657372D01*
X198931403Y-64657379D01*
X198981645Y-64792086D01*
X198981646Y-64792088D01*
X199058890Y-64895272D01*
X199083307Y-64960736D01*
X199068456Y-65029009D01*
X199058890Y-65043894D01*
X198981204Y-65147669D01*
X198981202Y-65147671D01*
X198930908Y-65282517D01*
X198924501Y-65342116D01*
X198924501Y-65342123D01*
X198924500Y-65342135D01*
X198924500Y-66175616D01*
X198924028Y-66186423D01*
X198919341Y-66239997D01*
X198919341Y-66240002D01*
X198924028Y-66293576D01*
X198924500Y-66304383D01*
X198924500Y-67137870D01*
X198924501Y-67137876D01*
X198930908Y-67197483D01*
X198981202Y-67332328D01*
X198981203Y-67332330D01*
X199029014Y-67396197D01*
X199055041Y-67430965D01*
X199058578Y-67435689D01*
X199082995Y-67501153D01*
X199068144Y-67569426D01*
X199058578Y-67584311D01*
X198981203Y-67687669D01*
X198981202Y-67687671D01*
X198930908Y-67822517D01*
X198927330Y-67855803D01*
X198924501Y-67882123D01*
X198924500Y-67882135D01*
X198924500Y-68715616D01*
X198924028Y-68726423D01*
X198919341Y-68779997D01*
X198919341Y-68780002D01*
X198924028Y-68833576D01*
X198924500Y-68844383D01*
X198924500Y-69677870D01*
X198924501Y-69677876D01*
X198930908Y-69737483D01*
X198981202Y-69872328D01*
X198981203Y-69872330D01*
X199058578Y-69975689D01*
X199082995Y-70041153D01*
X199068144Y-70109426D01*
X199058578Y-70124311D01*
X198981203Y-70227669D01*
X198981202Y-70227671D01*
X198930908Y-70362517D01*
X198924501Y-70422116D01*
X198924501Y-70422123D01*
X198924500Y-70422135D01*
X198924500Y-72217870D01*
X198924501Y-72217876D01*
X198930908Y-72277483D01*
X198981202Y-72412328D01*
X198981203Y-72412330D01*
X199058578Y-72515689D01*
X199082995Y-72581153D01*
X199068144Y-72649426D01*
X199058578Y-72664311D01*
X198981203Y-72767669D01*
X198981202Y-72767671D01*
X198930908Y-72902517D01*
X198927330Y-72935803D01*
X198924501Y-72962123D01*
X198924500Y-72962135D01*
X198924500Y-73795616D01*
X198924028Y-73806423D01*
X198919341Y-73859997D01*
X198919341Y-73860002D01*
X198924028Y-73913576D01*
X198924500Y-73924383D01*
X198924500Y-74757870D01*
X198924501Y-74757876D01*
X198930908Y-74817483D01*
X198981202Y-74952328D01*
X198981203Y-74952330D01*
X199058578Y-75055689D01*
X199082995Y-75121153D01*
X199068144Y-75189426D01*
X199058578Y-75204311D01*
X198981203Y-75307669D01*
X198981202Y-75307671D01*
X198930908Y-75442517D01*
X198924960Y-75497844D01*
X198924501Y-75502123D01*
X198924500Y-75502135D01*
X198924500Y-76335616D01*
X198924028Y-76346423D01*
X198919341Y-76399997D01*
X198919341Y-76400002D01*
X198924028Y-76453576D01*
X198924500Y-76464383D01*
X198924500Y-77297870D01*
X198924501Y-77297876D01*
X198930908Y-77357483D01*
X198981202Y-77492328D01*
X198981203Y-77492330D01*
X199058578Y-77595689D01*
X199082995Y-77661153D01*
X199068144Y-77729426D01*
X199058578Y-77744311D01*
X198981203Y-77847669D01*
X198981202Y-77847671D01*
X198930908Y-77982517D01*
X198924943Y-78038006D01*
X198924501Y-78042123D01*
X198924500Y-78042135D01*
X198924500Y-78875616D01*
X198924028Y-78886423D01*
X198919341Y-78939997D01*
X198919341Y-78940002D01*
X198924028Y-78993576D01*
X198924500Y-79004383D01*
X198924500Y-79837870D01*
X198924501Y-79837876D01*
X198930908Y-79897483D01*
X198981202Y-80032328D01*
X198981203Y-80032330D01*
X199058578Y-80135689D01*
X199082995Y-80201153D01*
X199068144Y-80269426D01*
X199058578Y-80284311D01*
X198981203Y-80387669D01*
X198981202Y-80387671D01*
X198930908Y-80522517D01*
X198924960Y-80577844D01*
X198924501Y-80582123D01*
X198924500Y-80582135D01*
X198924500Y-81415616D01*
X198924028Y-81426423D01*
X198919341Y-81479997D01*
X198919341Y-81480002D01*
X198924028Y-81533576D01*
X198924500Y-81544383D01*
X198924500Y-82377870D01*
X198924501Y-82377876D01*
X198930908Y-82437483D01*
X198981202Y-82572328D01*
X198981203Y-82572330D01*
X199058578Y-82675689D01*
X199082995Y-82741153D01*
X199068144Y-82809426D01*
X199058578Y-82824311D01*
X198981203Y-82927669D01*
X198981202Y-82927671D01*
X198930908Y-83062517D01*
X198927057Y-83098340D01*
X198924501Y-83122123D01*
X198924500Y-83122135D01*
X198924500Y-84917870D01*
X198924501Y-84917876D01*
X198930908Y-84977483D01*
X198981202Y-85112328D01*
X198981203Y-85112330D01*
X199058578Y-85215689D01*
X199082995Y-85281153D01*
X199068144Y-85349426D01*
X199058578Y-85364311D01*
X198981203Y-85467669D01*
X198981202Y-85467671D01*
X198930908Y-85602517D01*
X198924960Y-85657844D01*
X198924501Y-85662123D01*
X198924500Y-85662135D01*
X198924500Y-86495616D01*
X198924028Y-86506423D01*
X198919341Y-86559997D01*
X198919341Y-86560002D01*
X198924028Y-86613576D01*
X198924500Y-86624383D01*
X198924500Y-87457870D01*
X198924501Y-87457876D01*
X198930908Y-87517483D01*
X198981202Y-87652328D01*
X198981203Y-87652330D01*
X199058578Y-87755689D01*
X199082995Y-87821153D01*
X199068144Y-87889426D01*
X199058578Y-87904311D01*
X198981203Y-88007669D01*
X198981202Y-88007671D01*
X198930908Y-88142517D01*
X198924943Y-88198006D01*
X198924501Y-88202123D01*
X198924500Y-88202135D01*
X198924500Y-89035616D01*
X198924028Y-89046423D01*
X198919341Y-89099997D01*
X198919341Y-89100002D01*
X198924028Y-89153576D01*
X198924500Y-89164383D01*
X198924500Y-89997870D01*
X198924501Y-89997876D01*
X198930908Y-90057483D01*
X198981202Y-90192328D01*
X198981203Y-90192330D01*
X199058578Y-90295689D01*
X199082995Y-90361153D01*
X199068144Y-90429426D01*
X199058578Y-90444311D01*
X198981203Y-90547669D01*
X198981202Y-90547671D01*
X198930908Y-90682517D01*
X198924501Y-90742116D01*
X198924501Y-90742123D01*
X198924500Y-90742135D01*
X198924500Y-91575616D01*
X198924028Y-91586423D01*
X198919341Y-91639997D01*
X198919341Y-91640002D01*
X198924028Y-91693576D01*
X198924500Y-91704383D01*
X198924500Y-92537870D01*
X198924501Y-92537876D01*
X198930908Y-92597483D01*
X198981202Y-92732328D01*
X198981203Y-92732330D01*
X199058578Y-92835689D01*
X199082995Y-92901153D01*
X199068144Y-92969426D01*
X199058578Y-92984311D01*
X198981203Y-93087669D01*
X198981202Y-93087671D01*
X198930908Y-93222517D01*
X198924501Y-93282116D01*
X198924501Y-93282123D01*
X198924500Y-93282135D01*
X198924500Y-94115616D01*
X198924028Y-94126423D01*
X198919341Y-94179997D01*
X198919341Y-94180002D01*
X198924028Y-94233576D01*
X198924500Y-94244383D01*
X198924500Y-95077870D01*
X198924501Y-95077876D01*
X198930908Y-95137483D01*
X198981202Y-95272328D01*
X198981203Y-95272330D01*
X199058578Y-95375689D01*
X199082995Y-95441153D01*
X199068144Y-95509426D01*
X199058578Y-95524311D01*
X198981203Y-95627669D01*
X198981202Y-95627671D01*
X198930908Y-95762517D01*
X198924501Y-95822116D01*
X198924501Y-95822123D01*
X198924500Y-95822135D01*
X198924500Y-97617870D01*
X198924501Y-97617876D01*
X198930908Y-97677483D01*
X198981202Y-97812328D01*
X198981203Y-97812330D01*
X199058578Y-97915689D01*
X199082995Y-97981153D01*
X199068144Y-98049426D01*
X199058578Y-98064311D01*
X198981203Y-98167669D01*
X198981202Y-98167671D01*
X198930908Y-98302517D01*
X198925938Y-98348752D01*
X198924501Y-98362123D01*
X198924500Y-98362135D01*
X198924500Y-99195616D01*
X198924028Y-99206423D01*
X198919341Y-99259997D01*
X198919341Y-99260002D01*
X198924028Y-99313576D01*
X198924500Y-99324383D01*
X198924500Y-100157870D01*
X198924501Y-100157876D01*
X198930908Y-100217483D01*
X198981202Y-100352328D01*
X198981203Y-100352330D01*
X199058578Y-100455689D01*
X199082995Y-100521153D01*
X199068144Y-100589426D01*
X199058578Y-100604311D01*
X198981203Y-100707669D01*
X198981202Y-100707671D01*
X198930908Y-100842517D01*
X198924501Y-100902116D01*
X198924501Y-100902123D01*
X198924500Y-100902135D01*
X198924500Y-101735616D01*
X198924028Y-101746423D01*
X198919341Y-101799997D01*
X198919341Y-101800002D01*
X198924028Y-101853576D01*
X198924500Y-101864383D01*
X198924500Y-102697870D01*
X198924501Y-102697876D01*
X198930908Y-102757483D01*
X198981202Y-102892328D01*
X198981206Y-102892335D01*
X199067452Y-103007544D01*
X199067455Y-103007547D01*
X199182664Y-103093793D01*
X199182671Y-103093797D01*
X199317517Y-103144091D01*
X199317516Y-103144091D01*
X199324444Y-103144835D01*
X199377127Y-103150500D01*
X200210616Y-103150499D01*
X200221425Y-103150971D01*
X200275000Y-103155659D01*
X200328575Y-103150971D01*
X200339384Y-103150499D01*
X202972871Y-103150499D01*
X202972872Y-103150499D01*
X203032483Y-103144091D01*
X203167331Y-103093796D01*
X203282546Y-103007546D01*
X203368796Y-102892331D01*
X203419091Y-102757483D01*
X203425500Y-102697873D01*
X203425499Y-100902128D01*
X203419091Y-100842517D01*
X203399707Y-100790547D01*
X203368797Y-100707671D01*
X203368795Y-100707668D01*
X203291421Y-100604309D01*
X203267004Y-100538848D01*
X203281855Y-100470575D01*
X203291416Y-100455696D01*
X203368796Y-100352331D01*
X203419091Y-100217483D01*
X203425500Y-100157873D01*
X203425499Y-98362128D01*
X203419091Y-98302517D01*
X203414353Y-98289815D01*
X203368797Y-98167671D01*
X203368795Y-98167668D01*
X203291421Y-98064309D01*
X203267004Y-97998848D01*
X203281855Y-97930575D01*
X203291416Y-97915696D01*
X203368796Y-97812331D01*
X203419091Y-97677483D01*
X203425500Y-97617873D01*
X203425499Y-95822128D01*
X203419091Y-95762517D01*
X203399707Y-95710547D01*
X203368797Y-95627671D01*
X203368795Y-95627668D01*
X203291421Y-95524309D01*
X203267004Y-95458848D01*
X203281855Y-95390575D01*
X203291416Y-95375696D01*
X203368796Y-95272331D01*
X203419091Y-95137483D01*
X203425500Y-95077873D01*
X203425499Y-93282128D01*
X203419091Y-93222517D01*
X203388635Y-93140861D01*
X203368797Y-93087671D01*
X203368795Y-93087668D01*
X203291421Y-92984309D01*
X203267004Y-92918848D01*
X203281855Y-92850575D01*
X203291416Y-92835696D01*
X203368796Y-92732331D01*
X203419091Y-92597483D01*
X203425500Y-92537873D01*
X203425500Y-92514500D01*
X203445185Y-92447461D01*
X203497989Y-92401706D01*
X203549500Y-92390500D01*
X205577770Y-92390500D01*
X205644809Y-92410185D01*
X205665451Y-92426819D01*
X209402930Y-96164297D01*
X209436415Y-96225620D01*
X209435456Y-96282412D01*
X209433866Y-96288691D01*
X209433865Y-96288695D01*
X209414700Y-96519993D01*
X209414700Y-96520006D01*
X209433864Y-96751297D01*
X209433866Y-96751308D01*
X209490842Y-96976300D01*
X209584075Y-97188848D01*
X209711016Y-97383147D01*
X209711019Y-97383151D01*
X209711021Y-97383153D01*
X209868216Y-97553913D01*
X209868219Y-97553915D01*
X209868222Y-97553918D01*
X210051365Y-97696464D01*
X210051371Y-97696468D01*
X210051374Y-97696470D01*
X210255497Y-97806936D01*
X210332179Y-97833261D01*
X210475015Y-97882297D01*
X210475017Y-97882297D01*
X210475019Y-97882298D01*
X210703951Y-97920500D01*
X210703952Y-97920500D01*
X210936048Y-97920500D01*
X210936049Y-97920500D01*
X211164981Y-97882298D01*
X211384503Y-97806936D01*
X211588626Y-97696470D01*
X211771784Y-97553913D01*
X211780130Y-97544846D01*
X211840010Y-97508854D01*
X211909849Y-97510949D01*
X211967468Y-97550469D01*
X211987544Y-97585491D01*
X212016203Y-97662330D01*
X212016206Y-97662335D01*
X212102452Y-97777544D01*
X212102455Y-97777547D01*
X212217664Y-97863793D01*
X212217671Y-97863797D01*
X212252140Y-97876653D01*
X212352517Y-97914091D01*
X212412127Y-97920500D01*
X212485500Y-97920499D01*
X212552538Y-97940183D01*
X212598294Y-97992986D01*
X212609500Y-98044499D01*
X212609500Y-98986082D01*
X212609500Y-99133918D01*
X212609500Y-99133920D01*
X212609499Y-99133920D01*
X212638340Y-99278907D01*
X212638343Y-99278917D01*
X212694912Y-99415488D01*
X212694919Y-99415501D01*
X212777048Y-99538415D01*
X212777051Y-99538419D01*
X212881580Y-99642948D01*
X212881584Y-99642951D01*
X213004498Y-99725080D01*
X213004511Y-99725087D01*
X213141082Y-99781656D01*
X213141087Y-99781658D01*
X213141091Y-99781658D01*
X213141092Y-99781659D01*
X213286079Y-99810500D01*
X213286082Y-99810500D01*
X219853337Y-99810500D01*
X219920376Y-99830185D01*
X219954912Y-99863377D01*
X219979954Y-99899141D01*
X220140858Y-100060045D01*
X220140861Y-100060047D01*
X220327266Y-100190568D01*
X220533504Y-100286739D01*
X220753308Y-100345635D01*
X220915230Y-100359801D01*
X220979998Y-100365468D01*
X220980000Y-100365468D01*
X220980002Y-100365468D01*
X221036673Y-100360509D01*
X221206692Y-100345635D01*
X221426496Y-100286739D01*
X221632734Y-100190568D01*
X221819139Y-100060047D01*
X221980047Y-99899139D01*
X222110568Y-99712734D01*
X222206739Y-99506496D01*
X222265635Y-99286692D01*
X222285468Y-99060000D01*
X222265635Y-98833308D01*
X222206739Y-98613504D01*
X222110568Y-98407266D01*
X221980047Y-98220861D01*
X221980045Y-98220858D01*
X221819141Y-98059954D01*
X221632734Y-97929432D01*
X221632732Y-97929431D01*
X221426497Y-97833261D01*
X221426488Y-97833258D01*
X221206697Y-97774366D01*
X221206693Y-97774365D01*
X221206692Y-97774365D01*
X221206691Y-97774364D01*
X221206686Y-97774364D01*
X220980002Y-97754532D01*
X220979998Y-97754532D01*
X220753313Y-97774364D01*
X220753302Y-97774366D01*
X220533511Y-97833258D01*
X220533502Y-97833261D01*
X220327267Y-97929431D01*
X220327265Y-97929432D01*
X220140858Y-98059954D01*
X219979954Y-98220858D01*
X219954912Y-98256623D01*
X219900335Y-98300248D01*
X219853337Y-98309500D01*
X214234500Y-98309500D01*
X214167461Y-98289815D01*
X214121706Y-98237011D01*
X214110500Y-98185500D01*
X214110500Y-98044499D01*
X214130185Y-97977460D01*
X214182989Y-97931705D01*
X214234500Y-97920499D01*
X214307871Y-97920499D01*
X214307872Y-97920499D01*
X214367483Y-97914091D01*
X214502331Y-97863796D01*
X214617546Y-97777546D01*
X214703796Y-97662331D01*
X214754091Y-97527483D01*
X214760500Y-97467873D01*
X214760499Y-95572128D01*
X214754091Y-95512517D01*
X214752938Y-95509426D01*
X214703797Y-95377671D01*
X214703793Y-95377664D01*
X214617547Y-95262455D01*
X214617544Y-95262452D01*
X214502335Y-95176206D01*
X214502328Y-95176202D01*
X214367482Y-95125908D01*
X214367483Y-95125908D01*
X214307883Y-95119501D01*
X214307881Y-95119500D01*
X214307873Y-95119500D01*
X214307864Y-95119500D01*
X212412129Y-95119500D01*
X212412123Y-95119501D01*
X212352516Y-95125908D01*
X212217671Y-95176202D01*
X212217664Y-95176206D01*
X212102455Y-95262452D01*
X212102452Y-95262455D01*
X212016206Y-95377664D01*
X212016203Y-95377670D01*
X211987544Y-95454508D01*
X211945672Y-95510441D01*
X211880208Y-95534858D01*
X211811935Y-95520006D01*
X211780135Y-95495158D01*
X211771784Y-95486087D01*
X211771778Y-95486082D01*
X211771777Y-95486081D01*
X211588634Y-95343535D01*
X211588628Y-95343531D01*
X211384504Y-95233064D01*
X211384495Y-95233061D01*
X211164984Y-95157702D01*
X210974450Y-95125908D01*
X210936049Y-95119500D01*
X210703951Y-95119500D01*
X210575725Y-95140896D01*
X210506360Y-95132514D01*
X210467635Y-95106268D01*
X209341366Y-93979998D01*
X219674532Y-93979998D01*
X219674532Y-93980001D01*
X219694364Y-94206686D01*
X219694366Y-94206697D01*
X219753258Y-94426488D01*
X219753261Y-94426497D01*
X219849431Y-94632732D01*
X219849432Y-94632734D01*
X219979954Y-94819141D01*
X220140858Y-94980045D01*
X220140861Y-94980047D01*
X220327266Y-95110568D01*
X220533504Y-95206739D01*
X220753308Y-95265635D01*
X220915230Y-95279801D01*
X220979998Y-95285468D01*
X220980000Y-95285468D01*
X220980002Y-95285468D01*
X221036673Y-95280509D01*
X221206692Y-95265635D01*
X221426496Y-95206739D01*
X221632734Y-95110568D01*
X221819139Y-94980047D01*
X221980047Y-94819139D01*
X222110568Y-94632734D01*
X222206739Y-94426496D01*
X222265635Y-94206692D01*
X222285468Y-93980000D01*
X222265635Y-93753308D01*
X222206739Y-93533504D01*
X222110568Y-93327266D01*
X221980047Y-93140861D01*
X221980045Y-93140858D01*
X221819141Y-92979954D01*
X221632734Y-92849432D01*
X221632732Y-92849431D01*
X221426497Y-92753261D01*
X221426488Y-92753258D01*
X221206697Y-92694366D01*
X221206693Y-92694365D01*
X221206692Y-92694365D01*
X221206691Y-92694364D01*
X221206686Y-92694364D01*
X220980002Y-92674532D01*
X220979998Y-92674532D01*
X220753313Y-92694364D01*
X220753302Y-92694366D01*
X220533511Y-92753258D01*
X220533502Y-92753261D01*
X220327267Y-92849431D01*
X220327265Y-92849432D01*
X220140858Y-92979954D01*
X219979954Y-93140858D01*
X219849432Y-93327265D01*
X219849431Y-93327267D01*
X219753261Y-93533502D01*
X219753258Y-93533511D01*
X219694366Y-93753302D01*
X219694364Y-93753313D01*
X219674532Y-93979998D01*
X209341366Y-93979998D01*
X206418421Y-91057052D01*
X206418414Y-91057046D01*
X206326816Y-90995843D01*
X206326815Y-90995843D01*
X206295500Y-90974919D01*
X206295488Y-90974912D01*
X206158917Y-90918343D01*
X206158907Y-90918340D01*
X206013920Y-90889500D01*
X206013918Y-90889500D01*
X203549499Y-90889500D01*
X203482460Y-90869815D01*
X203436705Y-90817011D01*
X203425499Y-90765500D01*
X203425499Y-90742129D01*
X203425498Y-90742123D01*
X203425497Y-90742116D01*
X203419091Y-90682517D01*
X203368796Y-90547669D01*
X203291421Y-90444309D01*
X203267004Y-90378848D01*
X203281855Y-90310575D01*
X203291416Y-90295696D01*
X203368796Y-90192331D01*
X203419091Y-90057483D01*
X203425500Y-89997873D01*
X203425500Y-89974500D01*
X203445185Y-89907461D01*
X203497989Y-89861706D01*
X203549500Y-89850500D01*
X210693920Y-89850500D01*
X210791462Y-89831096D01*
X210838913Y-89821658D01*
X210975495Y-89765084D01*
X211024729Y-89732186D01*
X211098416Y-89682952D01*
X211402952Y-89378416D01*
X211452186Y-89304729D01*
X211485084Y-89255495D01*
X211518875Y-89173917D01*
X211541659Y-89118912D01*
X211570500Y-88973917D01*
X211570500Y-88826082D01*
X211570500Y-87611198D01*
X211590185Y-87544159D01*
X211618338Y-87513344D01*
X211620756Y-87511462D01*
X211771784Y-87393913D01*
X211780130Y-87384846D01*
X211840010Y-87348854D01*
X211909849Y-87350949D01*
X211967468Y-87390469D01*
X211987544Y-87425491D01*
X212016203Y-87502330D01*
X212016206Y-87502335D01*
X212102452Y-87617544D01*
X212102455Y-87617547D01*
X212217664Y-87703793D01*
X212217671Y-87703797D01*
X212352517Y-87754091D01*
X212352516Y-87754091D01*
X212359444Y-87754835D01*
X212412127Y-87760500D01*
X214307872Y-87760499D01*
X214367483Y-87754091D01*
X214502331Y-87703796D01*
X214617546Y-87617546D01*
X214703796Y-87502331D01*
X214754091Y-87367483D01*
X214760500Y-87307873D01*
X214760499Y-85412128D01*
X214754091Y-85352517D01*
X214752938Y-85349426D01*
X214703797Y-85217671D01*
X214703793Y-85217664D01*
X214617547Y-85102455D01*
X214617544Y-85102452D01*
X214502335Y-85016206D01*
X214502328Y-85016202D01*
X214367482Y-84965908D01*
X214367483Y-84965908D01*
X214307883Y-84959501D01*
X214307881Y-84959500D01*
X214307873Y-84959500D01*
X214307865Y-84959500D01*
X214234500Y-84959500D01*
X214167461Y-84939815D01*
X214121706Y-84887011D01*
X214110500Y-84835500D01*
X214110500Y-84694500D01*
X214130185Y-84627461D01*
X214182989Y-84581706D01*
X214234500Y-84570500D01*
X219853337Y-84570500D01*
X219920376Y-84590185D01*
X219954912Y-84623377D01*
X219979954Y-84659141D01*
X220140858Y-84820045D01*
X220140861Y-84820047D01*
X220327266Y-84950568D01*
X220533504Y-85046739D01*
X220753308Y-85105635D01*
X220915230Y-85119801D01*
X220979998Y-85125468D01*
X220980000Y-85125468D01*
X220980002Y-85125468D01*
X221036673Y-85120509D01*
X221206692Y-85105635D01*
X221426496Y-85046739D01*
X221632734Y-84950568D01*
X221819139Y-84820047D01*
X221980047Y-84659139D01*
X222110568Y-84472734D01*
X222206739Y-84266496D01*
X222265635Y-84046692D01*
X222285468Y-83820000D01*
X222283121Y-83793179D01*
X222266316Y-83601092D01*
X222265635Y-83593308D01*
X222206739Y-83373504D01*
X222110568Y-83167266D01*
X221980047Y-82980861D01*
X221980045Y-82980858D01*
X221819141Y-82819954D01*
X221632734Y-82689432D01*
X221632732Y-82689431D01*
X221426497Y-82593261D01*
X221426488Y-82593258D01*
X221206697Y-82534366D01*
X221206693Y-82534365D01*
X221206692Y-82534365D01*
X221206691Y-82534364D01*
X221206686Y-82534364D01*
X220980002Y-82514532D01*
X220979998Y-82514532D01*
X220753313Y-82534364D01*
X220753302Y-82534366D01*
X220533511Y-82593258D01*
X220533502Y-82593261D01*
X220327267Y-82689431D01*
X220327265Y-82689432D01*
X220140858Y-82819954D01*
X219979954Y-82980858D01*
X219954912Y-83016623D01*
X219900335Y-83060248D01*
X219853337Y-83069500D01*
X213286080Y-83069500D01*
X213141092Y-83098340D01*
X213141082Y-83098343D01*
X213004511Y-83154912D01*
X213004498Y-83154919D01*
X212881584Y-83237048D01*
X212881580Y-83237051D01*
X212777051Y-83341580D01*
X212777048Y-83341584D01*
X212694919Y-83464498D01*
X212694912Y-83464511D01*
X212638343Y-83601082D01*
X212638340Y-83601092D01*
X212609500Y-83746079D01*
X212609500Y-84835500D01*
X212589815Y-84902539D01*
X212537011Y-84948294D01*
X212485502Y-84959500D01*
X212412130Y-84959500D01*
X212412123Y-84959501D01*
X212352516Y-84965908D01*
X212217671Y-85016202D01*
X212217664Y-85016206D01*
X212102455Y-85102452D01*
X212102452Y-85102455D01*
X212016206Y-85217664D01*
X212016203Y-85217670D01*
X211987544Y-85294508D01*
X211945672Y-85350441D01*
X211880208Y-85374858D01*
X211811935Y-85360006D01*
X211780135Y-85335158D01*
X211771784Y-85326087D01*
X211771778Y-85326082D01*
X211771777Y-85326081D01*
X211588634Y-85183535D01*
X211588628Y-85183531D01*
X211384504Y-85073064D01*
X211384495Y-85073061D01*
X211164984Y-84997702D01*
X210974450Y-84965908D01*
X210936049Y-84959500D01*
X210703951Y-84959500D01*
X210665550Y-84965908D01*
X210475015Y-84997702D01*
X210255504Y-85073061D01*
X210255495Y-85073064D01*
X210051371Y-85183531D01*
X210051365Y-85183535D01*
X209868222Y-85326081D01*
X209868219Y-85326084D01*
X209868216Y-85326086D01*
X209868216Y-85326087D01*
X209833028Y-85364312D01*
X209711016Y-85496852D01*
X209584075Y-85691151D01*
X209490842Y-85903699D01*
X209433866Y-86128691D01*
X209433864Y-86128702D01*
X209414700Y-86359993D01*
X209414700Y-86360006D01*
X209433864Y-86591297D01*
X209433866Y-86591308D01*
X209490842Y-86816300D01*
X209584075Y-87028848D01*
X209711016Y-87223147D01*
X209711019Y-87223151D01*
X209711021Y-87223153D01*
X209868216Y-87393913D01*
X210019244Y-87511462D01*
X210021662Y-87513344D01*
X210062475Y-87570055D01*
X210069500Y-87611198D01*
X210069500Y-88225500D01*
X210049815Y-88292539D01*
X209997011Y-88338294D01*
X209945500Y-88349500D01*
X203549499Y-88349500D01*
X203482460Y-88329815D01*
X203436705Y-88277011D01*
X203425499Y-88225500D01*
X203425499Y-88202129D01*
X203425498Y-88202123D01*
X203425497Y-88202116D01*
X203419091Y-88142517D01*
X203368796Y-88007669D01*
X203291421Y-87904309D01*
X203267004Y-87838848D01*
X203281855Y-87770575D01*
X203291416Y-87755696D01*
X203368796Y-87652331D01*
X203419091Y-87517483D01*
X203425500Y-87457873D01*
X203425500Y-87434500D01*
X203445185Y-87367461D01*
X203497989Y-87321706D01*
X203549500Y-87310500D01*
X204343920Y-87310500D01*
X204441462Y-87291096D01*
X204488913Y-87281658D01*
X204625495Y-87225084D01*
X204674729Y-87192186D01*
X204748416Y-87142952D01*
X207284548Y-84606818D01*
X207345871Y-84573334D01*
X207372229Y-84570500D01*
X208353920Y-84570500D01*
X208451462Y-84551096D01*
X208498913Y-84541658D01*
X208635495Y-84485084D01*
X208684729Y-84452186D01*
X208758416Y-84402952D01*
X211402951Y-81758416D01*
X211485084Y-81635495D01*
X211541658Y-81498913D01*
X211546583Y-81474155D01*
X211557151Y-81421027D01*
X211570500Y-81353920D01*
X211570500Y-77451198D01*
X211590185Y-77384159D01*
X211618338Y-77353344D01*
X211620756Y-77351462D01*
X211771784Y-77233913D01*
X211780130Y-77224846D01*
X211840010Y-77188854D01*
X211909849Y-77190949D01*
X211967468Y-77230469D01*
X211987544Y-77265491D01*
X212016203Y-77342330D01*
X212016206Y-77342335D01*
X212102452Y-77457544D01*
X212102455Y-77457547D01*
X212217664Y-77543793D01*
X212217671Y-77543797D01*
X212352517Y-77594091D01*
X212352516Y-77594091D01*
X212359444Y-77594835D01*
X212412127Y-77600500D01*
X213647769Y-77600499D01*
X213714808Y-77620184D01*
X213735450Y-77636818D01*
X214151580Y-78052948D01*
X214151584Y-78052951D01*
X214274498Y-78135080D01*
X214274511Y-78135087D01*
X214380511Y-78178993D01*
X214411087Y-78191658D01*
X214411091Y-78191658D01*
X214411092Y-78191659D01*
X214556079Y-78220500D01*
X214556082Y-78220500D01*
X214703917Y-78220500D01*
X215537770Y-78220500D01*
X215604809Y-78240185D01*
X215625451Y-78256819D01*
X216691580Y-79322948D01*
X216691584Y-79322951D01*
X216814498Y-79405080D01*
X216814511Y-79405087D01*
X216951080Y-79461655D01*
X216951087Y-79461658D01*
X216951091Y-79461658D01*
X216951092Y-79461659D01*
X217096079Y-79490500D01*
X217096082Y-79490500D01*
X217243917Y-79490500D01*
X219853337Y-79490500D01*
X219920376Y-79510185D01*
X219954912Y-79543377D01*
X219979954Y-79579141D01*
X220140858Y-79740045D01*
X220140861Y-79740047D01*
X220327266Y-79870568D01*
X220533504Y-79966739D01*
X220753308Y-80025635D01*
X220915230Y-80039801D01*
X220979998Y-80045468D01*
X220980000Y-80045468D01*
X220980002Y-80045468D01*
X221036673Y-80040509D01*
X221206692Y-80025635D01*
X221426496Y-79966739D01*
X221632734Y-79870568D01*
X221819139Y-79740047D01*
X221980047Y-79579139D01*
X222110568Y-79392734D01*
X222206739Y-79186496D01*
X222265635Y-78966692D01*
X222285468Y-78740000D01*
X222265635Y-78513308D01*
X222206739Y-78293504D01*
X222110568Y-78087266D01*
X221980047Y-77900861D01*
X221980045Y-77900858D01*
X221819141Y-77739954D01*
X221632734Y-77609432D01*
X221632732Y-77609431D01*
X221426497Y-77513261D01*
X221426488Y-77513258D01*
X221206697Y-77454366D01*
X221206693Y-77454365D01*
X221206692Y-77454365D01*
X221206691Y-77454364D01*
X221206686Y-77454364D01*
X220980002Y-77434532D01*
X220979998Y-77434532D01*
X220753313Y-77454364D01*
X220753302Y-77454366D01*
X220533511Y-77513258D01*
X220533502Y-77513261D01*
X220327267Y-77609431D01*
X220327265Y-77609432D01*
X220140858Y-77739954D01*
X219979954Y-77900858D01*
X219954912Y-77936623D01*
X219900335Y-77980248D01*
X219853337Y-77989500D01*
X217532229Y-77989500D01*
X217465190Y-77969815D01*
X217444548Y-77953181D01*
X216378421Y-76887052D01*
X216378414Y-76887046D01*
X216296975Y-76832631D01*
X216296974Y-76832631D01*
X216255501Y-76804919D01*
X216255488Y-76804912D01*
X216118917Y-76748343D01*
X216118907Y-76748340D01*
X215973920Y-76719500D01*
X215973918Y-76719500D01*
X214992229Y-76719500D01*
X214925190Y-76699815D01*
X214904548Y-76683181D01*
X214796818Y-76575451D01*
X214763333Y-76514128D01*
X214760499Y-76487770D01*
X214760499Y-75252129D01*
X214760498Y-75252123D01*
X214756492Y-75214858D01*
X214754091Y-75192517D01*
X214752938Y-75189426D01*
X214703797Y-75057671D01*
X214703793Y-75057664D01*
X214617547Y-74942455D01*
X214617544Y-74942452D01*
X214502335Y-74856206D01*
X214502328Y-74856202D01*
X214367482Y-74805908D01*
X214367483Y-74805908D01*
X214307883Y-74799501D01*
X214307881Y-74799500D01*
X214307873Y-74799500D01*
X214307864Y-74799500D01*
X212412129Y-74799500D01*
X212412123Y-74799501D01*
X212352516Y-74805908D01*
X212217671Y-74856202D01*
X212217664Y-74856206D01*
X212102455Y-74942452D01*
X212102452Y-74942455D01*
X212016206Y-75057664D01*
X212016203Y-75057670D01*
X211987544Y-75134508D01*
X211945672Y-75190441D01*
X211880208Y-75214858D01*
X211811935Y-75200006D01*
X211780135Y-75175158D01*
X211771784Y-75166087D01*
X211771778Y-75166082D01*
X211771777Y-75166081D01*
X211588634Y-75023535D01*
X211588628Y-75023531D01*
X211384504Y-74913064D01*
X211384495Y-74913061D01*
X211164984Y-74837702D01*
X210974450Y-74805908D01*
X210936049Y-74799500D01*
X210703951Y-74799500D01*
X210665550Y-74805908D01*
X210475015Y-74837702D01*
X210255504Y-74913061D01*
X210255495Y-74913064D01*
X210051371Y-75023531D01*
X210051365Y-75023535D01*
X209868222Y-75166081D01*
X209868219Y-75166084D01*
X209868216Y-75166086D01*
X209868216Y-75166087D01*
X209833028Y-75204312D01*
X209711016Y-75336852D01*
X209584075Y-75531151D01*
X209490842Y-75743699D01*
X209433866Y-75968691D01*
X209433864Y-75968702D01*
X209414700Y-76199993D01*
X209414700Y-76200006D01*
X209433864Y-76431297D01*
X209433866Y-76431308D01*
X209490842Y-76656300D01*
X209584075Y-76868848D01*
X209711016Y-77063147D01*
X209711019Y-77063151D01*
X209711021Y-77063153D01*
X209868216Y-77233913D01*
X210019244Y-77351462D01*
X210021662Y-77353344D01*
X210062475Y-77410055D01*
X210069500Y-77451198D01*
X210069500Y-80917770D01*
X210049815Y-80984809D01*
X210033181Y-81005451D01*
X208005451Y-83033181D01*
X207944128Y-83066666D01*
X207917770Y-83069500D01*
X206936080Y-83069500D01*
X206791092Y-83098340D01*
X206791082Y-83098343D01*
X206654511Y-83154912D01*
X206654498Y-83154919D01*
X206531584Y-83237048D01*
X206531580Y-83237051D01*
X203995451Y-85773181D01*
X203934128Y-85806666D01*
X203907770Y-85809500D01*
X203549499Y-85809500D01*
X203482460Y-85789815D01*
X203436705Y-85737011D01*
X203425499Y-85685500D01*
X203425499Y-85662129D01*
X203425498Y-85662123D01*
X203425497Y-85662116D01*
X203419091Y-85602517D01*
X203368796Y-85467669D01*
X203291421Y-85364309D01*
X203267004Y-85298848D01*
X203281855Y-85230575D01*
X203291416Y-85215696D01*
X203368796Y-85112331D01*
X203419091Y-84977483D01*
X203425500Y-84917873D01*
X203425499Y-83122128D01*
X203419091Y-83062517D01*
X203408149Y-83033181D01*
X203368797Y-82927671D01*
X203368795Y-82927668D01*
X203291421Y-82824309D01*
X203267004Y-82758848D01*
X203281855Y-82690575D01*
X203291416Y-82675696D01*
X203368796Y-82572331D01*
X203419091Y-82437483D01*
X203425500Y-82377873D01*
X203425499Y-80582128D01*
X203419091Y-80522517D01*
X203378726Y-80414294D01*
X203368797Y-80387671D01*
X203368795Y-80387668D01*
X203355061Y-80369322D01*
X203291421Y-80284309D01*
X203267004Y-80218848D01*
X203281855Y-80150575D01*
X203291416Y-80135696D01*
X203368796Y-80032331D01*
X203419091Y-79897483D01*
X203425500Y-79837873D01*
X203425500Y-79664500D01*
X203445185Y-79597461D01*
X203497989Y-79551706D01*
X203549500Y-79540500D01*
X205453331Y-79540500D01*
X205453347Y-79540501D01*
X205460943Y-79540501D01*
X205619054Y-79540501D01*
X205619057Y-79540501D01*
X205771785Y-79499577D01*
X205837462Y-79461658D01*
X205908716Y-79420520D01*
X206020520Y-79308716D01*
X206020520Y-79308715D01*
X206037948Y-79291287D01*
X206037953Y-79291280D01*
X206220520Y-79108716D01*
X206299577Y-78971784D01*
X206340501Y-78819057D01*
X206340501Y-78660942D01*
X206340501Y-78653347D01*
X206340500Y-78653329D01*
X206340500Y-73960097D01*
X206360185Y-73893058D01*
X206376819Y-73872416D01*
X208031371Y-72217864D01*
X210712475Y-69536759D01*
X210773796Y-69503276D01*
X210789925Y-69500865D01*
X210794323Y-69500500D01*
X210794335Y-69500500D01*
X211039614Y-69459571D01*
X211274810Y-69378828D01*
X211493509Y-69260474D01*
X211689744Y-69107738D01*
X211858164Y-68924785D01*
X211994173Y-68716607D01*
X212012560Y-68674689D01*
X212057517Y-68621204D01*
X212124253Y-68600514D01*
X212126116Y-68600500D01*
X215713884Y-68600500D01*
X215780923Y-68620185D01*
X215826678Y-68672989D01*
X215827440Y-68674689D01*
X215845827Y-68716608D01*
X215981833Y-68924782D01*
X215981836Y-68924785D01*
X216150256Y-69107738D01*
X216346491Y-69260474D01*
X216565190Y-69378828D01*
X216800386Y-69459571D01*
X217045665Y-69500500D01*
X217294335Y-69500500D01*
X217539614Y-69459571D01*
X217774810Y-69378828D01*
X217993509Y-69260474D01*
X218189744Y-69107738D01*
X218358164Y-68924785D01*
X218494173Y-68716607D01*
X218554095Y-68579998D01*
X219674532Y-68579998D01*
X219674532Y-68580001D01*
X219694364Y-68806686D01*
X219694366Y-68806697D01*
X219753258Y-69026488D01*
X219753261Y-69026497D01*
X219849431Y-69232732D01*
X219849432Y-69232734D01*
X219979954Y-69419141D01*
X220140858Y-69580045D01*
X220140861Y-69580047D01*
X220327266Y-69710568D01*
X220533504Y-69806739D01*
X220753308Y-69865635D01*
X220915230Y-69879801D01*
X220979998Y-69885468D01*
X220980000Y-69885468D01*
X220980002Y-69885468D01*
X221036673Y-69880509D01*
X221206692Y-69865635D01*
X221426496Y-69806739D01*
X221632734Y-69710568D01*
X221819139Y-69580047D01*
X221980047Y-69419139D01*
X222110568Y-69232734D01*
X222206739Y-69026496D01*
X222265635Y-68806692D01*
X222283673Y-68600514D01*
X222285468Y-68580001D01*
X222285468Y-68579998D01*
X222265635Y-68353313D01*
X222265635Y-68353308D01*
X222206739Y-68133504D01*
X222110568Y-67927266D01*
X222012839Y-67787693D01*
X221980045Y-67740858D01*
X221819141Y-67579954D01*
X221632734Y-67449432D01*
X221632732Y-67449431D01*
X221426497Y-67353261D01*
X221426488Y-67353258D01*
X221206697Y-67294366D01*
X221206693Y-67294365D01*
X221206692Y-67294365D01*
X221206691Y-67294364D01*
X221206686Y-67294364D01*
X220980002Y-67274532D01*
X220979998Y-67274532D01*
X220753313Y-67294364D01*
X220753302Y-67294366D01*
X220533511Y-67353258D01*
X220533502Y-67353261D01*
X220327267Y-67449431D01*
X220327265Y-67449432D01*
X220140858Y-67579954D01*
X219979954Y-67740858D01*
X219849432Y-67927265D01*
X219849431Y-67927267D01*
X219753261Y-68133502D01*
X219753258Y-68133511D01*
X219694366Y-68353302D01*
X219694364Y-68353313D01*
X219674532Y-68579998D01*
X218554095Y-68579998D01*
X218594063Y-68488881D01*
X218655108Y-68247821D01*
X218655109Y-68247812D01*
X218675643Y-68000005D01*
X218675643Y-67999994D01*
X218655109Y-67752187D01*
X218655107Y-67752175D01*
X218594063Y-67511118D01*
X218494173Y-67283393D01*
X218358166Y-67075217D01*
X218302497Y-67014745D01*
X218189744Y-66892262D01*
X217993509Y-66739526D01*
X217993507Y-66739525D01*
X217993506Y-66739524D01*
X217774811Y-66621172D01*
X217774802Y-66621169D01*
X217539616Y-66540429D01*
X217294335Y-66499500D01*
X217045665Y-66499500D01*
X216800383Y-66540429D01*
X216565197Y-66621169D01*
X216565188Y-66621172D01*
X216346493Y-66739524D01*
X216150257Y-66892261D01*
X215981833Y-67075217D01*
X215845827Y-67283391D01*
X215827440Y-67325311D01*
X215782483Y-67378796D01*
X215715747Y-67399486D01*
X215713884Y-67399500D01*
X212126116Y-67399500D01*
X212059077Y-67379815D01*
X212013322Y-67327011D01*
X212012560Y-67325311D01*
X211994172Y-67283391D01*
X211858166Y-67075217D01*
X211802497Y-67014745D01*
X211689744Y-66892262D01*
X211493509Y-66739526D01*
X211493507Y-66739525D01*
X211493506Y-66739524D01*
X211274811Y-66621172D01*
X211274802Y-66621169D01*
X211039616Y-66540429D01*
X210794335Y-66499500D01*
X210545665Y-66499500D01*
X210300383Y-66540429D01*
X210065197Y-66621169D01*
X210065188Y-66621172D01*
X209846493Y-66739524D01*
X209650257Y-66892261D01*
X209481833Y-67075217D01*
X209345826Y-67283393D01*
X209245936Y-67511118D01*
X209184892Y-67752175D01*
X209184890Y-67752187D01*
X209164357Y-67999994D01*
X209164357Y-68000005D01*
X209184890Y-68247812D01*
X209184892Y-68247824D01*
X209245936Y-68488881D01*
X209345826Y-68716606D01*
X209483720Y-68927669D01*
X209503907Y-68994558D01*
X209484727Y-69061744D01*
X209467592Y-69083171D01*
X205371286Y-73179478D01*
X205259481Y-73291282D01*
X205259479Y-73291285D01*
X205209361Y-73378094D01*
X205209359Y-73378096D01*
X205180425Y-73428209D01*
X205180424Y-73428210D01*
X205180423Y-73428215D01*
X205139499Y-73580943D01*
X205139499Y-73580945D01*
X205139499Y-73749046D01*
X205139500Y-73749059D01*
X205139500Y-78215500D01*
X205119815Y-78282539D01*
X205067011Y-78328294D01*
X205015500Y-78339500D01*
X203549499Y-78339500D01*
X203482460Y-78319815D01*
X203436705Y-78267011D01*
X203425499Y-78215500D01*
X203425499Y-78042129D01*
X203425498Y-78042123D01*
X203425497Y-78042116D01*
X203419091Y-77982517D01*
X203414353Y-77969815D01*
X203368797Y-77847671D01*
X203368795Y-77847668D01*
X203355071Y-77829335D01*
X203291421Y-77744309D01*
X203267004Y-77678848D01*
X203281855Y-77610575D01*
X203291416Y-77595696D01*
X203368796Y-77492331D01*
X203419091Y-77357483D01*
X203425500Y-77297873D01*
X203425499Y-75502128D01*
X203419091Y-75442517D01*
X203368796Y-75307669D01*
X203291421Y-75204309D01*
X203267004Y-75138848D01*
X203281855Y-75070575D01*
X203291416Y-75055696D01*
X203368796Y-74952331D01*
X203419091Y-74817483D01*
X203425500Y-74757873D01*
X203425499Y-72962128D01*
X203419091Y-72902517D01*
X203368796Y-72767669D01*
X203291421Y-72664309D01*
X203267004Y-72598848D01*
X203281855Y-72530575D01*
X203291416Y-72515696D01*
X203368796Y-72412331D01*
X203419091Y-72277483D01*
X203425500Y-72217873D01*
X203425499Y-70422128D01*
X203419091Y-70362517D01*
X203368796Y-70227669D01*
X203291421Y-70124309D01*
X203267004Y-70058848D01*
X203281855Y-69990575D01*
X203291416Y-69975696D01*
X203368796Y-69872331D01*
X203419091Y-69737483D01*
X203425500Y-69677873D01*
X203425499Y-67882128D01*
X203419091Y-67822517D01*
X203388635Y-67740861D01*
X203368797Y-67687671D01*
X203368795Y-67687668D01*
X203291421Y-67584309D01*
X203267004Y-67518848D01*
X203281855Y-67450575D01*
X203291416Y-67435696D01*
X203368796Y-67332331D01*
X203419091Y-67197483D01*
X203425500Y-67137873D01*
X203425499Y-65342128D01*
X203419091Y-65282517D01*
X203370241Y-65151544D01*
X203368797Y-65147671D01*
X203368795Y-65147668D01*
X203291109Y-65043893D01*
X203266692Y-64978430D01*
X203281543Y-64910157D01*
X203291110Y-64895271D01*
X203368352Y-64792089D01*
X203368354Y-64792086D01*
X203418596Y-64657379D01*
X203418598Y-64657372D01*
X203424999Y-64597844D01*
X203425000Y-64597827D01*
X203425000Y-63950000D01*
X200719560Y-63950000D01*
X200750245Y-63896853D01*
X200785000Y-63767143D01*
X200785000Y-63632857D01*
X200750245Y-63503147D01*
X200748425Y-63499994D01*
X209164357Y-63499994D01*
X209164357Y-63500005D01*
X209184890Y-63747812D01*
X209184892Y-63747824D01*
X209245936Y-63988881D01*
X209345826Y-64216606D01*
X209481833Y-64424782D01*
X209481836Y-64424785D01*
X209650256Y-64607738D01*
X209846491Y-64760474D01*
X210065190Y-64878828D01*
X210300386Y-64959571D01*
X210545665Y-65000500D01*
X210794335Y-65000500D01*
X211039614Y-64959571D01*
X211274810Y-64878828D01*
X211493509Y-64760474D01*
X211689744Y-64607738D01*
X211858164Y-64424785D01*
X211994173Y-64216607D01*
X212094063Y-63988881D01*
X212155108Y-63747821D01*
X212155109Y-63747812D01*
X212175643Y-63500005D01*
X212175643Y-63499994D01*
X215664357Y-63499994D01*
X215664357Y-63500005D01*
X215684890Y-63747812D01*
X215684892Y-63747824D01*
X215745936Y-63988881D01*
X215845826Y-64216606D01*
X215981833Y-64424782D01*
X215981836Y-64424785D01*
X216150256Y-64607738D01*
X216346491Y-64760474D01*
X216565190Y-64878828D01*
X216800386Y-64959571D01*
X217045665Y-65000500D01*
X217294335Y-65000500D01*
X217539614Y-64959571D01*
X217774810Y-64878828D01*
X217993509Y-64760474D01*
X218189744Y-64607738D01*
X218358164Y-64424785D01*
X218494173Y-64216607D01*
X218594063Y-63988881D01*
X218655108Y-63747821D01*
X218655109Y-63747812D01*
X218675643Y-63500005D01*
X218675643Y-63499998D01*
X219674532Y-63499998D01*
X219674532Y-63500001D01*
X219694364Y-63726686D01*
X219694366Y-63726697D01*
X219753258Y-63946488D01*
X219753261Y-63946497D01*
X219849431Y-64152731D01*
X219849432Y-64152734D01*
X219979954Y-64339141D01*
X220140858Y-64500045D01*
X220140861Y-64500047D01*
X220327266Y-64630568D01*
X220533504Y-64726739D01*
X220753308Y-64785635D01*
X220915230Y-64799801D01*
X220979998Y-64805468D01*
X220980000Y-64805468D01*
X220980002Y-64805468D01*
X221036673Y-64800509D01*
X221206692Y-64785635D01*
X221426496Y-64726739D01*
X221632734Y-64630568D01*
X221819139Y-64500047D01*
X221980047Y-64339139D01*
X222110568Y-64152734D01*
X222206739Y-63946496D01*
X222265635Y-63726692D01*
X222285468Y-63500000D01*
X222285467Y-63499994D01*
X222265635Y-63273313D01*
X222265635Y-63273308D01*
X222206739Y-63053504D01*
X222110568Y-62847266D01*
X221980047Y-62660861D01*
X221980045Y-62660858D01*
X221819141Y-62499954D01*
X221632734Y-62369432D01*
X221632732Y-62369431D01*
X221426497Y-62273261D01*
X221426488Y-62273258D01*
X221206697Y-62214366D01*
X221206693Y-62214365D01*
X221206692Y-62214365D01*
X221206691Y-62214364D01*
X221206686Y-62214364D01*
X220980002Y-62194532D01*
X220979998Y-62194532D01*
X220753313Y-62214364D01*
X220753302Y-62214366D01*
X220533511Y-62273258D01*
X220533502Y-62273261D01*
X220327267Y-62369431D01*
X220327265Y-62369432D01*
X220140858Y-62499954D01*
X219979954Y-62660858D01*
X219849432Y-62847265D01*
X219849431Y-62847267D01*
X219753261Y-63053502D01*
X219753258Y-63053511D01*
X219694366Y-63273302D01*
X219694364Y-63273313D01*
X219674532Y-63499998D01*
X218675643Y-63499998D01*
X218675643Y-63499994D01*
X218655109Y-63252187D01*
X218655107Y-63252175D01*
X218594063Y-63011118D01*
X218494173Y-62783393D01*
X218358166Y-62575217D01*
X218303339Y-62515659D01*
X218189744Y-62392262D01*
X217993509Y-62239526D01*
X217993507Y-62239525D01*
X217993506Y-62239524D01*
X217774811Y-62121172D01*
X217774802Y-62121169D01*
X217539616Y-62040429D01*
X217294335Y-61999500D01*
X217045665Y-61999500D01*
X216800383Y-62040429D01*
X216565197Y-62121169D01*
X216565188Y-62121172D01*
X216346493Y-62239524D01*
X216150257Y-62392261D01*
X215981833Y-62575217D01*
X215845826Y-62783393D01*
X215745936Y-63011118D01*
X215684892Y-63252175D01*
X215684890Y-63252187D01*
X215664357Y-63499994D01*
X212175643Y-63499994D01*
X212155109Y-63252187D01*
X212155107Y-63252175D01*
X212094063Y-63011118D01*
X211994173Y-62783393D01*
X211858166Y-62575217D01*
X211803339Y-62515659D01*
X211689744Y-62392262D01*
X211493509Y-62239526D01*
X211493507Y-62239525D01*
X211493506Y-62239524D01*
X211274811Y-62121172D01*
X211274802Y-62121169D01*
X211039616Y-62040429D01*
X210794335Y-61999500D01*
X210545665Y-61999500D01*
X210300383Y-62040429D01*
X210065197Y-62121169D01*
X210065188Y-62121172D01*
X209846493Y-62239524D01*
X209650257Y-62392261D01*
X209481833Y-62575217D01*
X209345826Y-62783393D01*
X209245936Y-63011118D01*
X209184892Y-63252175D01*
X209184890Y-63252187D01*
X209164357Y-63499994D01*
X200748425Y-63499994D01*
X200719560Y-63450000D01*
X203425000Y-63450000D01*
X203425000Y-62802172D01*
X203424999Y-62802155D01*
X203418598Y-62742627D01*
X203418596Y-62742620D01*
X203368354Y-62607913D01*
X203368352Y-62607910D01*
X203291110Y-62504729D01*
X203266692Y-62439265D01*
X203281543Y-62370992D01*
X203291105Y-62356111D01*
X203368796Y-62252331D01*
X203419091Y-62117483D01*
X203425500Y-62057873D01*
X203425499Y-60262128D01*
X203419091Y-60202517D01*
X203409220Y-60176052D01*
X203368797Y-60067671D01*
X203368795Y-60067668D01*
X203291421Y-59964309D01*
X203267004Y-59898848D01*
X203281855Y-59830575D01*
X203291416Y-59815696D01*
X203368796Y-59712331D01*
X203419091Y-59577483D01*
X203425500Y-59517873D01*
X203425499Y-58298711D01*
X214049500Y-58298711D01*
X214049500Y-58541288D01*
X214081161Y-58781785D01*
X214143947Y-59016104D01*
X214221738Y-59203908D01*
X214236776Y-59240212D01*
X214358064Y-59450289D01*
X214358066Y-59450292D01*
X214358067Y-59450293D01*
X214505733Y-59642736D01*
X214505739Y-59642743D01*
X214677256Y-59814260D01*
X214677263Y-59814266D01*
X214758809Y-59876838D01*
X214869711Y-59961936D01*
X215079788Y-60083224D01*
X215303900Y-60176054D01*
X215538211Y-60238838D01*
X215715028Y-60262116D01*
X215778711Y-60270500D01*
X215778712Y-60270500D01*
X216021289Y-60270500D01*
X216069388Y-60264167D01*
X216261789Y-60238838D01*
X216496100Y-60176054D01*
X216720212Y-60083224D01*
X216930289Y-59961936D01*
X217122738Y-59814265D01*
X217294265Y-59642738D01*
X217441936Y-59450289D01*
X217563224Y-59240212D01*
X217656054Y-59016100D01*
X217718838Y-58781789D01*
X217750500Y-58541288D01*
X217750500Y-58298712D01*
X217718838Y-58058211D01*
X217656054Y-57823900D01*
X217563224Y-57599788D01*
X217441936Y-57389711D01*
X217363542Y-57287546D01*
X217294266Y-57197263D01*
X217294260Y-57197256D01*
X217122743Y-57025739D01*
X217122736Y-57025733D01*
X216930293Y-56878067D01*
X216930292Y-56878066D01*
X216930289Y-56878064D01*
X216720212Y-56756776D01*
X216720205Y-56756773D01*
X216496104Y-56663947D01*
X216261785Y-56601161D01*
X216021289Y-56569500D01*
X216021288Y-56569500D01*
X215778712Y-56569500D01*
X215778711Y-56569500D01*
X215538214Y-56601161D01*
X215303895Y-56663947D01*
X215079794Y-56756773D01*
X215079785Y-56756777D01*
X214869706Y-56878067D01*
X214677263Y-57025733D01*
X214677256Y-57025739D01*
X214505739Y-57197256D01*
X214505733Y-57197263D01*
X214358067Y-57389706D01*
X214236777Y-57599785D01*
X214236773Y-57599794D01*
X214143947Y-57823895D01*
X214081161Y-58058214D01*
X214049500Y-58298711D01*
X203425499Y-58298711D01*
X203425499Y-57722128D01*
X203419091Y-57662517D01*
X203418748Y-57661598D01*
X203368797Y-57527671D01*
X203368795Y-57527668D01*
X203353231Y-57506877D01*
X203291421Y-57424309D01*
X203267004Y-57358848D01*
X203281855Y-57290575D01*
X203291416Y-57275696D01*
X203368796Y-57172331D01*
X203419091Y-57037483D01*
X203425500Y-56977873D01*
X203425499Y-55182128D01*
X203419091Y-55122517D01*
X203368796Y-54987669D01*
X203291421Y-54884309D01*
X203267004Y-54818848D01*
X203281855Y-54750575D01*
X203291416Y-54735696D01*
X203368796Y-54632331D01*
X203419091Y-54497483D01*
X203425500Y-54437873D01*
X203425499Y-53339994D01*
X209415202Y-53339994D01*
X209415202Y-53340005D01*
X209434361Y-53571218D01*
X209491317Y-53796135D01*
X209584516Y-54008609D01*
X209668811Y-54137633D01*
X210377861Y-53428584D01*
X210400667Y-53513694D01*
X210459910Y-53616306D01*
X210543694Y-53700090D01*
X210646306Y-53759333D01*
X210731414Y-53782138D01*
X210021201Y-54492351D01*
X210051649Y-54516050D01*
X210255697Y-54626476D01*
X210255706Y-54626479D01*
X210475139Y-54701811D01*
X210703993Y-54740000D01*
X210936007Y-54740000D01*
X211164860Y-54701811D01*
X211384293Y-54626479D01*
X211384301Y-54626476D01*
X211588355Y-54516047D01*
X211618797Y-54492351D01*
X211618798Y-54492350D01*
X210908585Y-53782137D01*
X210993694Y-53759333D01*
X211096306Y-53700090D01*
X211180090Y-53616306D01*
X211239333Y-53513694D01*
X211262138Y-53428585D01*
X211923181Y-54089628D01*
X211956666Y-54150951D01*
X211959500Y-54177308D01*
X211959500Y-54287869D01*
X211959501Y-54287876D01*
X211965908Y-54347483D01*
X212016202Y-54482328D01*
X212016206Y-54482335D01*
X212102452Y-54597544D01*
X212102455Y-54597547D01*
X212217664Y-54683793D01*
X212217671Y-54683797D01*
X212352517Y-54734091D01*
X212352516Y-54734091D01*
X212359444Y-54734835D01*
X212412127Y-54740500D01*
X214307872Y-54740499D01*
X214367483Y-54734091D01*
X214502331Y-54683796D01*
X214617546Y-54597546D01*
X214703796Y-54482331D01*
X214754091Y-54347483D01*
X214760500Y-54287873D01*
X214760500Y-54214500D01*
X214780185Y-54147461D01*
X214832989Y-54101706D01*
X214884500Y-54090500D01*
X219853337Y-54090500D01*
X219920376Y-54110185D01*
X219954912Y-54143377D01*
X219979954Y-54179141D01*
X220140858Y-54340045D01*
X220140861Y-54340047D01*
X220327266Y-54470568D01*
X220533504Y-54566739D01*
X220753308Y-54625635D01*
X220915230Y-54639801D01*
X220979998Y-54645468D01*
X220980000Y-54645468D01*
X220980002Y-54645468D01*
X221036673Y-54640509D01*
X221206692Y-54625635D01*
X221426496Y-54566739D01*
X221632734Y-54470568D01*
X221819139Y-54340047D01*
X221980047Y-54179139D01*
X222110568Y-53992734D01*
X222206739Y-53786496D01*
X222265635Y-53566692D01*
X222285468Y-53340000D01*
X222285467Y-53339994D01*
X222274418Y-53213699D01*
X222265635Y-53113308D01*
X222206739Y-52893504D01*
X222110568Y-52687266D01*
X221980047Y-52500861D01*
X221980045Y-52500858D01*
X221819141Y-52339954D01*
X221632734Y-52209432D01*
X221632732Y-52209431D01*
X221426497Y-52113261D01*
X221426488Y-52113258D01*
X221206697Y-52054366D01*
X221206693Y-52054365D01*
X221206692Y-52054365D01*
X221206691Y-52054364D01*
X221206686Y-52054364D01*
X220980002Y-52034532D01*
X220979998Y-52034532D01*
X220753313Y-52054364D01*
X220753302Y-52054366D01*
X220533511Y-52113258D01*
X220533502Y-52113261D01*
X220327267Y-52209431D01*
X220327265Y-52209432D01*
X220140858Y-52339954D01*
X219979954Y-52500858D01*
X219954912Y-52536623D01*
X219900335Y-52580248D01*
X219853337Y-52589500D01*
X214884499Y-52589500D01*
X214817460Y-52569815D01*
X214771705Y-52517011D01*
X214760499Y-52465500D01*
X214760499Y-52392129D01*
X214760498Y-52392123D01*
X214760497Y-52392116D01*
X214754091Y-52332517D01*
X214730587Y-52269500D01*
X214703797Y-52197671D01*
X214703793Y-52197664D01*
X214617547Y-52082455D01*
X214617544Y-52082452D01*
X214502335Y-51996206D01*
X214502328Y-51996202D01*
X214367482Y-51945908D01*
X214367483Y-51945908D01*
X214307883Y-51939501D01*
X214307881Y-51939500D01*
X214307873Y-51939500D01*
X214307864Y-51939500D01*
X212412129Y-51939500D01*
X212412123Y-51939501D01*
X212352516Y-51945908D01*
X212217671Y-51996202D01*
X212217664Y-51996206D01*
X212102455Y-52082452D01*
X212102452Y-52082455D01*
X212016206Y-52197664D01*
X212016202Y-52197671D01*
X211965908Y-52332517D01*
X211960474Y-52383064D01*
X211959501Y-52392123D01*
X211959500Y-52392135D01*
X211959500Y-52502691D01*
X211939815Y-52569730D01*
X211923181Y-52590372D01*
X211262138Y-53251414D01*
X211239333Y-53166306D01*
X211180090Y-53063694D01*
X211096306Y-52979910D01*
X210993694Y-52920667D01*
X210908584Y-52897861D01*
X211618797Y-52187647D01*
X211618797Y-52187645D01*
X211588360Y-52163955D01*
X211588354Y-52163951D01*
X211384302Y-52053523D01*
X211384293Y-52053520D01*
X211164860Y-51978188D01*
X210936007Y-51940000D01*
X210703993Y-51940000D01*
X210475139Y-51978188D01*
X210255706Y-52053520D01*
X210255697Y-52053523D01*
X210051650Y-52163949D01*
X210021200Y-52187647D01*
X210731415Y-52897861D01*
X210646306Y-52920667D01*
X210543694Y-52979910D01*
X210459910Y-53063694D01*
X210400667Y-53166306D01*
X210377861Y-53251414D01*
X209668812Y-52542365D01*
X209584516Y-52671391D01*
X209584514Y-52671395D01*
X209491317Y-52883864D01*
X209434361Y-53108781D01*
X209415202Y-53339994D01*
X203425499Y-53339994D01*
X203425499Y-52642128D01*
X203419091Y-52582517D01*
X203414353Y-52569815D01*
X203368797Y-52447671D01*
X203368793Y-52447664D01*
X203282547Y-52332455D01*
X203282544Y-52332452D01*
X203167335Y-52246206D01*
X203167328Y-52246202D01*
X203032482Y-52195908D01*
X203032483Y-52195908D01*
X202972883Y-52189501D01*
X202972881Y-52189500D01*
X202972873Y-52189500D01*
X202972865Y-52189500D01*
X200339385Y-52189500D01*
X200328578Y-52189028D01*
X200275001Y-52184341D01*
X200274997Y-52184341D01*
X200221419Y-52189028D01*
X200210613Y-52189500D01*
X199377129Y-52189500D01*
X199377123Y-52189501D01*
X199317516Y-52195908D01*
X199182671Y-52246202D01*
X199182664Y-52246206D01*
X199067455Y-52332452D01*
X199067452Y-52332455D01*
X198981206Y-52447664D01*
X198981202Y-52447671D01*
X198930908Y-52582517D01*
X198925149Y-52636087D01*
X198924501Y-52642123D01*
X198924500Y-52642135D01*
X198924500Y-53475616D01*
X198924028Y-53486423D01*
X198919341Y-53539997D01*
X195504528Y-53539997D01*
X195496135Y-53438702D01*
X195496133Y-53438691D01*
X195439157Y-53213699D01*
X195345924Y-53001151D01*
X195218983Y-52806852D01*
X195218980Y-52806849D01*
X195218979Y-52806847D01*
X195061784Y-52636087D01*
X195061779Y-52636083D01*
X195061777Y-52636081D01*
X194878634Y-52493535D01*
X194878628Y-52493531D01*
X194674504Y-52383064D01*
X194674495Y-52383061D01*
X194454984Y-52307702D01*
X194283282Y-52279050D01*
X194226049Y-52269500D01*
X193993951Y-52269500D01*
X193948164Y-52277140D01*
X193765015Y-52307702D01*
X193545504Y-52383061D01*
X193545495Y-52383064D01*
X193341371Y-52493531D01*
X193341365Y-52493535D01*
X193158222Y-52636081D01*
X193158219Y-52636084D01*
X193158216Y-52636086D01*
X193158216Y-52636087D01*
X193125717Y-52671391D01*
X193001016Y-52806852D01*
X192874075Y-53001151D01*
X192780842Y-53213699D01*
X192723866Y-53438691D01*
X192723864Y-53438702D01*
X192704700Y-53669993D01*
X190065300Y-53669993D01*
X190046135Y-53438702D01*
X190046133Y-53438691D01*
X189989157Y-53213699D01*
X189895924Y-53001151D01*
X189768983Y-52806852D01*
X189768980Y-52806849D01*
X189768979Y-52806847D01*
X189611784Y-52636087D01*
X189611779Y-52636083D01*
X189611777Y-52636081D01*
X189428634Y-52493535D01*
X189428628Y-52493531D01*
X189224504Y-52383064D01*
X189224495Y-52383061D01*
X189004984Y-52307702D01*
X188833282Y-52279050D01*
X188776049Y-52269500D01*
X188543951Y-52269500D01*
X188498164Y-52277140D01*
X188315015Y-52307702D01*
X188095504Y-52383061D01*
X188095495Y-52383064D01*
X187891371Y-52493531D01*
X187891365Y-52493535D01*
X187708222Y-52636081D01*
X187708219Y-52636084D01*
X187708216Y-52636086D01*
X187708216Y-52636087D01*
X187675717Y-52671391D01*
X187551016Y-52806852D01*
X187424075Y-53001151D01*
X187330842Y-53213699D01*
X187273866Y-53438691D01*
X187273864Y-53438702D01*
X187254700Y-53669993D01*
X183845499Y-53669993D01*
X183845499Y-53604383D01*
X183845971Y-53593576D01*
X183850659Y-53540000D01*
X183850659Y-53539999D01*
X183845971Y-53486421D01*
X183845499Y-53475613D01*
X183845499Y-52642129D01*
X183845498Y-52642123D01*
X183845497Y-52642116D01*
X183839091Y-52582517D01*
X183834353Y-52569815D01*
X183788797Y-52447671D01*
X183788793Y-52447664D01*
X183702547Y-52332455D01*
X183702544Y-52332452D01*
X183587335Y-52246206D01*
X183587328Y-52246202D01*
X183452482Y-52195908D01*
X183452483Y-52195908D01*
X183392883Y-52189501D01*
X183392881Y-52189500D01*
X183392873Y-52189500D01*
X183392865Y-52189500D01*
X182559380Y-52189500D01*
X182548573Y-52189028D01*
X182522024Y-52186705D01*
X182495001Y-52184341D01*
X182494998Y-52184341D01*
X182441424Y-52189028D01*
X182430617Y-52189500D01*
X179797129Y-52189500D01*
X179797123Y-52189501D01*
X179737516Y-52195908D01*
X179602671Y-52246202D01*
X179602664Y-52246206D01*
X179487455Y-52332452D01*
X179487452Y-52332455D01*
X179401206Y-52447664D01*
X179401202Y-52447671D01*
X179350908Y-52582517D01*
X179345149Y-52636087D01*
X179344501Y-52642123D01*
X179344500Y-52642135D01*
X179344500Y-52815500D01*
X179324815Y-52882539D01*
X179272011Y-52928294D01*
X179220500Y-52939500D01*
X175146670Y-52939500D01*
X175146654Y-52939499D01*
X175139058Y-52939499D01*
X174980943Y-52939499D01*
X174904579Y-52959961D01*
X174828214Y-52980423D01*
X174828209Y-52980426D01*
X174691290Y-53059475D01*
X174691282Y-53059481D01*
X172239481Y-55511282D01*
X172239479Y-55511285D01*
X172189361Y-55598094D01*
X172189359Y-55598096D01*
X172160425Y-55648209D01*
X172160424Y-55648210D01*
X172160423Y-55648215D01*
X172119499Y-55800943D01*
X172119499Y-55800945D01*
X172119499Y-55969046D01*
X172119500Y-55969059D01*
X172119500Y-62775500D01*
X172099815Y-62842539D01*
X172047011Y-62888294D01*
X171995500Y-62899500D01*
X170259057Y-62899500D01*
X170100943Y-62899500D01*
X169948215Y-62940423D01*
X169948214Y-62940423D01*
X169948212Y-62940424D01*
X169948209Y-62940425D01*
X169898096Y-62969359D01*
X169898095Y-62969360D01*
X169896429Y-62970322D01*
X169827898Y-63009888D01*
X169765899Y-63026500D01*
X158797822Y-63026500D01*
X158730783Y-63006815D01*
X158694013Y-62970322D01*
X158674479Y-62940423D01*
X158569183Y-62779255D01*
X158414794Y-62611544D01*
X158414793Y-62611543D01*
X158414791Y-62611541D01*
X158414787Y-62611538D01*
X158234909Y-62471533D01*
X158234900Y-62471527D01*
X158224789Y-62466056D01*
X158175197Y-62416838D01*
X158160087Y-62348621D01*
X158184257Y-62283065D01*
X158224789Y-62247944D01*
X158234900Y-62242472D01*
X158234906Y-62242469D01*
X158414794Y-62102456D01*
X158569183Y-61934745D01*
X158693862Y-61743909D01*
X158785430Y-61535155D01*
X158841390Y-61314176D01*
X158841391Y-61314168D01*
X158860214Y-61087006D01*
X158860214Y-61086993D01*
X158841391Y-60859831D01*
X158841389Y-60859820D01*
X158785430Y-60638844D01*
X158693862Y-60430091D01*
X158569185Y-60239257D01*
X158414791Y-60071541D01*
X158414787Y-60071538D01*
X158234909Y-59931533D01*
X158234900Y-59931527D01*
X158224789Y-59926056D01*
X158175197Y-59876838D01*
X158160087Y-59808621D01*
X158184257Y-59743065D01*
X158224789Y-59707944D01*
X158234900Y-59702472D01*
X158234906Y-59702469D01*
X158414794Y-59562456D01*
X158569183Y-59394745D01*
X158693862Y-59203909D01*
X158785430Y-58995155D01*
X158841390Y-58774176D01*
X158860214Y-58547000D01*
X158860214Y-58546993D01*
X158841391Y-58319831D01*
X158841389Y-58319820D01*
X158785430Y-58098844D01*
X158693862Y-57890091D01*
X158569185Y-57699257D01*
X158414791Y-57531541D01*
X158414787Y-57531538D01*
X158234909Y-57391533D01*
X158234895Y-57391524D01*
X158224259Y-57385768D01*
X158174669Y-57336548D01*
X158159563Y-57268330D01*
X158183735Y-57202775D01*
X158224265Y-57167658D01*
X158234632Y-57162047D01*
X158234633Y-57162046D01*
X158260983Y-57141537D01*
X158260984Y-57141536D01*
X157609409Y-56489962D01*
X157672993Y-56472925D01*
X157787007Y-56407099D01*
X157880099Y-56314007D01*
X157945925Y-56199993D01*
X157962962Y-56136409D01*
X158613125Y-56786571D01*
X158693420Y-56663669D01*
X158784954Y-56454993D01*
X158840894Y-56234093D01*
X158840896Y-56234085D01*
X158859712Y-56007006D01*
X158859712Y-56006993D01*
X158840896Y-55779914D01*
X158840894Y-55779906D01*
X158835527Y-55758711D01*
X161979500Y-55758711D01*
X161979500Y-56001288D01*
X162011161Y-56241785D01*
X162073947Y-56476104D01*
X162166687Y-56699997D01*
X162166776Y-56700212D01*
X162288064Y-56910289D01*
X162288066Y-56910292D01*
X162288067Y-56910293D01*
X162435733Y-57102736D01*
X162435739Y-57102743D01*
X162607256Y-57274260D01*
X162607263Y-57274266D01*
X162676819Y-57327638D01*
X162799711Y-57421936D01*
X163009788Y-57543224D01*
X163233900Y-57636054D01*
X163468211Y-57698838D01*
X163645028Y-57722116D01*
X163708711Y-57730500D01*
X163708712Y-57730500D01*
X163951289Y-57730500D01*
X163999388Y-57724167D01*
X164191789Y-57698838D01*
X164426100Y-57636054D01*
X164650212Y-57543224D01*
X164860289Y-57421936D01*
X165052738Y-57274265D01*
X165224265Y-57102738D01*
X165371936Y-56910289D01*
X165493224Y-56700212D01*
X165586054Y-56476100D01*
X165648838Y-56241789D01*
X165680500Y-56001288D01*
X165680500Y-55758712D01*
X165648838Y-55518211D01*
X165586054Y-55283900D01*
X165493224Y-55059788D01*
X165371936Y-54849711D01*
X165260063Y-54703915D01*
X165224266Y-54657263D01*
X165224260Y-54657256D01*
X165052743Y-54485739D01*
X165052736Y-54485733D01*
X164860293Y-54338067D01*
X164860292Y-54338066D01*
X164860289Y-54338064D01*
X164650212Y-54216776D01*
X164650205Y-54216773D01*
X164426104Y-54123947D01*
X164191785Y-54061161D01*
X163951289Y-54029500D01*
X163951288Y-54029500D01*
X163708712Y-54029500D01*
X163708711Y-54029500D01*
X163468214Y-54061161D01*
X163233895Y-54123947D01*
X163009794Y-54216773D01*
X163009785Y-54216777D01*
X162799706Y-54338067D01*
X162607263Y-54485733D01*
X162607256Y-54485739D01*
X162435739Y-54657256D01*
X162435733Y-54657263D01*
X162288067Y-54849706D01*
X162288064Y-54849710D01*
X162288064Y-54849711D01*
X162286770Y-54851952D01*
X162166777Y-55059785D01*
X162166773Y-55059794D01*
X162073947Y-55283895D01*
X162011161Y-55518214D01*
X161979500Y-55758711D01*
X158835527Y-55758711D01*
X158784954Y-55559006D01*
X158693420Y-55350330D01*
X158613124Y-55227427D01*
X157962962Y-55877590D01*
X157945925Y-55814007D01*
X157880099Y-55699993D01*
X157787007Y-55606901D01*
X157672993Y-55541075D01*
X157609407Y-55524037D01*
X158260983Y-54872462D01*
X158234626Y-54851948D01*
X158034230Y-54743500D01*
X158034219Y-54743495D01*
X157818701Y-54669507D01*
X157593935Y-54632000D01*
X157366065Y-54632000D01*
X157141298Y-54669507D01*
X156925780Y-54743495D01*
X156925769Y-54743500D01*
X156725366Y-54851952D01*
X156699015Y-54872461D01*
X156699015Y-54872463D01*
X157350590Y-55524037D01*
X157287007Y-55541075D01*
X157172993Y-55606901D01*
X157079901Y-55699993D01*
X157014075Y-55814007D01*
X156997037Y-55877591D01*
X156346874Y-55227428D01*
X156266578Y-55350333D01*
X156266577Y-55350335D01*
X156175045Y-55559006D01*
X156119105Y-55779906D01*
X156119103Y-55779914D01*
X156100288Y-56006993D01*
X156100288Y-56007006D01*
X156119103Y-56234085D01*
X156119105Y-56234093D01*
X156175045Y-56454993D01*
X156266577Y-56663664D01*
X156266579Y-56663668D01*
X156346874Y-56786570D01*
X156997037Y-56136408D01*
X157014075Y-56199993D01*
X157079901Y-56314007D01*
X157172993Y-56407099D01*
X157287007Y-56472925D01*
X157350590Y-56489962D01*
X156699015Y-57141536D01*
X156699015Y-57141538D01*
X156725360Y-57162043D01*
X156725370Y-57162050D01*
X156735737Y-57167660D01*
X156785328Y-57216879D01*
X156800436Y-57285095D01*
X156776266Y-57350651D01*
X156735743Y-57385767D01*
X156725100Y-57391527D01*
X156725090Y-57391533D01*
X156545212Y-57531538D01*
X156545208Y-57531541D01*
X156390814Y-57699257D01*
X156266137Y-57890091D01*
X156174569Y-58098844D01*
X156118610Y-58319820D01*
X156118608Y-58319831D01*
X156099786Y-58546993D01*
X156099786Y-58547006D01*
X156118608Y-58774168D01*
X156118610Y-58774179D01*
X156174569Y-58995155D01*
X156266137Y-59203908D01*
X156390814Y-59394742D01*
X156483450Y-59495371D01*
X156504163Y-59517872D01*
X156545208Y-59562458D01*
X156545212Y-59562461D01*
X156648349Y-59642736D01*
X156725094Y-59702469D01*
X156725096Y-59702470D01*
X156725099Y-59702472D01*
X156735214Y-59707946D01*
X156784804Y-59757166D01*
X156799911Y-59825382D01*
X156775740Y-59890938D01*
X156735214Y-59926054D01*
X156725099Y-59931527D01*
X156725090Y-59931533D01*
X156545212Y-60071538D01*
X156545208Y-60071541D01*
X156390814Y-60239257D01*
X156266137Y-60430091D01*
X156174569Y-60638844D01*
X156118610Y-60859820D01*
X156118608Y-60859831D01*
X156099786Y-61086993D01*
X156099786Y-61087006D01*
X156118608Y-61314168D01*
X156118610Y-61314179D01*
X156174569Y-61535155D01*
X156266137Y-61743908D01*
X156390814Y-61934742D01*
X156390817Y-61934745D01*
X156504163Y-62057872D01*
X156545208Y-62102458D01*
X156545212Y-62102461D01*
X156569248Y-62121169D01*
X156725094Y-62242469D01*
X156725096Y-62242470D01*
X156725099Y-62242472D01*
X156735214Y-62247946D01*
X156784804Y-62297166D01*
X156799911Y-62365382D01*
X156775740Y-62430938D01*
X156735214Y-62466054D01*
X156725099Y-62471527D01*
X156725090Y-62471533D01*
X156545212Y-62611538D01*
X156545208Y-62611541D01*
X156390814Y-62779257D01*
X156266137Y-62970091D01*
X156174569Y-63178844D01*
X156118610Y-63399820D01*
X156118608Y-63399831D01*
X156099786Y-63626993D01*
X156099786Y-63627006D01*
X156118608Y-63854168D01*
X156118610Y-63854179D01*
X156174569Y-64075155D01*
X156266137Y-64283908D01*
X156390814Y-64474742D01*
X156390816Y-64474744D01*
X156390817Y-64474745D01*
X156534261Y-64630567D01*
X156545208Y-64642458D01*
X156545212Y-64642461D01*
X156653491Y-64726738D01*
X156725094Y-64782469D01*
X156725096Y-64782470D01*
X156725099Y-64782472D01*
X156735214Y-64787946D01*
X156784804Y-64837166D01*
X156799911Y-64905382D01*
X156775740Y-64970938D01*
X156735214Y-65006054D01*
X156725099Y-65011527D01*
X156725090Y-65011533D01*
X156545212Y-65151538D01*
X156545208Y-65151541D01*
X156390814Y-65319257D01*
X156266137Y-65510091D01*
X156174569Y-65718844D01*
X156118610Y-65939820D01*
X156118608Y-65939831D01*
X156099786Y-66166993D01*
X156099786Y-66167006D01*
X156118608Y-66394168D01*
X156118610Y-66394179D01*
X156174569Y-66615155D01*
X156266137Y-66823908D01*
X156390814Y-67014742D01*
X156390817Y-67014745D01*
X156504163Y-67137872D01*
X156545208Y-67182458D01*
X156545212Y-67182461D01*
X156663505Y-67274532D01*
X156725094Y-67322469D01*
X156725096Y-67322470D01*
X156725099Y-67322472D01*
X156831060Y-67379815D01*
X156925574Y-67430963D01*
X157037529Y-67469397D01*
X157141173Y-67504979D01*
X157141175Y-67504979D01*
X157141177Y-67504980D01*
X157366023Y-67542500D01*
X157366024Y-67542500D01*
X157593976Y-67542500D01*
X157593977Y-67542500D01*
X157818823Y-67504980D01*
X158034426Y-67430963D01*
X158234906Y-67322469D01*
X158414794Y-67182456D01*
X158569183Y-67014745D01*
X158693862Y-66823909D01*
X158785430Y-66615155D01*
X158841390Y-66394176D01*
X158841391Y-66394168D01*
X158860214Y-66167006D01*
X158860214Y-66166993D01*
X158841391Y-65939831D01*
X158841389Y-65939820D01*
X158785430Y-65718844D01*
X158693862Y-65510091D01*
X158569185Y-65319257D01*
X158414791Y-65151541D01*
X158414787Y-65151538D01*
X158234909Y-65011533D01*
X158234900Y-65011527D01*
X158224789Y-65006056D01*
X158175197Y-64956838D01*
X158160087Y-64888621D01*
X158184257Y-64823065D01*
X158224789Y-64787944D01*
X158234900Y-64782472D01*
X158234906Y-64782469D01*
X158414794Y-64642456D01*
X158569183Y-64474745D01*
X158693862Y-64283909D01*
X158693861Y-64283909D01*
X158694013Y-64283678D01*
X158747160Y-64238322D01*
X158797822Y-64227500D01*
X164375500Y-64227500D01*
X164442539Y-64247185D01*
X164488294Y-64299989D01*
X164499500Y-64351500D01*
X164499500Y-80301500D01*
X164479815Y-80368539D01*
X164427011Y-80414294D01*
X164375500Y-80425500D01*
X158797822Y-80425500D01*
X158730783Y-80405815D01*
X158694013Y-80369322D01*
X158684698Y-80355065D01*
X158569183Y-80178255D01*
X158414794Y-80010544D01*
X158414793Y-80010543D01*
X158414791Y-80010541D01*
X158414787Y-80010538D01*
X158234909Y-79870533D01*
X158234895Y-79870524D01*
X158224259Y-79864768D01*
X158174669Y-79815548D01*
X158159563Y-79747330D01*
X158183735Y-79681775D01*
X158224265Y-79646658D01*
X158234632Y-79641047D01*
X158234633Y-79641046D01*
X158260983Y-79620537D01*
X158260984Y-79620536D01*
X157609409Y-78968962D01*
X157672993Y-78951925D01*
X157787007Y-78886099D01*
X157880099Y-78793007D01*
X157945925Y-78678993D01*
X157962962Y-78615409D01*
X158613125Y-79265571D01*
X158693420Y-79142669D01*
X158784954Y-78933993D01*
X158840894Y-78713093D01*
X158840896Y-78713085D01*
X158859712Y-78486006D01*
X158859712Y-78485993D01*
X158840896Y-78258914D01*
X158840894Y-78258906D01*
X158784954Y-78038006D01*
X158693420Y-77829330D01*
X158613124Y-77706427D01*
X157962962Y-78356590D01*
X157945925Y-78293007D01*
X157880099Y-78178993D01*
X157787007Y-78085901D01*
X157672993Y-78020075D01*
X157609407Y-78003037D01*
X158260983Y-77351462D01*
X158234626Y-77330948D01*
X158224260Y-77325338D01*
X158174670Y-77276117D01*
X158159563Y-77207901D01*
X158183735Y-77142345D01*
X158224264Y-77107228D01*
X158234906Y-77101469D01*
X158414794Y-76961456D01*
X158569183Y-76793745D01*
X158693862Y-76602909D01*
X158785430Y-76394155D01*
X158841390Y-76173176D01*
X158841391Y-76173168D01*
X158860214Y-75946006D01*
X158860214Y-75945993D01*
X158841391Y-75718831D01*
X158841389Y-75718820D01*
X158785430Y-75497844D01*
X158693862Y-75289091D01*
X158569185Y-75098257D01*
X158434849Y-74952330D01*
X158414794Y-74930544D01*
X158414793Y-74930543D01*
X158414791Y-74930541D01*
X158414787Y-74930538D01*
X158234909Y-74790533D01*
X158234900Y-74790527D01*
X158034432Y-74682040D01*
X158034429Y-74682039D01*
X158034426Y-74682037D01*
X158034420Y-74682035D01*
X158034418Y-74682034D01*
X157818826Y-74608020D01*
X157650188Y-74579880D01*
X157593977Y-74570500D01*
X157366023Y-74570500D01*
X157321053Y-74578004D01*
X157141173Y-74608020D01*
X156925581Y-74682034D01*
X156925567Y-74682040D01*
X156725099Y-74790527D01*
X156725090Y-74790533D01*
X156545212Y-74930538D01*
X156545208Y-74930541D01*
X156390814Y-75098257D01*
X156266137Y-75289091D01*
X156174569Y-75497844D01*
X156118610Y-75718820D01*
X156118608Y-75718831D01*
X156099786Y-75945993D01*
X156099786Y-75946006D01*
X156118608Y-76173168D01*
X156118610Y-76173179D01*
X156174569Y-76394155D01*
X156266137Y-76602908D01*
X156390814Y-76793742D01*
X156545208Y-76961458D01*
X156545212Y-76961461D01*
X156642032Y-77036819D01*
X156725094Y-77101469D01*
X156735736Y-77107228D01*
X156785328Y-77156446D01*
X156800438Y-77224662D01*
X156776268Y-77290218D01*
X156735744Y-77325336D01*
X156725366Y-77330952D01*
X156699015Y-77351461D01*
X156699015Y-77351463D01*
X157350590Y-78003037D01*
X157287007Y-78020075D01*
X157172993Y-78085901D01*
X157079901Y-78178993D01*
X157014075Y-78293007D01*
X156997037Y-78356591D01*
X156346874Y-77706428D01*
X156266578Y-77829333D01*
X156266577Y-77829335D01*
X156175045Y-78038006D01*
X156119105Y-78258906D01*
X156119103Y-78258914D01*
X156100288Y-78485993D01*
X156100288Y-78486006D01*
X156119103Y-78713085D01*
X156119105Y-78713093D01*
X156175045Y-78933993D01*
X156266577Y-79142664D01*
X156266579Y-79142668D01*
X156346874Y-79265570D01*
X156997037Y-78615408D01*
X157014075Y-78678993D01*
X157079901Y-78793007D01*
X157172993Y-78886099D01*
X157287007Y-78951925D01*
X157350590Y-78968962D01*
X156699015Y-79620536D01*
X156699015Y-79620538D01*
X156725360Y-79641043D01*
X156725370Y-79641050D01*
X156735737Y-79646660D01*
X156785328Y-79695879D01*
X156800436Y-79764095D01*
X156776266Y-79829651D01*
X156735743Y-79864767D01*
X156725100Y-79870527D01*
X156725090Y-79870533D01*
X156545212Y-80010538D01*
X156545208Y-80010541D01*
X156390814Y-80178257D01*
X156266137Y-80369091D01*
X156174569Y-80577844D01*
X156118610Y-80798820D01*
X156118608Y-80798831D01*
X156099786Y-81025993D01*
X156099786Y-81026006D01*
X156118608Y-81253168D01*
X156118610Y-81253179D01*
X156174569Y-81474155D01*
X156266137Y-81682908D01*
X156390814Y-81873742D01*
X156545208Y-82041458D01*
X156545212Y-82041461D01*
X156725094Y-82181469D01*
X156725096Y-82181470D01*
X156725099Y-82181472D01*
X156735214Y-82186946D01*
X156784804Y-82236166D01*
X156799911Y-82304382D01*
X156775740Y-82369938D01*
X156735214Y-82405054D01*
X156725099Y-82410527D01*
X156725090Y-82410533D01*
X156545212Y-82550538D01*
X156545208Y-82550541D01*
X156390814Y-82718257D01*
X156266137Y-82909091D01*
X156174569Y-83117844D01*
X156118610Y-83338820D01*
X156118608Y-83338831D01*
X156099786Y-83565993D01*
X156099786Y-83566006D01*
X156118608Y-83793168D01*
X156118610Y-83793179D01*
X156174569Y-84014155D01*
X156266137Y-84222908D01*
X156390814Y-84413742D01*
X156390817Y-84413745D01*
X156508567Y-84541656D01*
X156545208Y-84581458D01*
X156545212Y-84581461D01*
X156645015Y-84659141D01*
X156725094Y-84721469D01*
X156725096Y-84721470D01*
X156725099Y-84721472D01*
X156735214Y-84726946D01*
X156784804Y-84776166D01*
X156799911Y-84844382D01*
X156775740Y-84909938D01*
X156735214Y-84945054D01*
X156725099Y-84950527D01*
X156725090Y-84950533D01*
X156545212Y-85090538D01*
X156545208Y-85090541D01*
X156390814Y-85258257D01*
X156266137Y-85449091D01*
X156174569Y-85657844D01*
X156118610Y-85878820D01*
X156118608Y-85878831D01*
X156099786Y-86105993D01*
X156099786Y-86106006D01*
X156118608Y-86333168D01*
X156118610Y-86333179D01*
X156174569Y-86554155D01*
X156266137Y-86762908D01*
X156390814Y-86953742D01*
X156545208Y-87121458D01*
X156545212Y-87121461D01*
X156636081Y-87192187D01*
X156725094Y-87261469D01*
X156735736Y-87267228D01*
X156785328Y-87316446D01*
X156800438Y-87384662D01*
X156776268Y-87450218D01*
X156735744Y-87485336D01*
X156725366Y-87490952D01*
X156699015Y-87511461D01*
X156699015Y-87511463D01*
X157350590Y-88163037D01*
X157287007Y-88180075D01*
X157172993Y-88245901D01*
X157079901Y-88338993D01*
X157014075Y-88453007D01*
X156997037Y-88516591D01*
X156346874Y-87866428D01*
X156266578Y-87989333D01*
X156266577Y-87989335D01*
X156175045Y-88198006D01*
X156119105Y-88418906D01*
X156119103Y-88418914D01*
X156100288Y-88645993D01*
X156100288Y-88646006D01*
X156119103Y-88873085D01*
X156119105Y-88873093D01*
X156175045Y-89093993D01*
X156266577Y-89302664D01*
X156266579Y-89302668D01*
X156346874Y-89425570D01*
X156997037Y-88775408D01*
X157014075Y-88838993D01*
X157079901Y-88953007D01*
X157172993Y-89046099D01*
X157287007Y-89111925D01*
X157350590Y-89128962D01*
X156699015Y-89780536D01*
X156699015Y-89780538D01*
X156725360Y-89801043D01*
X156725371Y-89801050D01*
X156925769Y-89909499D01*
X156925780Y-89909504D01*
X157141298Y-89983492D01*
X157366065Y-90021000D01*
X157593935Y-90021000D01*
X157818701Y-89983492D01*
X158034219Y-89909504D01*
X158034230Y-89909499D01*
X158234627Y-89801050D01*
X158234633Y-89801046D01*
X158260983Y-89780537D01*
X158260984Y-89780536D01*
X157609409Y-89128962D01*
X157672993Y-89111925D01*
X157787007Y-89046099D01*
X157880099Y-88953007D01*
X157945925Y-88838993D01*
X157962962Y-88775409D01*
X158613125Y-89425571D01*
X158693420Y-89302669D01*
X158784954Y-89093993D01*
X158840894Y-88873093D01*
X158840896Y-88873085D01*
X158859712Y-88646006D01*
X158859712Y-88645993D01*
X158840896Y-88418914D01*
X158840894Y-88418906D01*
X158784954Y-88198006D01*
X158693420Y-87989330D01*
X158613124Y-87866427D01*
X157962962Y-88516590D01*
X157945925Y-88453007D01*
X157880099Y-88338993D01*
X157787007Y-88245901D01*
X157672993Y-88180075D01*
X157609407Y-88163037D01*
X158260983Y-87511462D01*
X158234626Y-87490948D01*
X158224260Y-87485338D01*
X158174670Y-87436117D01*
X158159563Y-87367901D01*
X158183735Y-87302345D01*
X158224264Y-87267228D01*
X158234906Y-87261469D01*
X158414794Y-87121456D01*
X158569183Y-86953745D01*
X158693862Y-86762909D01*
X158785430Y-86554155D01*
X158841390Y-86333176D01*
X158858333Y-86128702D01*
X158860214Y-86106006D01*
X158860214Y-86105993D01*
X158841391Y-85878831D01*
X158841389Y-85878820D01*
X158785430Y-85657844D01*
X158693862Y-85449091D01*
X158569185Y-85258257D01*
X158434849Y-85112330D01*
X158414794Y-85090544D01*
X158414793Y-85090543D01*
X158414791Y-85090541D01*
X158414787Y-85090538D01*
X158234909Y-84950533D01*
X158234900Y-84950527D01*
X158224789Y-84945056D01*
X158175197Y-84895838D01*
X158160087Y-84827621D01*
X158184257Y-84762065D01*
X158224789Y-84726944D01*
X158234900Y-84721472D01*
X158234906Y-84721469D01*
X158414794Y-84581456D01*
X158569183Y-84413745D01*
X158693862Y-84222909D01*
X158785430Y-84014155D01*
X158841390Y-83793176D01*
X158841391Y-83793168D01*
X158860214Y-83566006D01*
X158860214Y-83565993D01*
X158841391Y-83338831D01*
X158841389Y-83338820D01*
X158785430Y-83117844D01*
X158693862Y-82909091D01*
X158569185Y-82718257D01*
X158434849Y-82572330D01*
X158414794Y-82550544D01*
X158414793Y-82550543D01*
X158414791Y-82550541D01*
X158414787Y-82550538D01*
X158234909Y-82410533D01*
X158234900Y-82410527D01*
X158224789Y-82405056D01*
X158175197Y-82355838D01*
X158160087Y-82287621D01*
X158184257Y-82222065D01*
X158224789Y-82186944D01*
X158234900Y-82181472D01*
X158234906Y-82181469D01*
X158414794Y-82041456D01*
X158569183Y-81873745D01*
X158693862Y-81682909D01*
X158693861Y-81682909D01*
X158694013Y-81682678D01*
X158747160Y-81637322D01*
X158797822Y-81626500D01*
X164375500Y-81626500D01*
X164442539Y-81646185D01*
X164488294Y-81698989D01*
X164499500Y-81750500D01*
X164499500Y-97770908D01*
X164479815Y-97837947D01*
X164427914Y-97883286D01*
X164422173Y-97885963D01*
X164422169Y-97885965D01*
X164228597Y-98021505D01*
X164061505Y-98188597D01*
X163925965Y-98382169D01*
X163925964Y-98382171D01*
X163826098Y-98596335D01*
X163826094Y-98596344D01*
X163764938Y-98824586D01*
X163764936Y-98824596D01*
X163744341Y-99059999D01*
X163744341Y-99060000D01*
X163764936Y-99295403D01*
X163764938Y-99295413D01*
X163826094Y-99523655D01*
X163826096Y-99523659D01*
X163826097Y-99523663D01*
X163906004Y-99695023D01*
X163925965Y-99737830D01*
X163925967Y-99737834D01*
X164013874Y-99863377D01*
X164061505Y-99931401D01*
X164228599Y-100098495D01*
X164313404Y-100157876D01*
X164422165Y-100234032D01*
X164422167Y-100234033D01*
X164422170Y-100234035D01*
X164636337Y-100333903D01*
X164864592Y-100395063D01*
X165041034Y-100410500D01*
X165099999Y-100415659D01*
X165100000Y-100415659D01*
X165100001Y-100415659D01*
X165158966Y-100410500D01*
X165335408Y-100395063D01*
X165563663Y-100333903D01*
X165777830Y-100234035D01*
X165971401Y-100098495D01*
X166138495Y-99931401D01*
X166268425Y-99745842D01*
X166323002Y-99702217D01*
X166392500Y-99695023D01*
X166454855Y-99726546D01*
X166471575Y-99745842D01*
X166601500Y-99931395D01*
X166601505Y-99931401D01*
X166768599Y-100098495D01*
X166853404Y-100157876D01*
X166962165Y-100234032D01*
X166962167Y-100234033D01*
X166962170Y-100234035D01*
X167176337Y-100333903D01*
X167404592Y-100395063D01*
X167581034Y-100410500D01*
X167639999Y-100415659D01*
X167640000Y-100415659D01*
X167640001Y-100415659D01*
X167698966Y-100410500D01*
X167875408Y-100395063D01*
X168103663Y-100333903D01*
X168317830Y-100234035D01*
X168511401Y-100098495D01*
X168678495Y-99931401D01*
X168808730Y-99745405D01*
X168863307Y-99701781D01*
X168932805Y-99694587D01*
X168995160Y-99726110D01*
X169011879Y-99745405D01*
X169141890Y-99931078D01*
X169308917Y-100098105D01*
X169502421Y-100233600D01*
X169716507Y-100333429D01*
X169716516Y-100333433D01*
X169930000Y-100390634D01*
X169930000Y-99493012D01*
X169987007Y-99525925D01*
X170114174Y-99560000D01*
X170245826Y-99560000D01*
X170372993Y-99525925D01*
X170430000Y-99493012D01*
X170430000Y-100390633D01*
X170643483Y-100333433D01*
X170643492Y-100333429D01*
X170857578Y-100233600D01*
X171051078Y-100098108D01*
X171173133Y-99976053D01*
X171234456Y-99942568D01*
X171304148Y-99947552D01*
X171360082Y-99989423D01*
X171376997Y-100020401D01*
X171426202Y-100152328D01*
X171426206Y-100152335D01*
X171512452Y-100267544D01*
X171512455Y-100267547D01*
X171627664Y-100353793D01*
X171627671Y-100353797D01*
X171762517Y-100404091D01*
X171762516Y-100404091D01*
X171769444Y-100404835D01*
X171822127Y-100410500D01*
X173265500Y-100410499D01*
X173332539Y-100430184D01*
X173378294Y-100482987D01*
X173389500Y-100534499D01*
X173389500Y-102780500D01*
X173369815Y-102847539D01*
X173317011Y-102893294D01*
X173265500Y-102904500D01*
X162480943Y-102904500D01*
X162328216Y-102945423D01*
X162328209Y-102945426D01*
X162191290Y-103024475D01*
X162191282Y-103024481D01*
X162079481Y-103136282D01*
X162079475Y-103136290D01*
X162000426Y-103273209D01*
X162000423Y-103273216D01*
X161959500Y-103425943D01*
X161958744Y-103431687D01*
X161930476Y-103495583D01*
X161872152Y-103534053D01*
X161835805Y-103539500D01*
X143415538Y-103539500D01*
X143348499Y-103519815D01*
X143313963Y-103486624D01*
X143204674Y-103330543D01*
X143049457Y-103175326D01*
X143049455Y-103175325D01*
X143049452Y-103175322D01*
X142869650Y-103049423D01*
X142869642Y-103049419D01*
X142783889Y-103009432D01*
X142725878Y-102982381D01*
X142673439Y-102936210D01*
X142654287Y-102869017D01*
X142674502Y-102802136D01*
X142725879Y-102757618D01*
X142726171Y-102757482D01*
X142869646Y-102690579D01*
X143049457Y-102564674D01*
X143204674Y-102409457D01*
X143330579Y-102229646D01*
X143423347Y-102030703D01*
X143480161Y-101818674D01*
X143499292Y-101600000D01*
X143480161Y-101381326D01*
X143423347Y-101169297D01*
X143330579Y-100970354D01*
X143330577Y-100970351D01*
X143330576Y-100970349D01*
X143204677Y-100790547D01*
X143204672Y-100790541D01*
X143049458Y-100635327D01*
X143049452Y-100635322D01*
X142869650Y-100509423D01*
X142869642Y-100509419D01*
X142779844Y-100467546D01*
X142725878Y-100442381D01*
X142673439Y-100396210D01*
X142654287Y-100329017D01*
X142674502Y-100262136D01*
X142725879Y-100217618D01*
X142726171Y-100217482D01*
X142869646Y-100150579D01*
X143049457Y-100024674D01*
X143204674Y-99869457D01*
X143330579Y-99689646D01*
X143423347Y-99490703D01*
X143480161Y-99278674D01*
X143499292Y-99060000D01*
X143480161Y-98841326D01*
X143423347Y-98629297D01*
X143330579Y-98430354D01*
X143330577Y-98430351D01*
X143330576Y-98430349D01*
X143204677Y-98250547D01*
X143204672Y-98250541D01*
X143049458Y-98095327D01*
X143049452Y-98095322D01*
X142869650Y-97969423D01*
X142869642Y-97969419D01*
X142783889Y-97929432D01*
X142725878Y-97902381D01*
X142673439Y-97856210D01*
X142654287Y-97789017D01*
X142674502Y-97722136D01*
X142725879Y-97677618D01*
X142726171Y-97677482D01*
X142869646Y-97610579D01*
X143049457Y-97484674D01*
X143204674Y-97329457D01*
X143330579Y-97149646D01*
X143423347Y-96950703D01*
X143480161Y-96738674D01*
X143494509Y-96574668D01*
X143499292Y-96520002D01*
X143499292Y-96519997D01*
X143480161Y-96301331D01*
X143480161Y-96301326D01*
X143423347Y-96089297D01*
X143330579Y-95890354D01*
X143330577Y-95890351D01*
X143330576Y-95890349D01*
X143204677Y-95710547D01*
X143204672Y-95710541D01*
X143049458Y-95555327D01*
X143049452Y-95555322D01*
X142869650Y-95429423D01*
X142869646Y-95429421D01*
X142725288Y-95362106D01*
X142672849Y-95315934D01*
X142653697Y-95248740D01*
X142673913Y-95181859D01*
X142725289Y-95137342D01*
X142869390Y-95070146D01*
X142932443Y-95025995D01*
X142369410Y-94462962D01*
X142432993Y-94445925D01*
X142547007Y-94380099D01*
X142640099Y-94287007D01*
X142705925Y-94172993D01*
X142722962Y-94109409D01*
X143285995Y-94672442D01*
X143330145Y-94609392D01*
X143422874Y-94410533D01*
X143422878Y-94410524D01*
X143479664Y-94198592D01*
X143479666Y-94198582D01*
X143498790Y-93980000D01*
X143498790Y-93979999D01*
X143479666Y-93761417D01*
X143479664Y-93761407D01*
X143422878Y-93549475D01*
X143422874Y-93549466D01*
X143330144Y-93350605D01*
X143330142Y-93350601D01*
X143285996Y-93287555D01*
X142722962Y-93850589D01*
X142705925Y-93787007D01*
X142640099Y-93672993D01*
X142547007Y-93579901D01*
X142432993Y-93514075D01*
X142369409Y-93497037D01*
X142932443Y-92934003D01*
X142869392Y-92889854D01*
X142670533Y-92797125D01*
X142670524Y-92797121D01*
X142458592Y-92740335D01*
X142458582Y-92740333D01*
X142240001Y-92721210D01*
X142239999Y-92721210D01*
X142021417Y-92740333D01*
X142021407Y-92740335D01*
X141809475Y-92797121D01*
X141809466Y-92797124D01*
X141610606Y-92889855D01*
X141610604Y-92889856D01*
X141547556Y-92934003D01*
X141547555Y-92934003D01*
X142110590Y-93497037D01*
X142047007Y-93514075D01*
X141932993Y-93579901D01*
X141839901Y-93672993D01*
X141774075Y-93787007D01*
X141757037Y-93850590D01*
X141194003Y-93287555D01*
X141194003Y-93287556D01*
X141149856Y-93350604D01*
X141149855Y-93350606D01*
X141057124Y-93549466D01*
X141057121Y-93549475D01*
X141000335Y-93761407D01*
X141000333Y-93761417D01*
X140981210Y-93979999D01*
X140981210Y-93980000D01*
X141000333Y-94198582D01*
X141000335Y-94198592D01*
X141057121Y-94410524D01*
X141057125Y-94410533D01*
X141149854Y-94609392D01*
X141194003Y-94672443D01*
X141757037Y-94109409D01*
X141774075Y-94172993D01*
X141839901Y-94287007D01*
X141932993Y-94380099D01*
X142047007Y-94445925D01*
X142110590Y-94462962D01*
X141547555Y-95025996D01*
X141610601Y-95070142D01*
X141610605Y-95070144D01*
X141754711Y-95137342D01*
X141807150Y-95183514D01*
X141826302Y-95250708D01*
X141806086Y-95317589D01*
X141754711Y-95362106D01*
X141610353Y-95429421D01*
X141610349Y-95429423D01*
X141430547Y-95555322D01*
X141430541Y-95555327D01*
X141275327Y-95710541D01*
X141275322Y-95710547D01*
X141149423Y-95890349D01*
X141149419Y-95890357D01*
X141056655Y-96089291D01*
X141056653Y-96089295D01*
X141056653Y-96089297D01*
X141032642Y-96178902D01*
X140999839Y-96301324D01*
X140999838Y-96301331D01*
X140980708Y-96519997D01*
X140200500Y-96519997D01*
X140200500Y-51424500D01*
X140220185Y-51357461D01*
X140272989Y-51311706D01*
X140324500Y-51300500D01*
X222895500Y-51300500D01*
X222962539Y-51320185D01*
G37*
%TD.AperFunction*%
%TD*%
M02*
