M48
; DRILL file {KiCad 8.0.9-1.fc41} date 2025-03-30T16:52:19-0400
; FORMAT={-:-/ absolute / inch / decimal}
; #@! TF.CreationDate,2025-03-30T16:52:19-04:00
; #@! TF.GenerationSoftware,Kicad,Pcbnew,8.0.9-1.fc41
; #@! TF.FileFunction,Plated,1,2,PTH
FMAT,2
INCH
; #@! TA.AperFunction,Plated,PTH,ViaDrill
T1C0.0118
; #@! TA.AperFunction,Plated,PTH,ComponentDrill
T2C0.0315
; #@! TA.AperFunction,Plated,PTH,ComponentDrill
T3C0.0354
; #@! TA.AperFunction,Plated,PTH,ComponentDrill
T4C0.0394
; #@! TA.AperFunction,Plated,PTH,ComponentDrill
T5C0.0402
; #@! TA.AperFunction,Plated,PTH,ComponentDrill
T6C0.0433
%
G90
G05
T1
X6.375Y-4.2
X6.375Y-4.3
X6.45Y-3.6
X6.525Y-4.3
X6.55Y-3.6
X6.675Y-4.2
T2
X8.3016Y-4.1
X8.4Y-4.1
X8.7Y-2.1
X8.7Y-2.5
X8.7Y-2.7
X8.7Y-3.1
X8.7Y-3.3
X8.7Y-3.7
X8.7Y-3.9
X8.7Y-4.3
T3
X8.3Y-2.1
X8.3Y-3.0
X8.3Y-3.4
X8.3Y-3.8
X8.4Y-2.1
X8.4Y-3.0
X8.4Y-3.4
X8.4Y-3.8
T4
X5.6Y-3.7
X5.6Y-3.8
X5.6Y-3.9
X5.6Y-4.0
X5.6Y-4.1
X5.6Y-4.2
X5.6Y-4.3
X5.6Y-4.4
X6.2Y-2.205
X6.2Y-2.305
X6.2Y-2.405
X6.2Y-2.505
X6.2Y-2.605
X6.2Y-2.99
X6.2Y-3.09
X6.2Y-3.19
X6.2Y-3.29
X6.2Y-3.39
X6.2Y-3.49
X6.5Y-3.9
X6.6Y-3.9
X6.7Y-3.9
X6.8Y-3.9
T5
X7.1848Y-2.1079
X7.1848Y-2.2079
X7.1848Y-2.3079
X7.1848Y-2.4079
X7.1848Y-2.5079
X7.1848Y-2.6079
X7.1848Y-2.7079
X7.1848Y-2.8079
X7.1848Y-2.9079
X7.1848Y-3.0079
X7.1848Y-3.1079
X7.1848Y-3.2079
X7.1848Y-3.3079
X7.1848Y-3.4079
X7.1848Y-3.5079
X7.1848Y-3.6079
X7.1848Y-3.7079
X7.1848Y-3.8079
X7.1848Y-3.9079
X7.1848Y-4.0079
X7.8848Y-2.1079
X7.8848Y-2.2079
X7.8848Y-2.3079
X7.8848Y-2.4079
X7.8848Y-2.5079
X7.8848Y-2.6079
X7.8848Y-2.7079
X7.8848Y-2.8079
X7.8848Y-2.9079
X7.8848Y-3.0079
X7.8848Y-3.1079
X7.8848Y-3.2079
X7.8848Y-3.3079
X7.8848Y-3.4079
X7.8848Y-3.5079
X7.8848Y-3.6079
X7.8848Y-3.7079
X7.8848Y-3.8079
X7.8848Y-3.9079
X7.8848Y-4.0079
T6
X7.1441Y-4.3
X7.1441Y-4.4772
X7.4Y-4.3
X7.4Y-4.4772
X7.7Y-4.3
X7.7Y-4.4772
X7.9559Y-4.3
X7.9559Y-4.4772
X8.2941Y-2.5
X8.2941Y-2.6772
X8.55Y-2.5
X8.55Y-2.6772
M30
